<?xml version="1.0" encoding="UTF-8" standalone="no"?>
<svg
   width="972.261"
   height="972.261"
   version="1.1"
   id="svg34"
   sodipodi:docname="logo_icon (copy).svg"
   inkscape:version="1.1.1 (1:1.1+202109281946+c3084ef5ed)"
   xmlns:inkscape="http://www.inkscape.org/namespaces/inkscape"
   xmlns:sodipodi="http://sodipodi.sourceforge.net/DTD/sodipodi-0.dtd"
   xmlns:xlink="http://www.w3.org/1999/xlink"
   xmlns="http://www.w3.org/2000/svg"
   xmlns:svg="http://www.w3.org/2000/svg">
  <sodipodi:namedview
     id="namedview36"
     pagecolor="#ffffff"
     bordercolor="#666666"
     borderopacity="1.0"
     inkscape:pageshadow="2"
     inkscape:pageopacity="0.0"
     inkscape:pagecheckerboard="0"
     showgrid="false"
     inkscape:zoom="0.89790706"
     inkscape:cx="486.13049"
     inkscape:cy="486.13049"
     inkscape:window-width="3372"
     inkscape:window-height="1376"
     inkscape:window-x="68"
     inkscape:window-y="27"
     inkscape:window-maximized="1"
     inkscape:current-layer="svg34" />
  <text
     xml:space="preserve"
     x="964.377"
     y="674.607"
     font-weight="600"
     font-size="333.333"
     font-family="Open Sans"
     fill="#fff"
     id="text4"
     style="fill:#ffffff"><tspan
       x="958.269"
       y="607.795"
       font-weight="bold"
       id="tspan2"
       style="fill:#ffffff">CodeNotary</tspan></text>
  <g
     fill="#244583"
     id="g26"
     style="fill:#ffffff">
    <path
       d="M486.131 100.001C272.877 100.001 100 272.878 100 486.132s172.877 386.131 386.131 386.131c213.162-.223 385.908-172.969 386.131-386.131 0-213.254-172.877-386.131-386.131-386.131zm0 16.861c203.849.223 369.045 165.421 369.268 369.27 0 203.942-165.327 369.268-369.268 369.268s-369.27-165.327-369.27-369.268 165.328-369.27 369.27-369.27zm-.001 713.043a347.3 347.3 0 0 1-59.521-5.16 8.43 8.43 0 1 1 2.9-16.592 331.71 331.71 0 0 0 113.546 0 8.44 8.44 0 0 1 9.763 6.863 8.44 8.44 0 0 1-6.863 9.763 347.35 347.35 0 0 1-59.825 5.126zM318.627 785.12c-1.478-.001-2.93-.385-4.215-1.113a344.58 344.58 0 0 1-91.322-76.72 8.44 8.44 0 0 1 1.029-11.887 8.44 8.44 0 0 1 11.887 1.029c24.475 29.197 53.863 53.894 86.837 72.977a8.43 8.43 0 0 1-4.215 15.715zm335.276 0a8.43 8.43 0 0 1-4.249-15.749 326.9 326.9 0 0 0 86.938-73.011 8.43 8.43 0 1 1 12.916 10.825 344.55 344.55 0 0 1-91.39 76.653c-1.279.749-2.734 1.145-4.215 1.147zM171.054 609.76a8.43 8.43 0 0 1-7.925-5.598 342.46 342.46 0 0 1-20.74-117.525 8.4 8.4 0 0 1 2.447-5.959c1.575-1.582 3.717-2.471 5.95-2.471 4.649.017 8.412 3.782 8.431 8.431a325.7 325.7 0 0 0 19.728 111.759c1.584 4.367-.663 9.193-5.025 10.791a8.15 8.15 0 0 1-2.866.405zm630.287-.337c-.99.017-1.974-.156-2.9-.506-2.106-.753-3.824-2.318-4.768-4.346s-1.037-4.349-.257-6.446a326.14 326.14 0 0 0 19.627-111.995v-.742c0-4.656 3.775-8.431 8.431-8.431s8.431 3.775 8.431 8.431v.742c.05 40.103-6.936 79.904-20.639 117.593-1.226 3.319-4.387 5.524-7.925 5.531zM170.818 380.206a8.43 8.43 0 0 1-7.925-11.331 343.03 343.03 0 0 1 59.623-103.395 8.44 8.44 0 0 1 12.95 10.825c-24.522 29.203-43.722 62.488-56.722 98.337a8.43 8.43 0 0 1-7.925 5.564zm630.287-1.012a8.4 8.4 0 0 1-7.925-5.531c-13.106-35.785-32.397-68.99-56.992-98.101-1.946-2.319-2.506-5.5-1.471-8.345a8.47 8.47 0 0 1 6.492-5.446c2.982-.525 6.017.58 7.962 2.899a342.5 342.5 0 0 1 59.926 103.193c1.61 4.367-.624 9.213-4.991 10.825a8.89 8.89 0 0 1-3.001.506zM318.053 204.339a8.43 8.43 0 0 1-4.215-15.715 339.66 339.66 0 0 1 112.096-41.007 8.44 8.44 0 0 1 2.934 16.626 323.27 323.27 0 0 0-106.565 38.95c-1.29.75-2.756 1.146-4.249 1.147zm335.242-.506a8.23 8.23 0 0 1-4.182-1.147A324.62 324.62 0 0 0 542.38 164.04c-4.396-.981-7.244-5.244-6.469-9.68s4.901-7.48 9.369-6.912a340.2 340.2 0 0 1 112.231 40.468 8.43 8.43 0 0 1-4.215 15.749zM486.13 785.087c-165.109 0-298.956-133.847-298.956-298.956S321.021 187.174 486.13 187.174 785.086 321.021 785.086 486.13C784.9 651.162 651.162 784.9 486.13 785.086zm0-581.051c-155.797 0-282.095 126.298-282.095 282.095S330.333 768.225 486.13 768.225 768.224 641.927 768.224 486.13c-.167-155.727-126.367-281.927-282.095-282.095zm-15.917 366.402a9.46 9.46 0 0 1-2.158-.27 93.38 93.38 0 0 1-48.258-149.191v-.202a87.21 87.21 0 0 1 6.205-6.745l75.304-75.135c23.59-23.59 57.974-32.803 90.199-24.169a93.38 93.38 0 0 1 41.861 156.229l-75.102 75.102a80.53 80.53 0 0 1-7.082 6.407 8.43 8.43 0 0 1-11.769-11.938 76.65 76.65 0 0 0 14.568-68.121 8.43 8.43 0 0 1 2.158-8.127l35.274-35.274c12.797-13.381 12.561-34.533-.531-47.625s-34.244-13.328-47.625-.531l-75.102 75.102c-1.667 1.639-3.159 3.448-4.451 5.396-8.87 13.51-7.036 31.392 4.392 42.82s29.31 13.262 42.82 4.392a8.43 8.43 0 0 1 11.635 11.702 53.15 53.15 0 0 1-6.542 8.026l-39.827 39.793a8.47 8.47 0 0 1-5.969 2.361zm-37.5-138.602c-15.73 19.491-20.936 45.443-13.938 69.493a76.59 76.59 0 0 0 49.044 51.169l21.751-21.751a50.89 50.89 0 0 1-39.928-78.777 53.96 53.96 0 0 1 6.576-8.06l75.102-75c19.891-19.891 52.141-19.891 72.033 0s19.891 52.141 0 72.033l-31.936 31.902c1.35 6.375 2.028 12.874 2.023 19.391.01 5.451-.477 10.891-1.45 16.255l49.472-49.337c29.921-29.921 29.921-78.432 0-108.353s-78.432-29.921-108.353 0l-75.102 75.102a69.03 69.03 0 0 0-5.126 5.699z"
       id="path6"
       style="fill:#ffffff" />
    <use
       xlink:href="#B"
       id="use8"
       style="fill:#ffffff" />
    <use
       xlink:href="#C"
       id="use10"
       style="fill:#ffffff" />
    <use
       xlink:href="#B"
       id="use12"
       style="fill:#ffffff" />
    <use
       xlink:href="#C"
       id="use14"
       style="fill:#ffffff" />
    <path
       d="M404.924 660.682a93.35 93.35 0 0 1-66.03-159.376l75.102-75.102a80.53 80.53 0 0 1 7.082-6.407 8.43 8.43 0 0 1 11.769 11.938 76.79 76.79 0 0 0-14.568 68.121 8.43 8.43 0 0 1-2.158 8.127l-35.274 35.274c-12.797 13.381-12.561 34.533.531 47.625s34.244 13.328 47.625.531l75.102-74.933c1.667-1.639 3.159-3.448 4.451-5.396 3.62-5.572 5.553-12.072 5.564-18.716a34.13 34.13 0 0 0-52.811-28.462 8.43 8.43 0 0 1-11.635-11.702 53.15 53.15 0 0 1 6.542-8.026l40.029-39.996a8.43 8.43 0 0 1 8.127-2.192 93.38 93.38 0 0 1 48.258 149.191v.202c-1.949 2.355-4.02 4.607-6.205 6.745l-75.473 75.236c-17.497 17.531-41.262 27.362-66.03 27.316zm-4.62-196.943l-49.506 49.371c-29.241 30.002-28.933 77.937.691 107.561s77.559 29.932 107.561.691l75.102-75.102c1.813-1.803 3.524-3.706 5.126-5.699l.27-.337c15.73-19.491 20.936-45.443 13.938-69.493s-25.312-43.158-49.044-51.169l-21.684 21.853a50.89 50.89 0 0 1 39.928 78.777 53.96 53.96 0 0 1-6.576 8.06l-75.169 75.102c-19.891 19.891-52.141 19.891-72.033 0s-19.891-52.141 0-72.033l31.936-31.902c-2.47-11.748-2.653-23.862-.54-35.679z"
       id="path16"
       style="fill:#ffffff" />
    <use
       xlink:href="#D"
       id="use18"
       style="fill:#ffffff" />
    <use
       xlink:href="#E"
       id="use20"
       style="fill:#ffffff" />
    <use
       xlink:href="#D"
       id="use22"
       style="fill:#ffffff" />
    <use
       xlink:href="#E"
       id="use24"
       style="fill:#ffffff" />
  </g>
  <defs
     id="defs32">
    <path
       id="B"
       d="M492.335 530.915a50.89 50.89 0 0 1-42.694-78.845 8.33 8.33 0 0 1 2.428-2.428c15.654-10.273 35.682-11.133 52.159-2.239s26.75 26.107 26.753 44.832a51.26 51.26 0 0 1-8.363 27.923 8.33 8.33 0 0 1-2.428 2.428c-8.27 5.443-17.955 8.339-27.855 8.33zm-29.508-68.087c-7.798 13.374-5.607 30.323 5.336 41.274s27.89 13.154 41.27 5.366a34.6 34.6 0 0 0 4.688-17.233 34.13 34.13 0 0 0-51.293-29.407z" />
    <path
       id="C"
       d="M562.108 478.644a8.36 8.36 0 0 1-2.192-.27 8.43 8.43 0 0 1-5.935-5.969 76.72 76.72 0 0 0-54.126-54.126 8.43 8.43 0 0 1-3.608-14.096l35.072-35.274c19.891-19.891 52.141-19.891 72.033 0s19.891 52.141 0 72.033l-35.274 35.241c-1.576 1.593-3.729 2.481-5.969 2.462zm-44.65-71.999a93.92 93.92 0 0 1 48.157 48.157l25.798-25.798a34.06 34.06 0 0 0-14.97-57.58 34.06 34.06 0 0 0-33.186 9.424z" />
    <path
       id="D"
       d="M492.335 530.915a50.89 50.89 0 0 1-42.694-78.845 8.33 8.33 0 0 1 2.428-2.428 50.96 50.96 0 0 1 70.549 70.549 8.33 8.33 0 0 1-2.428 2.428c-8.274 5.431-17.959 8.315-27.855 8.296zm-29.508-68.087c-7.798 13.374-5.607 30.323 5.336 41.274s27.89 13.154 41.27 5.366c3.06-5.241 4.677-11.198 4.688-17.266a34.13 34.13 0 0 0-51.293-29.373z" />
    <path
       id="E"
       d="M404.924 618.224c-20.587-.007-39.145-12.408-47.027-31.426s-3.537-40.912 11.01-55.479l35.274-35.072c2.121-2.146 5.231-2.99 8.146-2.209s5.187 3.066 5.95 5.986a76.72 76.72 0 0 0 54.126 54.126 8.43 8.43 0 0 1 3.777 14.096l-35.241 35.106a50.82 50.82 0 0 1-36.016 14.872zm1.72-100.765l-25.798 25.798c-12.797 13.381-12.561 34.533.531 47.625s34.244 13.328 47.625.531l25.798-25.798a93.92 93.92 0 0 1-48.157-48.157z" />
  </defs>
</svg>
