<svg width="258" height="245" viewBox="0 0 258 245" fill="none" xmlns="http://www.w3.org/2000/svg">
<path d="M85.5904 77.4207C85.4377 77.4817 85.285 77.5428 85.1322 77.6039C85.3461 78.1435 86.2929 77.2374 86.9344 78.8461C87.1278 78.7646 87.3315 78.673 87.5249 78.5915C87.6776 78.5203 87.8304 78.4592 87.9831 78.3879C87.9933 78.3879 87.9933 78.3777 88.0035 78.3777C88.4311 78.1843 88.8587 77.9908 89.2762 77.7974C95.5786 78.785 100.608 81.6053 104.09 85.4845C100.506 83.2445 94.7335 79.3653 84.9388 79.3246C73.8001 79.3755 69.2286 81.4017 59.5764 85.179C53.5896 90.5244 47.0021 94.2 43.4487 101.042C39.3863 108.841 46.8392 128.634 59.5255 126.832C60.6047 126.669 61.7654 126.323 62.1523 126.16C63.7203 125.559 78.6058 118.035 85.3053 118.035C86.0995 118.717 89.3983 120.346 93.4201 119.939C98.2665 119.45 102.349 116.386 105.526 112.669C101.056 118.85 94.8455 122.739 87.4333 120.947C86.2217 120.642 85.2646 120.255 84.725 119.98C80.8051 120.143 72.2321 123.676 68.8722 125.234C68.862 125.234 68.862 125.244 68.8518 125.244C68.7297 125.295 68.5159 125.396 68.2511 125.508C68.2206 125.519 68.19 125.539 68.1595 125.549C68.0882 125.58 68.0169 125.61 67.9355 125.651C67.8642 125.682 67.793 125.712 67.7217 125.753C67.2431 125.967 66.8155 126.16 66.4286 126.343C66.4184 126.354 66.4083 126.354 66.3981 126.364C66.3777 126.374 66.3675 126.384 66.3472 126.384C66.337 126.384 66.3268 126.394 66.3268 126.394C63.5778 127.667 63.0992 128.003 61.3378 128.451C61.0629 128.522 60.788 128.583 60.5131 128.634C60.4622 128.644 60.4113 128.655 60.3604 128.665C60.2891 128.675 60.2077 128.695 60.1364 128.705C60.0753 128.716 60.0142 128.726 59.9429 128.736C59.8717 128.746 59.8004 128.756 59.7291 128.767C46.3403 130.671 38.0321 111.885 40.9746 101.928C40.9848 101.907 40.9848 101.887 40.995 101.867C41.0662 101.643 41.1884 101.317 41.28 101.083C41.2902 101.073 41.2902 101.052 41.3004 101.042C41.3106 101.022 41.3106 101.011 41.3208 100.991C41.3208 100.991 41.3208 100.991 41.3208 100.981C41.3513 100.92 41.3717 100.859 41.4022 100.798C41.4022 100.787 41.4124 100.787 41.4124 100.777C41.5244 100.543 41.6364 100.319 41.7586 100.085C41.7993 100.014 41.84 99.9424 41.8706 99.8711C42.0335 99.5657 42.2066 99.2806 42.3695 98.9955C42.3695 98.9955 42.3593 98.9955 42.3593 99.0057C46.3607 92.2451 53.3758 88.2844 58.5175 83.5296C67.9151 79.3653 74.8895 76.8199 85.5904 77.4207Z" fill="#19243B"/>
<path d="M85.1426 77.6039C85.2953 77.5428 85.448 77.4817 85.6008 77.4207C85.8655 77.4308 86.1302 77.4512 86.3949 77.4716L86.9447 78.8461C86.2931 77.2272 85.3564 78.1435 85.1426 77.6039Z" fill="#19243B"/>
<path d="M108.774 64.3577C108.53 65.0195 108.306 65.7016 108.112 66.3838C108 65.8951 107.898 65.4064 107.807 64.9177C107.827 64.9075 108.774 64.378 108.774 64.378C108.774 64.3678 108.774 64.3678 108.774 64.3577Z" fill="#19243B"/>
<path d="M108.886 64.083C108.855 64.1746 108.815 64.2663 108.784 64.3579C108.815 64.2663 108.845 64.1746 108.886 64.083Z" fill="#2854A1"/>
<path d="M109.669 65.8745C109.649 65.7726 109.629 65.6606 109.608 65.5486C109.629 65.6504 109.649 65.7624 109.669 65.8745Z" fill="#19243B"/>
<path d="M247.396 111.05H247.386C244.871 110.867 242.285 111.478 239.679 113.036C233.539 113.748 231.523 121.731 234.791 126.608C233.987 126.954 233.172 127.463 232.439 128.135C230.413 126.954 228.01 126.486 225.73 126.649C220.914 126.313 216.078 128.797 215.752 133.277C215.385 138.266 221.036 141.738 226.514 141.341C228.133 141.218 229.741 140.76 231.177 139.905C231.279 140.139 231.391 140.373 231.503 140.597C232.185 141.992 233.04 143.224 233.977 144.1C231.696 144.782 229.415 145.138 227.186 145.21C210.956 145.739 197.415 131.098 202.831 116.05C204.491 111.427 207.81 107.517 212.158 104.86C215.477 102.834 218.277 102.172 219.804 101.755C220.619 93.5481 220.517 94.047 220.72 93.9045L227.644 88.9867C229.507 87.6631 229.823 84.9854 228.316 83.2647L222.451 76.555C222.299 76.3819 222.319 76.6873 222.859 71.2605C222.879 71.0365 222.563 71.3522 228.357 66.7603C229.833 65.5894 230.261 63.5225 229.354 61.8629L225.19 54.1656C225.109 54.0129 225.139 53.8296 225.261 53.7176L233.498 45.9897C233.661 45.837 233.916 45.8574 234.048 46.0508C234.211 46.285 234.354 46.4886 234.486 46.6821C236.258 49.2479 235.759 48.5351 237.103 50.4798C236.054 60.9364 232.653 94.8615 232.144 99.9625C232.083 100.584 232.531 101.133 233.142 101.195L233.855 101.266C234.109 101.286 234.343 101.235 234.547 101.113C234.832 100.94 235.036 100.635 235.076 100.268C235.555 95.503 238.681 64.2658 239.689 54.2267C239.933 54.5728 240.3 55.1227 240.961 56.0594C240.9 56.6499 237.408 91.4812 236.461 100.971C236.319 102.376 236.237 103.231 236.227 103.322L237.306 103.852C240.829 105.573 243.812 108.026 246.062 111.01C246.51 110.999 246.958 111.01 247.396 111.05Z" fill="white"/>
<path d="M247.397 111.05H247.387C245.422 111.193 243.416 111.834 241.41 113.036C235.271 113.748 233.255 121.731 236.523 126.608C235.077 127.239 233.57 128.379 232.603 130.09C232.857 129.632 232.277 130.467 232.603 130.09C232.267 129.835 232.959 130.304 232.603 130.09C230.577 128.909 228.011 126.475 225.73 126.638C221.546 126.934 217.768 129.326 217.483 133.267C217.157 137.726 221.647 140.984 226.524 141.33C228.194 141.453 229.915 141.229 231.503 140.597C232.185 141.992 233.041 143.224 233.977 144.1C231.697 144.782 229.416 145.138 227.186 145.21C211.741 144.69 199.329 130.558 204.553 116.05C206.212 111.427 209.531 107.517 213.879 104.86C217.198 102.834 219.998 102.172 221.525 101.755C222.34 93.5481 222.238 94.047 222.442 93.9045L229.365 88.9867C231.228 87.6631 231.544 84.9854 230.037 83.2647L224.173 76.555C224.02 76.3819 224.04 76.6873 224.58 71.2605C224.6 71.0365 224.285 71.3522 230.078 66.7603C231.554 65.5894 231.982 63.5225 231.076 61.8629L226.911 54.1656C226.83 54.0129 226.86 53.8296 226.983 53.7176L234.487 46.6821L235.22 45.9897C235.382 45.837 235.637 45.8574 235.769 46.0508C238.06 49.37 241.278 53.5038 242.723 55.6012C241.675 66.0577 237.806 98.6593 237.286 103.76C237.236 104.259 242.225 106.041 246.043 111.02C246.511 110.999 246.959 111.01 247.397 111.05Z" fill="url(#paint0_linear)"/>
<path d="M232.521 105.461C222.92 104.035 215.324 107.416 210.926 112.995C207.342 117.567 205.143 125.325 207.79 130.477L207.698 130.528C212.871 130.528 219 127.351 223.123 122.036C228.133 115.591 229.854 112.069 232.541 105.349L232.521 105.461Z" fill="url(#paint1_linear)"/>
<path opacity="0.6" d="M232.521 105.461C222.919 104.035 215.324 107.415 210.925 112.995C207.341 117.567 205.142 125.325 207.789 130.477L207.698 130.528C204.511 125.875 205.997 117.607 210.121 112.303C215.13 105.858 223.887 103.058 232.541 105.359L232.521 105.461Z" fill="#2854A1"/>
<path d="M44.3949 141.249C45.4029 139.966 46.3294 138.928 47.256 137.991C50.3308 149.659 51.5119 159.108 52.2246 170.755C43.4582 184.928 30.161 200.089 18.554 211.96C25.396 183.951 23.991 158.721 2.36523 139.651C5.56226 129.245 9.91999 110.969 13.6974 95.0347C17.3831 79.4873 16.8028 82.4807 16.8944 80.3528C16.9249 80.4648 16.9453 80.5666 16.9555 80.648C16.9962 80.9433 16.986 80.8822 17.3933 81.3099C23.8077 88.1315 29.5909 96.6026 34.1115 104.819C30.385 108.535 27.4935 113.28 26.1698 118.503C26.1698 125.732 31.0163 131.19 31.0672 136.525C30.3545 141.626 29.5298 142.878 29.713 148.855C30.1101 149.425 30.273 149.598 30.6294 149.954C32.7064 151.899 35.8627 151.98 38.0111 150.209C39.467 148.997 40.0881 146.767 44.3949 141.249Z" fill="white"/>
<path d="M52.2246 170.755C51.5118 159.098 50.3308 149.659 47.2559 137.991C46.3294 138.928 45.4029 139.966 44.3949 141.249C40.0881 146.768 39.467 148.987 38.0008 150.219C35.8525 151.991 32.6962 151.909 30.6192 149.965C30.2526 149.608 30.0999 149.435 29.7028 148.865C29.5195 142.888 30.3442 141.636 31.057 136.535C31.0061 131.21 26.1698 125.743 26.1698 118.514C27.4934 113.29 30.2832 109.36 34.0096 105.644C29.489 97.4275 22.932 89.0684 17.5969 82.8779C17.5052 85.0059 6.92652 128.634 3.72949 139.04C25.3451 158.12 25.396 183.951 18.5539 211.971C30.161 200.099 43.4582 184.938 52.2246 170.755Z" fill="url(#paint2_linear)" stroke="black" stroke-miterlimit="10"/>
<path d="M21.7815 94.4849C17.8311 110.867 12.6079 127.412 8.3418 139.05" stroke="#2854A1" stroke-width="2" stroke-miterlimit="10" stroke-linecap="round"/>
<path d="M28.0938 104.829C23.7666 119.348 18.9202 131.23 13.7275 146.614" stroke="#2854A1" stroke-width="2" stroke-miterlimit="10" stroke-linecap="round"/>
<path d="M38.2653 127.534C34.101 137.207 27.1673 152.846 21.7812 160.451" stroke="#2854A1" stroke-width="2" stroke-miterlimit="10" stroke-linecap="round"/>
<path d="M33.796 116.538C29.6317 126.211 23.4311 142.664 17.9229 152.846" stroke="#2854A1" stroke-width="2" stroke-miterlimit="10" stroke-linecap="round"/>
<path d="M42.3792 138.561C38.1029 148.284 29.2754 161.164 24.3271 169.482" stroke="#2854A1" stroke-width="2" stroke-miterlimit="10" stroke-linecap="round"/>
<path d="M46.0239 148.692C37.7768 162.325 32.4722 172.018 24.9785 183.299" stroke="#2854A1" stroke-width="2" stroke-miterlimit="10" stroke-linecap="round"/>
<path d="M46.1257 164.738C39.4466 176.376 33.358 185.977 24.9785 194.367" stroke="#2854A1" stroke-width="2" stroke-miterlimit="10" stroke-linecap="round"/>
<path d="M28.1148 179.155C27.0763 179.155 25.9665 178.371 25.8443 176.62C25.3963 170.338 24.2051 164.188 22.3215 158.344C21.9041 157.051 22.0568 155.422 22.6779 154.384C22.7288 154.292 22.7899 154.2 22.8408 154.109C22.1993 152.429 21.4968 150.769 20.7433 149.16L20.7332 149.13C17.7398 142.43 16.4263 133.745 17.5361 127.993C18.259 124.226 20.4175 121.965 23.3193 121.965C25.04 121.965 27.7177 122.81 30.7213 126.822L30.7417 126.842C31.5664 127.983 32.3707 129.164 33.1446 130.355C33.4398 130.223 33.7351 130.162 33.9998 130.162C34.4987 130.162 35.4558 130.345 36.2296 131.607C39.956 137.716 43.0004 144.334 45.2912 151.268C45.7596 152.663 45.6781 154.536 45.1079 155.707C41.0964 164.066 35.975 171.662 29.9068 178.28C29.2552 179.003 28.573 179.155 28.1148 179.155ZM25.0094 145.342C25.4167 146.177 25.824 147.012 26.2109 147.867C27.9214 144.294 29.3875 140.557 30.5686 136.698C29.5504 134.957 28.4712 133.247 27.341 131.607C26.0378 129.754 24.8873 129.092 24.2458 129.092C23.5535 129.092 23.0749 130.131 22.8509 131.108C21.9753 134.855 22.912 140.974 25.0094 145.342Z" fill="#D8D8D7"/>
<path d="M33.5113 132.462C33.4094 132.88 33.3076 133.297 33.1956 133.705C31.9738 131.678 30.6808 129.734 29.3266 127.86C24.7856 121.782 20.3057 122.739 19.2366 128.319C18.1472 133.959 19.5624 142.278 22.3115 148.417C23.1973 150.301 24.0118 152.256 24.7551 154.261C24.5616 154.597 24.358 154.933 24.1543 155.259C23.7878 155.87 23.7064 156.99 23.9609 157.794C25.8343 163.598 27.0867 169.87 27.5652 176.478C27.6263 177.394 28.0946 177.679 28.6241 177.109C34.4174 170.796 39.5082 163.354 43.5402 154.944C43.9067 154.18 43.9576 152.755 43.6318 151.797C41.3307 144.833 38.317 138.368 34.7331 132.493C34.2545 131.709 33.6945 131.699 33.5113 132.462ZM36.4537 158.853C35.7716 160.045 35.069 161.215 34.3461 162.356C33.9287 160.095 33.4298 157.886 32.8596 155.717C32.4422 155.687 32.0349 155.229 31.7498 154.394C31.2509 152.917 31.2815 150.81 31.8415 149.619C32.4015 148.427 33.328 148.611 33.9083 150.097C34.2342 150.932 34.3563 152.011 34.2952 152.989C35.069 154.893 35.7919 156.848 36.4537 158.853ZM32.432 136.484C30.7826 142.033 28.6241 147.216 26.0583 151.96C25.2641 149.944 24.3885 147.99 23.4518 146.096C21.2322 141.473 20.1733 134.977 21.1508 130.721C22.118 126.496 25.5187 126.017 28.7463 130.609C30.0393 132.503 31.2713 134.458 32.432 136.484Z" fill="url(#paint3_linear)"/>
<path d="M50.9622 146.228C51.3593 148.091 51.2473 147.552 51.4611 148.692C50.7484 145.077 49.8321 141.198 48.651 136.667C48.651 136.667 48.651 136.667 48.651 136.657C50.443 135.038 52.0313 134.02 54.0065 132.931C51.7768 134.061 50.0357 135.13 48.2132 136.657C47.9994 136.84 47.7754 137.034 47.5616 137.217C47.5005 137.268 47.4496 137.319 47.3987 137.37C47.3172 137.441 47.2358 137.523 47.1543 137.584C43.6213 140.801 40.9333 144.416 38.113 148.285C36.5043 150.382 33.8062 150.351 32.2688 149.007C32.2586 148.997 32.2382 148.987 32.228 148.967C32.0041 148.763 31.8004 148.529 31.6273 148.274C31.5662 142.532 32.2179 142.247 32.9917 136.739C33.0222 136.525 32.9917 135.395 32.7168 134.081C31.6884 129.153 28.1554 124.358 28.1045 118.768C29.3161 114.044 32.0346 109.615 35.5473 106.143C35.6491 106.041 35.7509 105.939 35.8629 105.837C37.441 104.32 39.1719 102.997 40.9842 101.917C38.0417 111.875 46.3499 130.66 59.7388 128.756C59.9831 132.951 55.8087 137.767 50.9622 146.228Z" fill="url(#paint4_linear)"/>
<path d="M29.3567 117.74C30.3647 122.759 32.8999 127.27 34.59 132.096C34.1726 133.277 33.7755 134.438 33.7348 135.68C33.6024 140.353 32.6555 144.151 32.2483 148.997C32.2381 148.987 32.2177 148.977 32.2075 148.957C31.9835 148.753 31.7799 148.519 31.6068 148.264C31.5457 142.522 32.1974 142.237 32.9712 136.729C33.0017 136.515 32.9712 135.385 32.6963 134.071C31.6679 129.143 28.1349 124.348 28.084 118.758C29.2956 114.034 32.0141 109.605 35.5267 106.133C35.6286 106.031 35.7304 105.929 35.8424 105.827C32.849 109.31 30.5378 113.352 29.3567 117.74Z" fill="#089ED6"/>
<path d="M119.852 205.139C107.786 217.876 101.168 233.433 85.3767 240.703C83.5338 241.548 81.5586 242.291 79.4408 242.892C79.2473 242.953 78.2597 243.218 77.7507 243.34C74.2482 244.063 71.5297 242.322 69.8904 239.736C69.4934 239.115 69.1574 238.433 68.8926 237.74C66.6731 231.937 69.2999 223.557 71.2955 219.912C71.5602 219.413 71.8555 218.925 72.558 218.029C78.2394 210.403 88.7162 205.057 96.495 200.842C97.3503 201.188 98.2157 201.514 99.071 201.819C99.1117 201.83 99.1524 201.85 99.1931 201.86C85.7432 208.091 70.3588 216.532 68.9436 230.552C68.9334 230.623 68.9334 230.684 68.9232 230.756C68.8621 231.438 68.8316 232.14 68.8417 232.853C69.0046 216.929 86.6901 208.295 100.435 202.278C100.649 202.349 100.873 202.42 101.087 202.491C107.257 204.426 113.58 205.302 119.852 205.139Z" fill="#2496ED"/>
<path d="M119.851 205.139C107.786 217.876 101.168 233.434 85.3762 240.703C77.9233 243.575 73.087 242.119 71.967 240.632C67.2733 234.431 70.8165 224.301 78.2694 217.347C85.3049 210.79 93.2161 205.566 101.066 202.481C107.257 204.426 113.579 205.302 119.851 205.139Z" fill="url(#paint5_linear)"/>
<path d="M68.9224 230.756C68.8613 231.438 68.8409 232.13 68.8409 232.853C68.8409 235.144 69.2278 237.465 69.91 239.736C69.5129 239.115 69.1769 238.433 68.9122 237.74C66.6926 231.937 69.3194 223.557 71.315 219.912C71.5798 219.413 71.875 218.925 72.5776 218.029C78.2589 210.403 88.7358 205.057 96.5146 200.842C97.3699 201.188 98.2353 201.514 99.0906 201.819C84.1235 209.15 70.2765 216.094 68.9529 230.552C68.9325 230.613 68.9224 230.684 68.9224 230.756Z" fill="#75C3FF"/>
<path d="M68.7909 145.403C66.9175 134.743 68.6993 126.588 68.6993 125.651C62.2543 138.429 61.9591 157.54 69.3713 173.464C69.9822 172.181 70.6644 170.908 71.4076 169.666C72.6498 167.579 74.0548 165.553 75.5923 163.608C71.7843 157.316 69.7786 151.013 68.7909 145.403ZM156.251 187.239C148.635 190.711 140.724 191.18 132.324 191.404C130.268 191.455 127.264 191.597 123.588 191.414C116.054 191.037 105.638 189.255 94.4893 182.383C92.117 183.818 89.6734 185.366 87.1789 187.066C86.0895 187.81 84.9797 188.573 83.8699 189.378C83.3201 189.775 82.7601 190.182 82.2001 190.589C86.1913 194.02 90.824 196.892 95.8639 199.06C96.5969 199.376 97.33 199.671 98.0835 199.956C98.9183 200.272 99.7532 200.577 100.608 200.852C100.751 200.903 100.904 200.944 101.046 200.995C101.494 201.137 101.942 201.28 102.4 201.412C108.581 203.214 115.199 203.998 121.949 203.55C135.216 202.665 148.971 196.983 160.761 184.786C159.265 185.743 157.768 186.547 156.251 187.239Z" fill="url(#paint6_radial)"/>
<path d="M254.015 127.514C250.909 121.069 246.379 116.223 241.155 113.158C241.42 113.311 241.756 113.504 242.184 113.779C248.364 110.653 255.257 115.052 256.082 118.167C256.479 119.43 256.387 120.479 256 121.66C255.338 123.289 254.575 124.623 253.261 126.038C253.526 126.516 253.781 127.005 254.015 127.514Z" fill="url(#paint7_linear)"/>
<path d="M252.762 129.398C252.029 132.371 250.094 135.069 247.325 136.657C245.146 131.76 241.053 125.885 237.367 125.997C237.143 125.997 236.899 126.018 236.645 126.058C233.05 122.067 235.178 114.064 240.269 114.858C245.818 118.106 250.38 123.778 252.762 129.398Z" fill="url(#paint8_linear)"/>
<path d="M234.008 144.1C232.603 141.178 231.778 137.421 231.737 134.845C231.717 132.788 232.236 131.037 233.794 129.673C234.507 129.052 235.372 128.583 236.268 128.329C236.268 128.329 236.268 128.329 236.278 128.329C237.48 127.982 237.999 128.156 238.63 128.532C241.247 130.08 244.79 135.466 246.317 140.791C246.928 143.53 240.229 147.399 237.276 148.264C233.845 148.936 229.711 148.112 226.361 146.992C229.273 146.992 232.277 146.523 235.291 145.525C234.802 145.098 234.405 144.619 234.038 144.1C234.018 144.09 234.008 144.09 234.008 144.1Z" fill="url(#paint9_linear)"/>
<path d="M230.373 137.665C230.495 138.093 230.638 138.531 230.791 138.948C230.689 138.683 230.607 138.449 230.557 138.256C225.578 141.504 217.096 138.571 217.473 133.409C217.84 128.441 226.158 126.639 230.781 130.274C230.811 130.213 230.842 130.162 230.872 130.101C230.628 130.528 230.414 130.996 230.251 131.506C230.088 132.004 229.966 132.544 229.895 133.114C229.742 134.468 229.925 136.067 230.373 137.665Z" fill="url(#paint10_radial)"/>
<path d="M223.907 148.407C222.217 147.714 220.629 146.91 219.254 146.065C213.267 144.487 208.065 140.974 204.562 136.362L204.542 136.372C205.784 138.032 207.26 139.549 208.91 140.883C211.363 144.762 215.375 148.896 219.661 150.911C221.117 151.594 222.604 152.042 224.07 152.143C225.312 151.655 226.432 151.135 227.41 150.586C227.776 150.382 228.133 150.168 228.479 149.954C228.855 150.056 229.334 150.168 229.843 150.28C227.868 149.853 225.831 149.191 223.907 148.407ZM224.365 154.098C223.693 154.037 222.685 153.986 221.199 153.518C219.264 152.907 217.391 151.93 215.63 150.698C213.471 149.191 211.465 147.277 209.734 145.169C208.849 144.09 208.034 142.97 207.301 141.809C206.181 140.037 205.244 138.195 204.552 136.372L204.572 136.362C204.46 136.209 204.348 136.067 204.236 135.914C201.273 131.821 199.624 126.903 199.919 121.731C198.097 123.177 196.508 124.918 195.134 126.832C195.134 126.832 195.134 126.832 195.124 126.842C192.986 129.805 191.326 133.195 190.033 136.596C190.909 133.552 192.059 130.528 193.556 127.738C195.073 124.938 196.946 122.372 199.288 120.255C199.573 120 199.858 119.746 200.153 119.511C200.276 118.778 200.428 118.035 200.632 117.302C197.557 116.884 194.951 115.337 192.446 113.596C192.456 113.565 192.466 113.535 192.477 113.504C192.426 113.667 192.365 113.83 192.303 113.983C192.029 114.685 191.713 115.367 191.336 116.019C187.08 123.421 176.39 127.494 167.521 129.54C166.656 129.744 165.811 129.917 164.986 130.08C165.678 129.907 166.391 129.723 167.114 129.53C177.224 126.761 189.972 121.079 191.407 111.58C191.469 111.162 191.509 110.735 191.53 110.297C191.53 110.185 191.54 110.073 191.54 109.961C182.784 118.911 167.42 123.268 157.268 120.906C139.42 116.864 125.095 103.547 116.277 87.6937C114.119 83.8145 112.286 79.7826 110.82 75.6896C110.077 73.6329 109.435 71.566 108.875 69.4992C106.717 78.3368 108.784 89.7504 115.707 99.7386C108.763 90.626 105.108 78.4692 107.776 67.6766C107.847 67.3814 107.918 67.0963 108 66.801C101.748 70.3748 98.2456 73.6227 89.2858 77.787C91.8617 78.1841 94.2137 78.8968 96.3518 79.8539C99.4369 81.2488 102.043 83.1731 104.1 85.4741C102.155 84.2625 99.5794 82.5724 96.0769 81.2691C93.0937 80.1593 89.4487 79.3244 84.9484 79.3142C73.8097 79.3652 69.2382 81.3913 59.586 85.1687C53.5992 90.514 47.0117 94.1896 43.4583 101.032C41.6969 104.412 42.094 110.042 44.1507 115.204C46.4721 121.028 50.9113 126.241 56.725 126.873C57.6311 126.974 58.5577 126.954 59.5249 126.822C60.6042 126.659 61.7649 126.313 62.1518 126.15C62.559 125.997 63.8827 125.366 65.7255 124.521C68.0775 123.441 71.2949 122.006 74.5632 120.764C78.534 119.257 82.5863 118.025 85.2946 118.025C86.0888 118.707 89.3876 120.336 93.4094 119.929C98.2558 119.44 102.339 116.375 105.515 112.659C101.046 118.839 94.8348 122.729 87.4226 120.937C86.2109 120.631 85.2539 120.244 84.7142 119.969C82.1485 120.071 77.5769 121.629 73.7894 123.126C71.7938 123.91 70.012 124.684 68.8615 125.223C68.892 125.213 68.9124 125.203 68.9226 125.203C68.9327 125.203 68.9327 125.193 68.9327 125.193C69.5844 124.908 70.236 124.623 70.8876 124.348C70.8774 124.378 70.8774 124.398 70.8774 124.429C69.452 132.371 69.5538 139.997 70.9996 147.093C72.1094 152.52 74.0134 157.631 76.63 162.335C76.7929 162.142 76.9457 161.959 77.1086 161.765C82.9121 154.994 90.2836 149.364 97.7569 145.76C105.811 141.809 112.968 140.384 120.218 140.404C120.319 140.404 121.042 140.424 121.317 140.455C126.072 140.893 129.31 143.051 131.193 146.136C132.659 148.509 132.782 150.596 132.354 153.335C130.318 166.072 115.208 169.982 95.2217 181.945C97.0136 183.096 98.9278 184.195 100.923 185.193C108.57 189.052 115.951 190.813 123.577 191.19C126.439 191.333 129.33 191.282 132.283 191.078C138.921 190.62 145.926 188.869 151.567 186.68C153.776 185.814 155.782 184.888 157.472 183.941C177.326 172.639 182.926 145.525 188.791 123.991V124.001C188.791 124.012 188.791 124.032 188.781 124.052C188.781 124.063 188.781 124.073 188.781 124.073C188.007 130.681 186.581 138.541 184.402 146.391C183.048 151.298 181.399 156.196 179.434 160.798L179.454 160.808C179.699 160.238 179.933 159.668 180.167 159.097C186.235 162.671 192.863 165.654 199.929 165.878C193.026 161.735 189.534 152.846 188.994 144.752C191.234 156.206 196.539 162.233 201.273 164.585C202.74 165.329 204.155 165.654 204.257 165.654C204.358 165.675 205.468 165.787 206.812 165.716C213.817 165.369 221.25 161.073 224.447 154.078C224.426 154.078 224.396 154.088 224.365 154.098Z" fill="#223454"/>
<path d="M191.54 109.951C191.54 110.063 191.53 110.175 191.53 110.287C191.51 110.725 191.469 111.153 191.408 111.57C186.399 123.309 172.796 127.402 158.847 128.268C161.505 129.042 164.294 129.449 167.104 129.52C167.237 129.52 167.379 129.53 167.512 129.53C167.675 129.53 167.838 129.53 168 129.53C172.633 129.53 177.317 128.614 181.603 126.863C179.312 149.863 175.097 178.087 151.588 186.649C145.947 188.849 138.942 190.6 132.304 191.048C129.351 191.251 126.459 191.302 123.598 191.16C115.972 190.783 108.591 189.022 100.944 185.163C98.9487 184.155 97.0346 183.065 95.2426 181.915C87.1788 178.076 82.6785 171.021 77.1295 161.745C75.8466 155.728 75.195 149.945 75.195 144.681C75.195 136.678 77.3128 128.726 80.8356 121.416C77.3942 122.016 74.075 123.045 70.8984 124.409C70.8984 124.379 70.9085 124.358 70.9085 124.328C70.2569 124.602 69.6053 124.888 68.9537 125.173C68.9537 125.173 68.9435 125.173 68.9435 125.183C68.9333 125.193 68.9129 125.193 68.8824 125.203C70.0431 124.664 71.8147 123.9 73.8103 123.106C77.5979 121.609 82.1694 120.051 84.7352 119.949C85.2748 120.224 86.2319 120.611 87.4435 120.917C94.8557 122.709 101.066 118.809 105.536 112.639C102.36 116.355 98.2665 119.42 93.4303 119.909C89.4085 120.316 86.1097 118.687 85.3155 118.005C82.6072 118.005 78.5447 119.237 74.5841 120.744C71.3158 121.986 68.0984 123.421 65.7464 124.501C63.9036 125.346 62.58 125.977 62.1727 126.13C61.7858 126.293 60.6251 126.639 59.5458 126.802C58.5786 126.944 57.6419 126.954 56.7459 126.853C51.9198 125.162 48.6719 118.443 48.6719 117.811C48.6719 106.795 61.6534 99.8306 77.6997 99.8306C77.8015 99.8306 77.8931 99.8306 77.9949 99.8408C75.1237 98.395 72.2016 97.3463 68.6788 97.3463C67.8031 97.3463 66.9275 97.4277 66.0417 97.6008C78.3004 91.4206 95.1001 95.1369 103.123 89.934C104.752 94.5361 106.391 97.2852 107.959 98.955C105.282 92.9987 105.546 84.9858 105.546 80.7808C112.327 101.623 121.735 117.282 137.425 122.678C121.745 111.713 117.561 98.8328 116.298 87.6839C125.115 103.537 139.431 116.844 157.289 120.896C167.41 123.259 182.784 118.911 191.54 109.951Z" fill="#1B2942"/>
<path d="M193.556 127.738C192.049 130.528 190.909 133.552 190.033 136.596C190.746 133.399 191.591 130.416 193.556 127.738Z" fill="#1B2942"/>
<path d="M204.552 136.372C205.245 138.195 206.181 140.037 207.301 141.809C208.319 150.413 217.463 155.279 217.463 155.279C217.463 155.279 208.93 162.508 204.552 162.508C194.075 162.508 190.216 150.433 189.015 144.752C187.997 152.897 192.456 163.435 192.456 163.435C184.413 162.753 180.188 159.097 180.188 159.097C181.837 155.351 183.252 150.881 184.423 146.391C187.203 135.792 188.659 125.152 188.801 124.073C188.801 124.062 188.801 124.052 188.801 124.052C188.801 124.032 188.811 124.012 188.811 124.001C188.811 123.991 188.811 123.991 188.811 123.991C188.811 123.991 188.954 141.392 190.033 136.616C191.326 133.216 192.986 129.825 195.124 126.862C191.947 131.933 190.675 139.915 192.976 147.918C192.181 143.662 193.77 139.213 195.989 137.594C197.649 137.869 200.704 137.136 204.237 135.944C204.349 136.097 204.461 136.24 204.573 136.392C208.075 141.005 213.278 144.517 219.265 146.095C220.639 146.941 222.228 147.735 223.918 148.437C222.564 149.567 221.118 150.484 219.672 150.942C215.385 148.926 211.374 144.792 208.92 140.913C207.261 139.549 205.794 138.032 204.552 136.372Z" fill="#1B2942"/>
<path d="M191.54 109.951C191.54 110.063 191.53 110.175 191.53 110.287C188.394 118.188 168.56 131.841 150.905 126.333C131.408 120.255 113.722 93.3955 110.82 75.6897C118.294 96.4704 135.042 115.866 157.269 120.896C167.41 123.258 182.784 118.911 191.54 109.951Z" fill="#1B2942"/>
<path d="M200.632 117.302C200.428 118.045 200.275 118.778 200.153 119.511C199.858 119.756 199.563 120 199.288 120.255C195.969 119.42 193.382 117.923 191.336 116.009C191.713 115.357 192.038 114.675 192.303 113.973C192.364 113.81 192.425 113.657 192.476 113.494C192.466 113.525 192.456 113.555 192.446 113.586C194.95 115.337 197.557 116.885 200.632 117.302Z" fill="#355182"/>
<path d="M73.8097 123.126C71.8141 129.815 70.9589 136.759 70.9589 143.784C70.9589 144.884 70.9792 145.983 71.02 147.073C69.564 139.956 69.4724 132.299 70.908 124.337C70.2564 124.612 69.6047 124.897 68.9531 125.182C68.9531 125.182 68.9429 125.182 68.9429 125.193C68.9327 125.203 68.9124 125.203 68.8818 125.213C70.0324 124.684 71.8141 123.91 73.8097 123.126Z" fill="#355182"/>
<path d="M96.1383 81.3305C98.48 83.0206 97.0953 86.7166 94.2139 86.4926C92.7274 86.3806 91.2307 86.3195 89.734 86.3195C68.6173 86.3195 47.0018 98.9752 44.1305 115.215C42.0738 110.063 41.6666 104.422 43.4382 101.042C46.9916 94.2001 53.5689 90.5245 59.5659 85.1791C69.2181 81.4018 73.7896 79.3654 84.9283 79.3247C89.4286 79.3451 93.0736 80.1698 96.0568 81.2796C96.0874 81.2898 96.1179 81.3101 96.1383 81.3305Z" fill="#355182"/>
<path d="M105.454 74.4884C105.77 72.6353 106.289 70.7925 106.961 69.0311C107.246 68.298 107.551 67.5751 107.887 66.8726C101.707 70.4259 98.1843 73.6535 89.2754 77.7974C91.8513 78.1945 94.2033 78.9072 96.3414 79.8642C99.2126 78.0621 102.237 76.5349 105.342 75.2113C105.383 74.9771 105.413 74.7327 105.454 74.4884Z" fill="#355182"/>
<path d="M159.05 128.115C145.845 120.438 127.599 125.417 118.303 139.243C109.008 153.06 112.49 170.267 126.092 177.679C139.695 185.071 157.93 180.092 166.839 166.55C175.738 152.999 172.256 135.781 159.05 128.115ZM126.805 176.589C113.803 169.493 110.474 153.039 119.362 139.834C128.251 126.628 145.692 121.863 158.327 129.194C170.953 136.535 174.282 152.978 165.77 165.95C157.248 178.921 139.807 183.686 126.805 176.589ZM118.385 149.292C118.293 149.628 117.947 149.863 117.601 149.812C117.53 149.802 117.458 149.771 117.397 149.74L117.387 149.751C117.163 149.628 117.061 149.364 117.133 149.109C117.906 146.187 119.189 143.367 120.94 140.77C121.032 140.628 121.185 140.516 121.358 140.475C121.521 140.424 121.694 140.445 121.836 140.526C122.132 140.689 122.203 141.066 121.999 141.371C120.34 143.825 119.118 146.513 118.385 149.292ZM127.07 134.407C127.07 134.203 127.172 134 127.345 133.867C129.839 131.912 132.619 130.375 135.551 129.306C135.897 129.184 136.243 129.336 136.335 129.662C136.427 129.988 136.223 130.344 135.887 130.467C133.097 131.475 130.45 132.941 128.078 134.804C127.854 134.977 127.559 135.008 127.345 134.885C127.182 134.794 127.07 134.611 127.07 134.407ZM119.943 166.113C119.719 166.316 119.403 166.367 119.159 166.235C119.067 166.184 118.986 166.113 118.935 166.021C117.601 163.516 116.756 160.757 116.45 157.876C116.42 157.54 116.674 157.214 117.031 157.142C117.387 157.071 117.703 157.285 117.743 157.621C118.029 160.36 118.833 162.987 120.106 165.369C120.228 165.614 120.167 165.919 119.943 166.113ZM159.814 133.389C160.048 133.134 160.435 133.083 160.689 133.287C162.848 135.14 164.63 137.38 165.943 139.905C166.065 140.149 166.004 140.455 165.79 140.658C165.577 140.862 165.251 140.903 165.017 140.76L165.006 140.77C164.915 140.72 164.844 140.638 164.793 140.546C163.551 138.144 161.86 136.016 159.804 134.244C159.569 134.02 159.58 133.643 159.814 133.389ZM143.91 128.094C144.012 127.819 144.277 127.626 144.562 127.626C147.586 127.565 150.538 128.033 153.287 129.011C153.491 129.082 153.634 129.265 153.654 129.479C153.674 129.693 153.573 129.917 153.389 130.07C153.206 130.212 152.962 130.263 152.758 130.182C150.141 129.255 147.341 128.817 144.46 128.868C144.348 128.868 144.236 128.848 144.144 128.787C143.91 128.654 143.808 128.369 143.91 128.094ZM167.145 148.305C167.124 148.091 167.216 147.867 167.399 147.724C167.582 147.582 167.827 147.531 168.03 147.612C168.234 147.684 168.377 147.867 168.407 148.081C168.733 150.952 168.529 153.905 167.817 156.786C167.735 157.122 167.389 157.346 167.053 157.295C166.982 157.285 166.91 157.254 166.839 157.224C166.615 157.102 166.513 156.847 166.574 156.593C167.267 153.844 167.45 151.044 167.145 148.305ZM164.202 165.003L164.172 165.054C162.492 167.609 160.394 169.89 157.951 171.814C157.737 171.987 157.442 172.008 157.218 171.885L157.207 171.896C157.146 171.865 157.085 171.814 157.044 171.763C156.943 171.641 156.902 171.478 156.922 171.315C156.943 171.152 157.034 171 157.177 170.898C159.508 169.075 161.514 166.896 163.113 164.463L163.143 164.412C163.337 164.117 163.734 164.005 164.029 164.178C164.324 164.351 164.396 164.707 164.202 165.003ZM150.284 175.826C150.223 176.05 150.05 176.233 149.826 176.304C146.904 177.363 143.839 177.933 140.795 178.005C140.683 178.005 140.571 177.984 140.479 177.933L140.469 177.944C140.224 177.811 140.123 177.526 140.214 177.261C140.306 176.986 140.581 176.793 140.866 176.793C143.768 176.732 146.68 176.182 149.459 175.174C149.683 175.083 149.928 175.113 150.101 175.256C150.274 175.378 150.345 175.602 150.284 175.826ZM132.771 176.325C132.629 176.65 132.242 176.824 131.916 176.712C130.511 176.243 129.167 175.653 127.884 174.96C126.612 174.268 125.42 173.464 124.311 172.557C124.127 172.425 124.056 172.201 124.107 171.977C124.158 171.753 124.341 171.56 124.565 171.478C124.799 171.397 125.044 171.438 125.207 171.59C127.314 173.321 129.758 174.655 132.436 175.551C132.771 175.653 132.914 175.999 132.771 176.325ZM155.324 133.704C145.061 127.789 130.939 131.638 123.771 142.318C116.603 152.999 119.301 166.316 129.798 172.079C140.296 177.821 154.407 173.973 161.351 163.465C168.285 152.948 165.587 139.63 155.324 133.704ZM130.521 171C120.625 165.563 118.079 152.988 124.83 142.919C131.58 132.849 144.918 129.214 154.601 134.794C164.273 140.384 166.819 152.948 160.292 162.875C153.756 172.802 140.428 176.437 130.521 171ZM156.464 145.647C154.815 143.947 152.279 143.306 149.805 143.988L141.884 146.136C141.66 146.197 141.426 146.269 141.202 146.35V146.36C141.008 146.401 140.805 146.442 140.611 146.493L132.67 148.671C129.839 149.445 127.599 151.756 127.009 154.516C126.418 157.275 127.599 159.932 129.982 161.256C131.55 162.131 133.474 162.335 135.327 161.816L143.299 159.647C143.523 159.586 143.757 159.515 143.981 159.433L143.992 159.423C144.185 159.382 144.379 159.342 144.562 159.291L152.473 157.142C154.947 156.471 156.983 154.597 157.808 152.235C158.612 149.852 158.103 147.348 156.464 145.647ZM153.593 149.893C153.858 151.196 152.972 152.561 151.607 152.958L148.909 153.691C149.235 151.97 148.879 150.26 147.932 148.895L150.64 148.162C152.015 147.826 153.328 148.59 153.593 149.893ZM131.489 155.931C131.224 154.628 132.12 153.253 133.505 152.846L136.233 152.092C136.223 152.143 136.223 152.184 136.213 152.235C136.213 152.255 136.203 152.286 136.203 152.306C136.193 152.367 136.182 152.418 136.172 152.479C136.162 152.53 136.162 152.581 136.152 152.632C136.142 152.703 136.142 152.764 136.131 152.836C136.131 152.887 136.121 152.927 136.121 152.978C136.121 153.019 136.121 153.06 136.111 153.111C136.111 153.192 136.111 153.273 136.111 153.345C136.111 153.385 136.111 153.416 136.111 153.457C136.111 153.508 136.111 153.569 136.111 153.62C136.111 153.66 136.111 153.701 136.121 153.732C136.121 153.813 136.131 153.884 136.142 153.966C136.142 154.007 136.152 154.047 136.152 154.088C136.162 154.139 136.162 154.18 136.172 154.231C136.182 154.271 136.182 154.322 136.193 154.363C136.203 154.414 136.213 154.455 136.213 154.505C136.223 154.587 136.243 154.658 136.264 154.729C136.274 154.76 136.274 154.78 136.284 154.811C136.457 155.554 136.763 156.257 137.2 156.878L134.472 157.631C133.077 157.988 131.753 157.234 131.489 155.931ZM142.077 150.586C142.973 150.565 143.788 150.993 144.205 151.726C144.643 152.5 144.582 153.477 144.063 154.271C144.053 154.281 144.053 154.292 144.043 154.302C143.788 154.679 143.442 154.994 143.035 155.208C141.864 155.239 140.886 154.495 140.672 153.406C140.448 152.327 141.029 151.166 142.077 150.586ZM135.083 160.614C131.937 161.439 128.913 159.739 128.322 156.786C127.732 153.833 129.768 150.738 132.904 149.832L138.127 148.407C137.577 148.997 137.119 149.669 136.783 150.392C136.773 150.412 136.763 150.433 136.752 150.453C136.722 150.514 136.691 150.575 136.671 150.647C136.661 150.677 136.651 150.698 136.641 150.728L133.26 151.655C133.199 151.675 133.148 151.685 133.087 151.706C133.067 151.716 133.036 151.716 133.016 151.726C132.985 151.736 132.955 151.746 132.924 151.756C132.894 151.767 132.863 151.777 132.843 151.787C132.822 151.797 132.812 151.797 132.792 151.807C132.71 151.838 132.639 151.868 132.558 151.909C130.847 152.703 129.809 154.536 130.155 156.287C130.542 158.212 132.476 159.332 134.513 158.873C134.574 158.863 134.635 158.843 134.706 158.822L138.432 157.804C138.463 157.794 138.483 157.784 138.514 157.774L142.658 156.644C142.912 156.572 143.167 156.481 143.411 156.359C144.694 155.737 145.59 154.526 145.763 153.192C145.855 152.51 145.743 151.848 145.468 151.268C145.458 151.258 145.458 151.247 145.448 151.237C145.417 151.176 145.387 151.125 145.356 151.064C145.356 151.054 145.346 151.054 145.346 151.044C145.336 151.023 145.325 151.003 145.315 150.993C145.295 150.952 145.264 150.911 145.244 150.871C145.224 150.83 145.193 150.799 145.173 150.759C145.173 150.748 145.163 150.748 145.163 150.738C145.152 150.718 145.132 150.698 145.122 150.677C145.091 150.636 145.051 150.586 145.01 150.545C145 150.535 144.989 150.514 144.979 150.504C144.979 150.504 144.979 150.504 144.979 150.494C144.949 150.453 144.918 150.423 144.877 150.382C144.867 150.372 144.857 150.362 144.847 150.351L144.837 150.341C144.786 150.29 144.735 150.239 144.674 150.188C144.664 150.178 144.653 150.178 144.653 150.168C144.552 150.076 144.44 149.995 144.317 149.914C144.307 149.903 144.297 149.893 144.277 149.893L145.193 149.639L146.568 149.262C147.545 150.412 147.932 151.94 147.667 153.477C147.667 153.487 147.667 153.487 147.667 153.497C147.657 153.548 147.647 153.589 147.637 153.64C147.626 153.671 147.626 153.701 147.616 153.732C147.616 153.752 147.606 153.772 147.606 153.793C147.596 153.844 147.586 153.884 147.576 153.935C147.545 154.047 147.514 154.159 147.474 154.271C146.893 156.063 145.458 157.54 143.645 158.232L143.615 158.242C143.432 158.313 143.238 158.374 143.045 158.425L135.083 160.614ZM152.218 155.951L147.036 157.356C147.657 156.684 148.166 155.9 148.502 155.055L151.842 154.149C153.929 153.579 155.293 151.522 154.896 149.537C154.499 147.551 152.483 146.411 150.386 146.971L142.485 149.119C142.23 149.191 141.976 149.282 141.731 149.404C141.161 149.679 140.662 150.087 140.265 150.555C140.255 150.575 140.245 150.586 140.224 150.606C140.184 150.657 140.143 150.708 140.112 150.759C140.092 150.789 140.072 150.82 140.051 150.85C140.021 150.891 140 150.922 139.97 150.962C139.939 151.003 139.919 151.054 139.888 151.095C139.868 151.125 139.858 151.146 139.838 151.176C139.807 151.227 139.776 151.288 139.746 151.349C139.736 151.37 139.726 151.38 139.726 151.4C139.695 151.471 139.664 151.532 139.634 151.604C139.634 151.614 139.624 151.614 139.624 151.624C139.481 151.97 139.39 152.327 139.349 152.703C139.216 154.007 139.787 155.218 140.866 155.89L138.575 156.521C137.424 155.167 137.089 153.294 137.679 151.502C137.934 150.718 138.351 149.995 138.901 149.374L138.911 149.364C138.942 149.333 138.972 149.292 139.003 149.262C139.013 149.252 139.033 149.231 139.043 149.221C139.064 149.201 139.084 149.17 139.104 149.15C139.125 149.13 139.155 149.099 139.176 149.079C139.186 149.068 139.196 149.058 139.216 149.038C139.247 149.007 139.288 148.967 139.318 148.936C139.318 148.936 139.318 148.936 139.328 148.936C139.96 148.335 140.713 147.847 141.558 147.531C141.579 147.521 141.599 147.511 141.619 147.5C141.792 147.439 141.955 147.378 142.128 147.338L150.04 145.189C153.186 144.334 156.21 146.065 156.81 149.048C157.411 152.001 155.354 155.096 152.218 155.951Z" fill="white"/>
<path d="M256.754 116.039C257.792 117.597 258.199 119.695 257.568 121.894C256.978 123.727 255.807 125.814 254.086 127.647C254.066 127.596 254.045 127.555 254.015 127.504C253.781 127.005 253.526 126.506 253.261 126.028C254.565 124.613 255.338 123.279 256 121.65C256.387 120.469 256.479 119.42 256.082 118.157C255.257 115.042 248.354 110.643 242.184 113.769C241.756 113.494 241.43 113.301 241.155 113.148C241.145 113.148 241.145 113.138 241.135 113.138C241.094 113.107 241.043 113.087 241.003 113.066C240.962 113.046 240.921 113.016 240.881 112.995C240.463 112.975 240.056 112.995 239.669 113.036C242.357 111.427 245.035 110.826 247.621 111.071C247.845 111.091 248.059 111.122 248.283 111.152C248.283 111.152 248.283 111.152 248.283 111.142C250.675 111.498 252.976 112.588 255.114 114.278C255.909 114.94 256.184 115.215 256.754 116.039Z" fill="#2854A1"/>
<path d="M254.014 127.514C254.279 128.064 254.544 128.634 254.788 129.214C253.851 133.491 251.357 136.657 248.058 138.469C247.844 137.889 247.6 137.288 247.325 136.657C250.084 135.059 252.029 132.36 252.762 129.398C250.379 123.777 245.828 118.106 240.269 114.868C235.178 114.074 233.05 122.067 236.645 126.068C236.064 126.16 235.433 126.333 234.792 126.618C231.523 121.741 233.539 113.748 239.679 113.046C239.658 113.056 239.638 113.066 239.618 113.087C239.923 113.046 240.514 112.995 240.89 113.005C240.931 113.026 240.972 113.046 241.012 113.076C241.053 113.097 241.104 113.127 241.145 113.148C241.155 113.148 241.155 113.158 241.165 113.158C246.378 116.223 250.909 121.069 254.014 127.514Z" fill="#2854A1"/>
<path d="M248.282 111.152C248.069 111.122 247.845 111.091 247.631 111.071C247.845 111.091 248.058 111.122 248.282 111.152Z" fill="#2854A1"/>
<path d="M248.058 138.47C248.048 138.47 248.048 138.47 248.058 138.47C247.844 137.889 247.57 137.217 247.325 136.657C247.6 137.289 247.844 137.889 248.058 138.47Z" fill="#2854A1"/>
<path d="M248.283 111.152C248.069 111.121 247.845 111.091 247.631 111.071C247.122 111.02 246.603 110.999 246.084 111.02C243.844 108.036 240.85 105.583 237.327 103.862L236.248 103.333C236.319 102.61 240.921 56.7516 240.983 56.0694C240.331 55.1225 239.954 54.5727 239.71 54.2367C239.832 53.0048 239.924 52.0884 239.975 51.5793C240.514 52.3633 241.023 53.1066 242.754 55.6011L238.071 102.294C242.296 104.361 245.819 107.446 248.283 111.152Z" fill="url(#paint11_linear)"/>
<path d="M240.89 112.995C240.513 112.985 239.923 113.036 239.617 113.076C239.638 113.066 239.658 113.056 239.678 113.036C240.065 112.995 240.472 112.974 240.89 112.995Z" fill="#2854A1"/>
<path d="M239.933 51.5083L239.974 51.5694C239.923 52.0785 239.831 52.9847 239.709 54.2268C238.946 53.1272 239.587 54.0435 237.123 50.48C237.133 50.3273 237.154 50.1847 237.164 50.0422L237.184 49.8284C237.276 48.912 237.347 48.2298 237.388 47.8328L239.506 50.9076L239.567 50.9891L239.618 51.0705L239.668 51.152L239.699 51.1927L239.75 51.264L239.801 51.3352L239.852 51.4065L239.933 51.5083Z" fill="url(#paint12_linear)"/>
<path d="M239.934 51.5093L239.862 51.4067C239.883 51.4375 239.903 51.4786 239.934 51.5093Z" fill="#2854A1"/>
<path d="M239.853 51.4079L239.801 51.3352C239.822 51.356 239.842 51.3872 239.853 51.4079Z" fill="#2854A1"/>
<path d="M239.761 51.2656L239.709 51.1929C239.719 51.2136 239.74 51.2344 239.761 51.2656Z" fill="#2854A1"/>
<path d="M239.679 51.1424L239.628 51.0603C239.638 51.0911 239.659 51.1219 239.679 51.1424Z" fill="#2854A1"/>
<path d="M239.567 50.9898L239.506 50.9077C239.526 50.9282 239.547 50.959 239.567 50.9898Z" fill="#2854A1"/>
<path d="M237.123 50.48C239.577 54.0435 238.946 53.117 239.709 54.2268C238.701 64.2659 235.565 95.5031 235.097 100.268C235.036 100.889 234.486 101.337 233.875 101.276L233.163 101.205C232.552 101.144 232.104 100.594 232.165 99.9728C232.674 94.8718 236.075 60.9467 237.123 50.48Z" fill="url(#paint13_linear)"/>
<path d="M237.185 49.8284L237.164 50.0432C237.174 49.9716 237.185 49.9 237.185 49.8284Z" fill="#2854A1"/>
<path d="M236.644 126.068C236.644 126.068 236.654 126.068 236.644 126.068C236.013 126.18 235.422 126.353 234.791 126.618C235.432 126.333 236.074 126.15 236.644 126.068Z" fill="#2854A1"/>
<path d="M234.008 144.1C234.018 144.121 234.028 144.142 234.039 144.173C234.018 144.152 233.997 144.131 233.977 144.11C233.987 144.1 233.997 144.1 234.008 144.1Z" fill="#2854A1"/>
<path d="M202.831 116.06C196.672 133.165 215.029 149.751 233.977 144.1C233.997 144.12 234.018 144.141 234.038 144.161C234.028 144.141 234.018 144.12 234.008 144.09C234.008 144.09 234.018 144.09 234.028 144.08C234.394 144.599 234.792 145.067 235.28 145.505C232.266 146.503 229.273 146.971 226.351 146.971C226.3 146.951 226.249 146.941 226.208 146.92C223.724 146.9 221.362 146.564 219.163 145.994C219.193 146.014 219.234 146.035 219.265 146.055C213.278 144.477 208.075 140.964 204.573 136.352C201.396 132.167 199.614 127.087 199.92 121.721C199.94 121.711 199.95 121.69 199.97 121.68C200.001 121.069 200.072 120.245 200.194 119.471C200.184 119.481 200.174 119.491 200.164 119.501C200.286 118.768 200.439 118.025 200.642 117.292H200.653C200.775 116.803 200.938 116.253 201.131 115.724C201.162 115.642 201.182 115.571 201.213 115.49C203.829 108.169 210.244 102.559 218.226 100.39L218.867 93.9963C218.929 93.3855 219.254 92.8356 219.743 92.4793L226.667 87.5616C227.695 86.8285 227.868 85.3623 227.033 84.4053L221.179 77.7058C220.792 77.268 220.609 76.6774 220.67 76.0971L221.169 71.0877C221.23 70.5175 221.515 69.9881 221.963 69.6419L227.318 65.3962C228.133 64.7547 228.367 63.6144 227.868 62.6981L223.704 55.0008C223.246 54.1557 223.419 53.0968 224.121 52.4452L232.358 44.7173C233.285 43.8417 234.771 44.0046 235.494 45.0533L237.408 47.8227C237.367 48.2198 237.296 48.902 237.205 49.8183C237.194 49.8896 237.194 49.9609 237.184 50.0321C237.174 50.1747 237.154 50.3172 237.143 50.4699C235.698 48.3725 236.37 49.3601 234.089 46.0409C233.957 45.8475 233.692 45.8271 233.539 45.9798L225.302 53.7077C225.18 53.8197 225.15 54.0131 225.231 54.1557L229.395 61.853C230.301 63.5228 229.874 65.5795 228.397 66.7503C222.604 71.3321 222.92 71.0266 222.899 71.2506C222.36 76.6774 222.339 76.372 222.492 76.5451L228.357 83.2547C229.864 84.9856 229.558 87.6532 227.685 88.9768L220.761 93.8945C220.568 94.0371 220.67 93.5382 219.845 101.745C218.308 102.162 215.508 102.824 212.199 104.85C207.81 107.528 204.481 111.437 202.831 116.06Z" fill="url(#paint14_linear)"/>
<path d="M231.727 134.845C231.768 137.421 232.602 141.178 233.997 144.1C233.987 144.1 233.977 144.11 233.967 144.11C232.877 143.092 231.9 141.585 231.177 139.916C231.055 139.641 230.943 139.356 230.831 139.07C230.067 137.044 229.691 134.876 229.894 133.114C230.037 131.964 230.383 130.956 230.872 130.1C231.839 128.39 233.336 127.25 234.791 126.618C235.423 126.343 236.013 126.18 236.655 126.068C236.655 126.068 236.655 126.058 236.645 126.058C236.899 126.018 237.133 125.997 237.367 125.997C241.053 125.885 245.146 131.76 247.325 136.657C247.569 137.207 247.844 137.889 248.048 138.47H248.058C248.302 139.152 248.506 139.793 248.649 140.363C249.657 144.966 241.572 149.476 237.876 150.535C237.286 150.708 234.588 151.115 231.085 150.515C231.024 150.504 230.963 150.494 230.892 150.484C230.78 150.464 230.668 150.443 230.556 150.423C230.495 150.413 230.444 150.403 230.383 150.392C230.322 150.382 230.271 150.372 230.21 150.362C230.098 150.342 229.976 150.311 229.864 150.291C226.127 149.486 222.207 147.888 219.265 146.086C221.535 146.686 223.907 147.002 226.351 147.002C229.701 148.122 233.834 148.947 237.266 148.275C240.218 147.409 246.918 143.54 246.307 140.801C244.78 135.476 241.236 130.09 238.62 128.543C237.988 128.166 237.469 127.993 236.268 128.339C236.268 128.339 236.268 128.339 236.258 128.339C235.362 128.594 234.486 129.062 233.783 129.683C232.226 131.037 231.717 132.788 231.727 134.845Z" fill="#2854A1"/>
<path d="M230.831 139.06C230.943 139.345 231.055 139.63 231.177 139.905C224.895 143.662 215.283 139.732 215.752 133.277C216.23 126.791 226.106 124.501 231.757 128.838C231.431 129.215 231.126 129.642 230.871 130.1C230.841 130.162 230.81 130.212 230.78 130.274C226.157 126.639 217.839 128.451 217.473 133.409C217.096 138.572 225.587 141.514 230.556 138.256C230.617 138.47 230.719 138.755 230.831 139.06Z" fill="#2854A1"/>
<path d="M230.546 150.413C230.658 150.433 230.77 150.454 230.882 150.474C230.77 150.454 230.658 150.433 230.546 150.413Z" fill="#19243B"/>
<path d="M230.199 150.341C230.261 150.352 230.312 150.362 230.373 150.372C230.312 150.372 230.261 150.362 230.199 150.341Z" fill="#19243B"/>
<path d="M199.94 165.868C193.037 161.724 189.545 152.836 189.005 144.741C191.245 156.196 196.55 162.223 201.284 164.575C202.75 165.318 204.165 165.644 204.267 165.644C204.369 165.664 205.479 165.776 206.823 165.705C213.828 165.359 221.26 161.062 224.457 154.068C224.712 153.976 225.017 153.854 225.353 153.711C225.384 153.701 225.414 153.691 225.445 153.67C225.476 153.66 225.506 153.65 225.537 153.63C225.567 153.62 225.598 153.609 225.628 153.589C226.056 153.406 226.483 153.212 226.911 153.009C226.972 152.978 227.033 152.948 227.105 152.917C224.152 162.712 213.675 168.699 204.094 167.558C204.196 167.568 204.298 167.579 204.41 167.589C195.501 168.882 187.111 165.593 179.322 161.164C179.373 161.042 179.434 160.91 179.485 160.777C179.73 160.207 179.964 159.637 180.198 159.067C186.256 162.651 192.874 165.644 199.94 165.868ZM200.154 166C200.144 165.99 200.133 165.99 200.123 165.98C200.133 165.98 200.144 165.99 200.154 166Z" fill="#19243B"/>
<path d="M226.351 146.981C223.908 146.981 221.525 146.666 219.265 146.065C219.234 146.045 219.194 146.024 219.163 146.004C221.362 146.574 223.724 146.91 226.209 146.93C226.249 146.951 226.3 146.961 226.351 146.981Z" fill="#2854A1"/>
<path d="M224.457 154.068C224.762 153.956 225.058 153.834 225.353 153.711C225.017 153.854 224.712 153.976 224.457 154.068Z" fill="#19243B"/>
<path d="M204.552 136.372C205.794 138.032 207.27 139.549 208.92 140.883C212.208 146.086 218.277 151.726 224.08 152.144C225.322 151.655 226.442 151.136 227.42 150.586C227.786 150.382 228.143 150.168 228.489 149.955C228.865 150.056 229.344 150.168 229.853 150.28C229.965 150.301 230.077 150.331 230.199 150.352C230.26 150.362 230.311 150.372 230.372 150.382C230.433 150.392 230.495 150.403 230.545 150.413C230.657 150.433 230.769 150.453 230.881 150.474C230.943 150.484 231.004 150.494 231.075 150.504C229.853 151.441 228.489 152.256 227.094 152.928C227.033 152.958 226.972 152.989 226.9 153.019C226.483 153.223 226.035 153.416 225.618 153.6C225.587 153.61 225.556 153.62 225.526 153.64C225.495 153.651 225.465 153.661 225.434 153.681C225.404 153.691 225.373 153.701 225.343 153.722C225.047 153.844 224.752 153.966 224.447 154.078C224.416 154.088 224.386 154.099 224.355 154.109C223.683 154.048 222.675 153.997 221.189 153.528C213.878 151.207 207.321 143.652 204.552 136.372Z" fill="#19243B"/>
<path d="M201.203 115.5C201.172 115.582 201.152 115.653 201.121 115.734C200.938 116.254 200.775 116.783 200.632 117.302C197.558 116.885 194.951 115.337 192.446 113.596C192.456 113.566 192.467 113.535 192.477 113.505C192.548 113.311 192.609 113.107 192.66 112.914C192.68 112.833 192.701 112.761 192.721 112.68C192.742 112.598 192.762 112.527 192.782 112.446C192.843 112.211 192.894 111.977 192.935 111.733C195.338 113.505 198.219 115.337 201.203 115.5Z" fill="#19243B"/>
<path d="M201.121 115.734C200.937 116.264 200.774 116.813 200.642 117.302H200.632C200.774 116.773 200.937 116.253 201.121 115.734Z" fill="#19243B"/>
<path d="M200.195 119.481C200.073 120.255 199.991 121.079 199.971 121.69C199.95 121.7 199.94 121.71 199.92 121.731C199.961 120.998 200.042 120.255 200.164 119.511C200.164 119.501 200.185 119.491 200.195 119.481Z" fill="#19243B"/>
<path d="M200.154 119.511C200.032 120.254 199.95 120.998 199.91 121.731C195.257 125.427 192.151 130.996 190.023 136.596C191.897 130.12 194.951 123.747 200.154 119.511Z" fill="#19243B"/>
<path d="M192.446 104.137C184.015 117.872 167.959 121.955 157.94 120.163C134.319 115.581 114.862 91.4103 109.781 66.4348C109.751 66.4348 109.354 64.093 109.344 64.0625C109.15 64.1643 108.967 64.2559 108.773 64.3578C102.644 67.6159 97.5125 72.6965 85.5898 77.4208C85.8546 77.4309 86.1193 77.4513 86.384 77.4717C87.3716 77.5429 88.4203 77.6549 89.2654 77.7975C98.2252 73.623 101.738 70.3853 107.979 66.8115C108.02 66.669 108.061 66.5366 108.101 66.3941C108.101 66.4144 108.122 66.5366 108.162 66.6995C108.101 66.7301 108.04 66.7708 107.979 66.8013C104.884 77.7975 108.56 90.3717 115.687 99.7388C108.773 89.7507 106.696 78.3371 108.855 69.4995C115.015 92.4997 132.822 115.368 157.238 120.906C167.389 123.258 182.763 118.911 191.509 109.961C191.356 121.151 175.84 127.423 164.955 130.08C175.341 128.023 189.748 123.085 192.639 112.904C193.362 110.379 193.556 107.864 192.446 104.137ZM108.906 69.3773C108.926 69.2755 108.967 69.1329 109.018 68.9395C108.977 69.082 108.936 69.2348 108.906 69.3773Z" fill="#19243B"/>
<path d="M192.792 112.435C192.853 112.201 192.904 111.967 192.945 111.722C192.894 111.957 192.843 112.201 192.792 112.435Z" fill="#19243B"/>
<path d="M192.731 112.669C192.752 112.588 192.772 112.517 192.793 112.435C192.772 112.506 192.752 112.588 192.731 112.669Z" fill="#19243B"/>
<path d="M192.66 112.893C192.681 112.812 192.701 112.741 192.721 112.659C192.711 112.741 192.691 112.822 192.66 112.893Z" fill="#19243B"/>
<path d="M169.008 177.832C168.947 177.913 168.886 178.005 168.825 178.086C168.356 178.585 167.868 179.074 167.379 179.532C167.929 178.992 168.468 178.422 169.008 177.832Z" fill="#2854A1"/>
<path d="M160.833 184.725C161.555 184.277 162.258 183.798 162.94 183.31C162.217 183.839 161.494 184.338 160.771 184.796C160.782 184.786 160.782 184.786 160.792 184.776C160.792 184.755 160.812 184.735 160.833 184.725Z" fill="#2854A1"/>
<path d="M123.598 191.18C126.459 191.322 129.351 191.272 132.303 191.068C141.538 190.437 151.496 187.291 157.493 183.931C177.347 172.629 182.947 145.515 188.811 123.981C187.559 134.723 184.576 148.784 179.454 160.808C176.593 167.518 173.081 173.596 168.825 178.107C168.886 178.025 168.947 177.934 169.008 177.852C168.479 178.443 167.929 179.003 167.379 179.552C167.359 179.573 167.338 179.593 167.318 179.614C165.872 180.998 164.426 182.22 162.97 183.299C162.96 183.309 162.95 183.309 162.94 183.32C162.258 183.819 161.555 184.287 160.832 184.735C160.812 184.755 160.802 184.765 160.781 184.786C160.771 184.796 160.771 184.796 160.761 184.806C151.771 190.528 142.404 191.149 132.324 191.424C130.267 191.475 127.263 191.618 123.588 191.434L123.598 191.18Z" fill="#19243B"/>
<path d="M121.948 203.55C135.215 202.665 148.97 196.983 160.761 184.786C161.483 184.327 162.206 183.828 162.929 183.299C162.939 183.289 162.95 183.289 162.96 183.279C164.497 182.159 165.943 180.937 167.307 179.593C167.328 179.572 167.348 179.552 167.368 179.532C167.857 179.074 168.336 178.585 168.814 178.086C156.8 194.438 140.102 203.642 122.803 204.986C123.374 204.426 123.944 203.876 124.545 203.326C123.679 203.428 122.814 203.51 121.948 203.55Z" fill="#2854A1"/>
<path d="M123.598 191.18L123.587 191.424C116.053 191.048 105.637 189.266 94.4883 182.393C94.7428 182.241 94.9974 182.088 95.2417 181.935C97.0337 183.086 98.9478 184.185 100.943 185.183C108.6 189.042 115.971 190.793 123.598 191.18Z" fill="#19243B"/>
<path d="M124.545 203.336C123.955 203.886 123.374 204.436 122.804 204.996C121.817 205.067 120.839 205.118 119.852 205.149C120.34 204.63 120.839 204.12 121.358 203.611C121.552 203.601 121.756 203.591 121.949 203.571C122.814 203.51 123.68 203.428 124.545 203.336Z" fill="#2854A1"/>
<path d="M121.358 203.601C120.849 204.11 120.35 204.619 119.851 205.139C113.355 205.302 106.809 204.365 100.425 202.268C101.097 201.972 101.748 201.687 102.4 201.412C108.58 203.214 115.198 203.998 121.949 203.55V203.561C121.745 203.581 121.552 203.591 121.358 203.601Z" fill="#2854A1"/>
<path d="M119.852 205.139C120.839 205.118 121.817 205.057 122.804 204.986C107.481 220.075 102.013 238.789 78.392 244.755C72.0692 246.171 67.7725 241.212 66.7951 235.836C65.5631 229.259 68.5565 220.951 70.5521 218.029C70.9899 217.367 71.9572 216.165 72.0386 216.064C78.0967 208.835 85.794 204.65 94.3567 199.895C95.0695 200.221 95.7822 200.527 96.5051 200.822C88.7263 205.037 78.2494 210.382 72.5681 218.008C71.8757 218.904 71.5805 219.393 71.3056 219.892C69.3202 223.537 66.6831 231.916 68.9129 237.72C70.2772 241.324 73.4233 244.226 77.7607 243.33C78.2698 243.218 79.2574 242.943 79.4509 242.882C99.6919 237.119 106.371 219.363 119.852 205.139Z" fill="#2854A1"/>
<path d="M109.782 66.4346C109.741 66.5364 109.711 66.6382 109.67 66.74C109.711 66.6382 109.741 66.5364 109.782 66.4346Z" fill="#2854A1"/>
<path d="M109.599 65.4775C109.599 65.4983 109.609 65.5295 109.609 65.5503C109.609 65.5295 109.599 65.5191 109.599 65.4983C109.599 65.4879 109.599 65.4775 109.599 65.4775Z" fill="#19243B"/>
<path d="M109.598 65.4966C109.598 65.4868 109.598 65.4771 109.588 65.4673V65.4771C109.598 65.4771 109.598 65.4868 109.598 65.4966Z" fill="#19243B"/>
<path d="M109.568 65.326C109.558 65.2545 109.538 65.1727 109.527 65.1011C109.538 65.1727 109.558 65.2442 109.568 65.326Z" fill="#19243B"/>
<path d="M109.517 65.0195C109.496 64.9278 109.486 64.8362 109.466 64.7446C109.476 64.8362 109.496 64.9278 109.517 65.0195Z" fill="#19243B"/>
<path d="M109.395 64.3593C109.384 64.3077 109.374 64.2665 109.374 64.2356C109.374 64.2768 109.384 64.318 109.395 64.3593Z" fill="#2854A1"/>
<path d="M109.354 64.093C109.354 64.1138 109.364 64.1449 109.364 64.1657C109.354 64.1345 109.354 64.1138 109.354 64.093Z" fill="#2854A1"/>
<path d="M109.059 68.7458C108.998 68.98 108.937 69.2142 108.886 69.4484C108.906 69.3466 108.967 69.1022 109.059 68.7458Z" fill="#2854A1"/>
<path d="M108.183 66.6992C108.122 66.7297 108.061 66.7704 108 66.801C108.041 66.6584 108.081 66.5261 108.122 66.3835C108.112 66.4141 108.143 66.5261 108.183 66.6992Z" fill="#19243B"/>
<path d="M101.046 201.005C101.494 201.147 101.942 201.29 102.4 201.422C101.942 201.28 101.494 201.147 101.046 201.005Z" fill="#2854A1"/>
<path d="M101.046 201.005C101.494 201.147 101.942 201.29 102.4 201.422C101.748 201.707 101.097 201.992 100.425 202.278C100.425 202.278 100.425 202.278 100.415 202.278C100.007 202.145 99.6001 202.003 99.1826 201.86C99.8139 201.565 100.435 201.28 101.046 201.005Z" fill="#2854A1"/>
<path d="M100.414 202.278C100.424 202.278 100.424 202.278 100.414 202.278C86.6793 208.295 68.9938 216.929 68.8309 232.853C68.6985 217.438 85.0197 208.427 99.1823 201.86C99.5998 202.003 100.007 202.135 100.414 202.278Z" fill="#2854A1"/>
<path d="M101.046 201.005C100.435 201.29 99.8138 201.565 99.1928 201.86C98.2968 201.545 97.4008 201.209 96.5049 200.842C97.0445 200.547 97.5739 200.262 98.0932 199.977C99.0604 200.343 100.048 200.689 101.046 201.005Z" fill="#2854A1"/>
<path d="M98.0927 199.966C98.0825 199.966 98.0825 199.966 98.0927 199.966C97.3393 199.681 96.6061 199.386 95.873 199.07C96.596 199.386 97.3393 199.681 98.0927 199.966Z" fill="#2854A1"/>
<path d="M98.0824 199.966C97.5733 200.252 97.0336 200.537 96.494 200.832C95.7813 200.537 95.0584 200.231 94.3457 199.905C94.8446 199.63 95.3537 199.345 95.8628 199.06C96.5958 199.386 97.3391 199.681 98.0824 199.966Z" fill="#2854A1"/>
<path d="M95.8739 199.071C95.3648 199.356 94.8557 199.631 94.3568 199.916C89.6122 197.767 84.9796 194.927 81.0088 191.496C81.4161 191.19 81.8131 190.895 82.2102 190.6C86.2014 194.021 90.8238 196.892 95.8739 199.071Z" fill="#2854A1"/>
<path d="M89.2756 77.7974C88.8582 77.9908 88.4306 78.1843 88.0029 78.3777C88.4407 78.1843 88.8582 77.9908 89.2756 77.7974Z" fill="#19243B"/>
<path d="M89.2763 77.7975C88.8589 77.9909 88.4415 78.1843 88.0036 78.3778C87.9935 78.3778 87.9935 78.388 87.9833 78.388C87.8306 78.4592 87.6778 78.5203 87.5251 78.5916C87.3317 78.6832 87.1382 78.7647 86.9346 78.8461L86.3848 77.4717C87.3826 77.5328 88.4211 77.6549 89.2763 77.7975Z" fill="#19243B"/>
<path d="M87.5244 78.5916C87.6771 78.5203 87.8299 78.4592 87.9826 78.3879C87.8299 78.449 87.6771 78.5203 87.5244 78.5916Z" fill="#19243B"/>
<path d="M86.9443 78.8463C87.1378 78.7649 87.3312 78.6732 87.5349 78.5918C87.3312 78.6732 87.1378 78.7649 86.9443 78.8463Z" fill="#19243B"/>
<path d="M79.9711 190.081C79.8893 190.142 79.8177 190.203 79.7461 190.254C79.8177 190.203 79.8893 190.142 79.9711 190.081Z" fill="#2854A1"/>
<path d="M77.4043 164.117C77.1396 164.443 76.8035 164.86 76.5693 165.156C76.8341 164.81 77.1192 164.463 77.4043 164.117Z" fill="#19243B"/>
<path d="M76.6407 162.325C76.2843 162.753 75.928 163.18 75.592 163.618C64.545 145.342 68.6991 127.076 68.7092 125.661C68.7092 125.661 68.7398 125.6 68.8212 125.447C68.8314 125.417 68.8518 125.386 68.862 125.356C68.8823 125.305 68.9129 125.254 68.9536 125.193C69.6052 124.908 70.2568 124.623 70.9085 124.348C68.3732 138.388 70.5827 151.451 76.6407 162.325Z" fill="#19243B"/>
<path d="M70.2872 175.337C70.2159 175.479 70.1548 175.632 70.0938 175.775C70.1548 175.632 70.2261 175.49 70.2872 175.337Z" fill="#2854A1"/>
<path d="M70.0932 175.775C69.8997 176.213 69.7165 176.661 69.5332 177.109C69.5332 177.109 69.5332 177.109 69.5332 177.099C69.7063 176.671 69.8896 176.233 70.0932 175.775Z" fill="#2854A1"/>
<path d="M68.9331 125.192C68.882 125.213 68.8207 125.244 68.7695 125.264C68.8002 125.254 68.8207 125.244 68.8513 125.223C68.8616 125.223 68.8718 125.213 68.8718 125.213C68.9025 125.203 68.9229 125.203 68.9331 125.192Z" fill="#2854A1"/>
<path d="M68.8623 125.356C68.8521 125.387 68.8316 125.417 68.8213 125.448C68.8316 125.417 68.8418 125.387 68.8623 125.356Z" fill="#2854A1"/>
<path d="M68.8518 125.233C68.8212 125.244 68.8008 125.254 68.7703 125.274C68.5972 125.356 68.4241 125.427 68.251 125.498C68.5157 125.376 68.7296 125.284 68.8518 125.233Z" fill="#2854A1"/>
<path d="M68.8617 125.355C68.8413 125.386 68.8312 125.416 68.821 125.447C68.7395 125.6 68.709 125.661 68.709 125.661C68.7293 125.528 68.7497 125.396 68.7701 125.274C68.821 125.253 68.8821 125.223 68.933 125.203C68.9432 125.203 68.9432 125.192 68.9432 125.192C68.9126 125.253 68.8923 125.304 68.8617 125.355Z" fill="#2854A1"/>
<path d="M68.2511 125.498C68.414 125.427 68.5871 125.345 68.7704 125.274C68.75 125.407 68.7297 125.539 68.7093 125.661C62.2643 138.439 61.9691 157.55 69.3813 173.474C69.0962 174.064 68.8315 174.655 68.5769 175.256C60.6353 159.209 60.3807 139.946 66.337 126.374C66.3472 126.374 66.3472 126.364 66.3573 126.364C66.3777 126.353 66.3879 126.353 66.4082 126.343C66.4184 126.343 66.4286 126.333 66.4388 126.323C66.7239 126.191 67.233 125.956 67.7319 125.732C67.8031 125.702 67.8744 125.671 67.9457 125.631C68.0169 125.6 68.0984 125.559 68.1697 125.529C68.2002 125.519 68.2308 125.508 68.2511 125.498Z" fill="#2854A1"/>
<path d="M68.2515 125.498C68.2207 125.508 68.1899 125.529 68.1592 125.539C68.2002 125.519 68.231 125.508 68.2515 125.498Z" fill="#2854A1"/>
<path d="M61.3374 128.431C61.5716 133.847 56.3993 139.274 51.451 148.692C51.2372 147.552 51.3492 148.091 50.9521 146.228C55.8088 137.767 59.9731 132.951 59.7287 128.746C59.8 128.736 59.8713 128.726 59.9425 128.716C60.0036 128.706 60.0647 128.695 60.136 128.685C60.2073 128.675 60.2887 128.655 60.36 128.644C60.4109 128.634 60.4618 128.624 60.5127 128.614C60.7978 128.563 61.0625 128.492 61.3374 128.431Z" fill="#2854A1"/>
<path d="M60.3701 128.644C60.4212 128.634 60.4724 128.624 60.5235 128.614C60.4724 128.624 60.4212 128.634 60.3701 128.644Z" fill="#2854A1"/>
<path d="M59.9531 128.716C60.0145 128.706 60.0758 128.695 60.1474 128.685C60.0861 128.695 60.0145 128.706 59.9531 128.716Z" fill="#2854A1"/>
<path d="M54.1899 171.254L54.027 171.509C43.713 188.268 28.5526 204.691 14.8787 218.416L15.7951 214.933C22.1484 190.884 23.5433 166.876 7.65995 147.837C4.50365 144.049 1.71389 141.677 0.135742 140.272C3.01714 131.383 6.17344 119.135 8.55593 109.778C16.2634 79.5179 15.622 81.0757 16.0292 78.6729C16.6096 78.9783 17.4139 79.6605 17.8925 80.1288C23.1055 85.4538 29.5606 93.9045 35.1503 103.832C34.9059 104.045 34.6718 104.269 34.4376 104.493C34.4274 104.504 34.4172 104.514 34.407 104.524C34.2951 104.626 34.1932 104.728 34.0914 104.84C29.5708 96.623 23.7876 88.1519 17.3732 81.3303C16.9761 80.9026 16.9761 80.9535 16.9354 80.6684C16.9252 80.5768 16.9049 80.475 16.8743 80.3732C16.7827 82.5011 17.3732 79.5077 13.6773 95.0551C9.89991 110.989 5.54218 129.265 2.34515 139.671C23.9607 158.741 25.376 183.971 18.5339 211.981C30.141 200.109 43.4381 184.949 52.2045 170.776C51.4918 159.118 50.3107 149.679 47.2359 138.011C47.2562 137.991 47.2766 137.971 47.297 137.95C47.3072 137.94 47.3173 137.93 47.3275 137.92C47.3377 137.91 47.3479 137.899 47.3581 137.889C47.3682 137.879 47.3784 137.869 47.3886 137.859C47.3988 137.848 47.409 137.838 47.4191 137.828C47.4293 137.818 47.4293 137.818 47.4395 137.808C47.4497 137.798 47.4497 137.798 47.4599 137.787C47.4701 137.777 47.4802 137.767 47.5006 137.747C47.521 137.726 47.5413 137.706 47.5719 137.675L47.5821 137.665C47.5922 137.655 47.5922 137.645 47.6024 137.645C47.6126 137.635 47.6228 137.624 47.6228 137.624C47.633 137.614 47.6533 137.604 47.6635 137.584L47.6737 137.574C47.7042 137.543 47.7348 137.512 47.7653 137.492C47.8468 137.411 47.9282 137.329 48.0199 137.248C48.03 137.238 48.0504 137.227 48.0606 137.207C48.0911 137.176 48.1115 137.156 48.142 137.126C48.3151 136.963 48.4882 136.81 48.5697 136.739C48.59 136.718 48.6104 136.708 48.6206 136.688C49.8118 141.219 50.718 145.098 51.4307 148.712C52.9172 156.094 53.5892 162.437 54.1899 171.254Z" fill="#2854A1"/>
<path d="M48.1621 137.105C48.3047 136.973 48.4472 136.84 48.5897 136.718C48.5083 136.79 48.3352 136.942 48.1621 137.105Z" fill="#2854A1"/>
<path d="M48.0811 137.187C48.2745 137.004 48.4578 136.83 48.641 136.667V136.678C48.6207 136.698 48.6105 136.708 48.5901 136.729C48.4476 136.851 48.3051 136.983 48.1625 137.116C48.132 137.126 48.1014 137.156 48.0811 137.187Z" fill="#2854A1"/>
<path d="M48.2031 136.647C50.0256 135.12 51.7667 134.051 53.9964 132.92C52.011 134.01 50.4227 135.038 48.6409 136.647C48.6307 136.606 48.5595 136.362 48.5595 136.352C48.4475 136.454 48.3253 136.545 48.2031 136.647Z" fill="#2854A1"/>
<path d="M48.0401 137.217C47.9485 137.298 47.867 137.38 47.7856 137.461C47.755 137.492 47.7346 137.512 47.7041 137.543C47.7245 137.512 47.867 137.38 48.0401 137.217Z" fill="#2854A1"/>
<path d="M47.7036 137.543C47.6936 137.553 47.6936 137.553 47.7036 137.543C47.6936 137.553 47.6936 137.553 47.6836 137.563C47.6936 137.563 47.6936 137.553 47.7036 137.543Z" fill="#2854A1"/>
<path d="M47.643 137.604C47.633 137.614 47.623 137.624 47.623 137.624C47.623 137.624 47.633 137.614 47.643 137.604Z" fill="#2854A1"/>
<path d="M47.6113 137.635C47.6016 137.644 47.6016 137.644 47.5918 137.654L47.582 137.664C47.5918 137.654 47.6016 137.644 47.6113 137.635Z" fill="#2854A1"/>
<path d="M47.5523 137.207C47.5011 137.258 47.4398 137.309 47.3887 137.36C47.4398 137.309 47.5011 137.258 47.5523 137.207Z" fill="#2854A1"/>
<path d="M47.5119 137.736C47.5016 137.747 47.4913 137.757 47.4707 137.778C47.4913 137.757 47.5016 137.747 47.5119 137.736Z" fill="#2854A1"/>
<path d="M47.46 137.787C47.4701 137.777 47.4701 137.777 47.4802 137.767C47.4701 137.777 47.46 137.787 47.46 137.787Z" fill="#2854A1"/>
<path d="M47.4395 137.808C47.4395 137.798 47.4496 137.798 47.4597 137.788C47.4496 137.798 47.4496 137.798 47.4395 137.808Z" fill="#2854A1"/>
<path d="M47.4385 137.808C47.4287 137.817 47.419 137.827 47.4092 137.837C47.419 137.827 47.4287 137.817 47.4385 137.808Z" fill="#2854A1"/>
<path d="M47.4083 137.838C47.3985 137.848 47.3887 137.858 47.3789 137.867C47.3789 137.858 47.3887 137.848 47.4083 137.838Z" fill="#2854A1"/>
<path d="M47.3672 137.879C47.3575 137.889 47.3477 137.899 47.3379 137.909C47.3477 137.899 47.3575 137.889 47.3672 137.879Z" fill="#2854A1"/>
<path d="M47.337 137.91C47.3272 137.919 47.3174 137.929 47.3076 137.939C47.3272 137.919 47.3272 137.919 47.337 137.91Z" fill="#2854A1"/>
<path d="M47.2458 137.951V137.94V137.93V137.92C47.2458 137.91 47.2458 137.91 47.2458 137.9V137.889V137.879V137.869C47.2458 137.859 47.2458 137.859 47.2458 137.849C47.2458 137.839 47.2458 137.839 47.2458 137.828C47.2458 137.818 47.2458 137.818 47.2356 137.808V137.798L47.2254 137.777C47.2254 137.767 47.2254 137.767 47.2254 137.757L47.2153 137.727V137.716V137.706V137.696V137.686C47.2153 137.676 47.2153 137.676 47.2153 137.665V137.655C47.2051 137.635 47.2051 137.594 47.2051 137.594C47.2763 137.523 47.3578 137.452 47.4494 137.38C47.5003 137.329 47.5614 137.279 47.6123 137.228C47.8262 137.044 48.0502 136.851 48.264 136.668C48.3861 136.566 48.5083 136.474 48.6203 136.383C48.6203 136.383 48.6916 136.627 48.7018 136.678C48.5185 136.851 48.3352 137.014 48.1418 137.197C48.1316 137.207 48.1112 137.228 48.1011 137.238C47.928 137.391 47.7854 137.533 47.7651 137.564C47.7549 137.574 47.7549 137.574 47.7447 137.584C47.7345 137.594 47.7243 137.604 47.704 137.625C47.6938 137.635 47.6836 137.645 47.6836 137.645C47.6734 137.655 47.6633 137.665 47.6531 137.676C47.6327 137.696 47.6123 137.716 47.5818 137.747C47.5716 137.757 47.5614 137.767 47.5411 137.788C47.5309 137.798 47.5309 137.798 47.5207 137.808C47.5105 137.818 47.5105 137.818 47.5003 137.828C47.4902 137.839 47.48 137.849 47.4698 137.859C47.4596 137.869 47.4494 137.879 47.4393 137.889C47.4291 137.9 47.4189 137.91 47.4087 137.92C47.3985 137.93 47.3883 137.94 47.3782 137.951C47.3578 137.971 47.3374 137.991 47.3171 138.012C47.3171 138.012 47.3171 138.012 47.3171 138.001C47.256 137.981 47.2458 137.971 47.2458 137.951C47.2458 137.961 47.2458 137.951 47.2458 137.951Z" fill="#2854A1"/>
<path d="M47.2565 137.991C46.3299 138.928 45.4034 139.966 44.3954 141.249C40.0886 146.768 39.4675 148.987 38.0014 150.219C35.8531 151.991 32.6968 151.909 30.6197 149.965C30.2633 149.608 30.1004 149.435 29.7034 148.865C29.5201 142.888 30.3448 141.636 31.0575 136.535C31.0066 131.21 26.1602 125.743 26.1602 118.514C27.4939 113.291 30.3753 108.546 34.1018 104.83C34.1527 104.779 34.2647 104.667 34.4174 104.514C34.4276 104.504 34.4378 104.494 34.448 104.483C34.6414 104.29 34.896 104.056 35.1607 103.822C37.3599 101.826 39.7933 100.187 42.3591 98.9854C42.186 99.2704 42.0333 99.5555 41.8704 99.8508C41.8297 99.9221 41.7889 99.9933 41.7584 100.065C41.6362 100.289 41.5242 100.523 41.4122 100.757C41.4122 100.767 41.402 100.767 41.402 100.777C41.402 100.787 41.3919 100.798 41.3919 100.798C41.3715 100.828 41.3511 100.889 41.3206 100.961C41.3206 100.961 41.3206 100.961 41.3206 100.971C41.3104 100.991 41.3104 101.001 41.3002 101.022C41.29 101.032 41.29 101.052 41.2799 101.062C41.1679 101.327 41.066 101.592 40.9948 101.846C40.9846 101.867 40.9846 101.887 40.9744 101.907C34.9163 105.491 29.8764 111.804 28.0845 118.758C28.1354 124.348 31.6684 129.153 32.6968 134.071C32.9717 135.374 33.0022 136.505 32.9615 136.729C32.1979 142.237 31.5462 142.532 31.5971 148.264C32.9004 150.28 36.2094 150.708 38.0828 148.274C40.9031 144.405 43.5911 140.781 47.1241 137.574C47.1241 137.574 47.1343 137.614 47.1343 137.635V137.645C47.1343 137.645 47.1343 137.655 47.1343 137.665V137.675C47.1343 137.675 47.1343 137.675 47.1343 137.686V137.696V137.706C47.1343 137.716 47.1343 137.726 47.1445 137.726C47.1445 137.737 47.1547 137.757 47.1547 137.767C47.1547 137.767 47.1547 137.767 47.1547 137.777V137.787C47.1547 137.798 47.1547 137.798 47.1648 137.808C47.1648 137.818 47.1648 137.818 47.1648 137.828C47.1648 137.838 47.1648 137.838 47.1648 137.849V137.859V137.869C47.1648 137.879 47.1648 137.879 47.1648 137.879C47.1648 137.879 47.1648 137.889 47.1648 137.899V137.91V137.92V137.93C47.1648 137.93 47.1648 137.93 47.1648 137.94C47.2463 137.971 47.2565 137.981 47.2565 137.991Z" fill="#2854A1"/>
<path d="M47.2152 137.818C47.2152 137.818 47.2152 137.808 47.2051 137.798C47.2051 137.808 47.2051 137.818 47.2152 137.818Z" fill="#2854A1"/>
<path d="M47.1953 137.767L47.2054 137.787C47.2054 137.787 47.2054 137.787 47.2054 137.777C47.1953 137.777 47.1953 137.767 47.1953 137.767Z" fill="#2854A1"/>
<path d="M47.1958 137.767V137.778C47.1958 137.767 47.1855 137.747 47.1855 137.736V137.747C47.1958 137.757 47.1958 137.757 47.1958 137.767Z" fill="#2854A1"/>
<path d="M47.1855 137.706L47.1953 137.735V137.725C47.1855 137.725 47.1855 137.716 47.1855 137.706Z" fill="#2854A1"/>
<path d="M42.3696 98.9955C42.3696 98.9955 42.3798 98.9955 42.3798 98.9854C42.2169 99.2603 42.0438 99.5555 41.8809 99.861C42.0336 99.5657 42.1965 99.2704 42.3696 98.9955Z" fill="#2854A1"/>
<path d="M41.4119 100.788C41.3812 100.849 41.3608 100.91 41.3301 100.972C41.3608 100.9 41.3812 100.849 41.4017 100.808C41.4017 100.798 41.4119 100.788 41.4119 100.788Z" fill="#2854A1"/>
<path d="M41.331 100.971C41.3208 100.991 41.3208 101.001 41.3105 101.022C41.3208 101.001 41.3208 100.991 41.331 100.971Z" fill="#2854A1"/>
<path d="M35.1707 103.822C34.9162 104.056 34.6616 104.3 34.458 104.483C34.6922 104.259 34.9264 104.035 35.1707 103.822Z" fill="#2854A1"/>
<path d="M34.1016 104.83C34.2034 104.728 34.3154 104.616 34.4172 104.514C34.2645 104.667 34.1525 104.789 34.1016 104.83C34.1117 104.83 34.1016 104.83 34.1016 104.83Z" fill="#2854A1"/>
<path d="M96.0159 147.327C80.6925 152.459 69.9102 164.657 63.8521 179.888C62.1619 184.185 60.9911 188.675 60.594 193.369C60.1867 198.012 60.6551 201.708 61.7241 205.577C62.8543 209.232 69.3807 209.721 73.5348 203.927C73.7588 203.632 74.2476 202.878 74.8584 202.003C92.2487 176.742 113.874 167.843 109.547 152.245C108.539 148.794 103.418 144.802 96.0159 147.327ZM65.6033 179.389C73.769 162.814 87.504 153.019 93.1243 150.575C96.3621 149.181 100.618 148.111 104.375 148.59C100.139 148.285 94.9061 149.954 91.3527 152.133C82.4845 157.621 63.2412 174.095 61.0012 197.136C61.2049 191.455 62.3656 186.048 65.6033 179.389Z" fill="#2496ED"/>
<path d="M109.537 152.235C113.915 167.986 91.8612 176.834 74.3285 202.756C74.0841 203.112 73.7074 203.672 73.5241 203.917C70.4697 208.183 66.5905 208.478 64.0552 207.175C60.7869 204.854 60.0233 191.831 67.9446 178.106C75.5503 164.931 86.4141 152.836 99.8946 148.885C102.277 148.183 106.35 149.058 107.846 149.455C108.691 150.331 109.262 151.308 109.537 152.235Z" fill="url(#paint15_linear)"/>
<path d="M104.375 148.59C100.139 148.285 94.9058 149.954 91.3524 152.133C82.4842 157.621 63.2409 174.095 61.001 197.136C61.2046 191.444 62.3653 186.038 65.6031 179.389C73.7687 162.814 87.5037 153.019 93.124 150.575C96.3515 149.18 100.618 148.101 104.375 148.59Z" fill="#2854A1"/>
<path d="M108.111 148.203C105.403 145.79 101.687 144.66 97.0135 145.617C96.7488 145.668 96.0463 145.851 95.9445 145.882C89.0006 147.959 82.5658 151.4 75.9987 157.509C65.2775 167.355 59.2602 180.703 58.8936 195.324C58.802 197.9 59.0565 200.323 59.4841 202.858C60.0441 205.414 60.2783 207.307 62.1721 208.651C65.4506 211.064 71.3966 209.934 75.1231 204.64C95.1299 176.824 113.467 170.562 111.309 154.74C110.922 152.011 110.209 150.056 108.111 148.203ZM74.166 203.001C74.0947 203.102 73.6773 203.734 73.5246 203.927C69.3705 209.71 62.8441 209.242 61.7139 205.577C60.431 200.924 60.095 196.688 60.7976 191.455C63.2717 172.272 77.1492 153.65 96.0157 147.327C103.408 144.802 108.529 148.783 109.527 152.235C113.935 168.078 91.3424 177.261 74.166 203.001Z" fill="#2854A1"/>
<path d="M188.638 25.5249C183.232 26.4209 176.654 25.6369 172.867 23.6006C175.066 24.1097 177.428 24.3031 179.719 24.3031C182 24.3133 189.494 23.1628 189.758 23.0814C190.919 22.7454 193.475 21.829 193.607 20.6378C193.861 17.4815 188.19 13.2357 180.717 11.5252C175.789 10.4154 171.665 10.5478 167.074 11.342C168.692 9.90634 172.47 6.72968 171.879 4.60172C171.248 2.40249 164.599 1.77123 158.765 3.3392C146.038 6.79077 138.606 14.539 137.191 15.4146C137.191 15.4146 137.527 14.7426 138.015 14.0197C138.321 13.5514 140.876 8.52164 140.102 7.42203C139.99 7.23876 139.644 7.19803 139.43 7.18785C132.028 6.97404 120.615 18.9273 114.608 32.2652C120.574 36.7654 125.492 44.1369 126.795 50.0728C122.824 40.2577 108.377 25.9831 99.7221 32.0412C99.7221 32.0412 99.5287 32.1735 99.5389 32.1735C97.5229 34.4542 101.575 50.1645 115.738 57.5461C113.59 56.925 111.553 55.9578 109.67 54.7564C109.507 63.2682 110.902 71.3931 113.63 79.3857C123.109 107.232 150.834 126.496 175.616 118.473C190.858 113.545 195.694 97.5701 196.702 91.6138C195.714 92.1738 194.666 92.6116 193.627 92.8967C192.64 93.1614 191.469 93.2531 190.227 93.2327C189.259 95.5948 187.956 98.2624 186.093 99.9933C185.329 100.696 184.606 101.368 183.558 101.541C183.069 101.612 182.651 101.582 182.234 101.531C181.389 101.398 180.615 101.113 179.862 100.808C179.617 101.032 179.342 101.246 179.057 101.429C179.078 101.419 179.098 101.419 179.118 101.409C177.469 103.659 175.168 105.878 172.602 105.878C167.97 105.878 165.669 100.177 163.887 95.941C157.208 95.3301 150.192 91.2575 148.227 84.6801C146.741 79.5791 148.563 75.7814 153.919 74.58C159.112 73.4294 169.741 74.4272 175.83 75.2112C178.172 73.6738 185.513 73.8978 188.496 74.7938C192.324 74.5494 196.346 74.6716 199.186 75.9443C201.671 66.0274 203.524 55.3164 200.846 44.6664C198.901 37.1116 194.197 30.3103 188.638 25.5249Z" fill="url(#paint16_radial)"/>
<path d="M100.008 33.1104C102.085 46.8657 116.319 62.9221 121.888 53.9725C121.898 48.1282 108.459 33.3343 100.008 33.1104Z" fill="#1D79BF"/>
<path d="M201.508 42.1924C201.457 42.0295 201.396 41.8666 201.345 41.7037C200.561 39.3721 199.564 37.1016 198.322 34.8922C199.503 32.5097 200.704 30.4835 202.364 28.3963C200.561 29.9235 199.014 31.8886 197.721 33.8537C197.497 33.4871 197.273 33.1206 197.039 32.754C196.275 31.5526 195.43 30.3715 194.514 29.2108C197.222 26.3091 202.924 24.4458 203.86 27.877C204.98 32.021 203.137 37.9772 201.508 42.1924Z" fill="#2496ED"/>
<path d="M203.351 32.5098C203.351 35.6355 202.577 38.7613 201.356 41.7038C200.572 39.3722 199.574 37.1017 198.332 34.8923C199.513 32.5098 200.714 30.4836 202.374 28.3964C200.572 29.9237 199.024 31.8887 197.731 33.8538C197.507 33.4872 197.283 33.1207 197.049 32.7541C198.607 30.616 200.46 28.7731 202.638 27.5615C203.127 29.1906 203.351 30.8502 203.351 32.5098Z" fill="#1D79BF"/>
<path d="M205.132 26.8383C204.471 25.3925 202.933 24.5984 201.335 24.4456C199.695 24.2929 196.173 25.0565 192.986 27.3881C192.293 26.6041 191.56 25.8202 190.797 25.0464C193.037 24.4151 195.633 23.1729 195.867 20.8719C196.498 14.3862 182.886 6.94344 169.527 10.5477C174.414 8.25686 175.891 3.46132 171.421 1.25191C163.652 -2.54583 149.408 2.86061 141.64 9.90629C142.658 7.45252 142.118 5.3042 139.532 5.11074C130.929 4.59148 118.701 17.2065 112.439 30.799C110.79 29.8012 109.089 29.0375 107.379 28.5997C101.728 27.1845 98.1338 30.0557 97.696 30.5648C94.5906 33.8229 98.4087 45.827 107.175 52.9643C106.788 62.2907 108.509 71.0876 111.329 80.0984C117.357 99.7489 143.87 128.726 175.606 118.483C190.725 113.616 195.419 101.592 199.207 88.8647C198.748 89.7811 197.415 90.9112 196.692 91.624C194.554 99.1685 188.323 114.298 175.606 118.483C147.199 127.809 120.574 99.8711 114.251 80.9943C111.472 72.4011 109.486 63.7772 109.659 54.7665C111.543 55.9781 113.579 56.9352 115.728 57.5563C101.565 50.1644 97.5127 34.4542 99.5287 32.1735L99.712 32.0411C108.377 25.9729 122.814 40.2577 126.775 50.0728C125.471 44.1369 120.554 36.7552 114.587 32.2651C120.594 18.9272 132.008 6.9638 139.41 7.18779C139.624 7.19798 139.98 7.2387 140.082 7.42197C140.856 8.52159 138.31 13.5513 137.995 14.0197C137.506 14.7324 137.17 15.4145 137.17 15.4145C138.585 14.5389 146.018 6.79071 158.745 3.33914C164.579 1.78136 171.228 2.40243 171.859 4.60166C172.439 6.7398 168.672 9.90629 167.053 11.3419C171.645 10.5477 175.769 10.4154 180.696 11.5252C188.17 13.2255 193.851 17.4814 193.586 20.6377C193.454 21.829 190.898 22.7453 189.738 23.0813C189.473 23.1628 181.979 24.3133 179.699 24.3031C177.408 24.2929 175.046 24.1096 172.846 23.6006C176.634 25.6369 183.211 26.4209 188.618 25.5249C194.167 30.3204 198.881 37.1218 200.805 44.6663C203.483 55.3367 201.62 66.0681 199.135 75.9952C199.726 76.2701 200.266 76.8199 200.724 77.4613C200.978 75.1908 206.028 59.9795 202.302 44.9921C203.778 41.0111 205.367 36.2054 205.662 32.1328C205.876 29.5364 205.468 27.551 205.132 26.8383ZM201.518 42.1922C200.703 39.6875 199.655 37.2541 198.331 34.892C199.543 32.4586 200.734 30.4528 202.373 28.3961C200.571 29.9233 199.023 31.8884 197.73 33.8535C196.783 32.2753 195.714 30.7277 194.523 29.2106C197.231 26.3089 202.933 24.4456 203.88 27.8768C204.98 32.0208 203.137 37.977 201.518 42.1922ZM112.47 50.6124C111.93 48.4437 115.697 48.0772 118.324 48.9935C116.145 46.1732 110.728 39.8504 106.289 36.2054C105.811 40.4104 108.753 46.275 112.968 47.6088C108.336 46.5703 104.518 40.1762 105.149 35.3196C103.734 34.2709 102.461 33.5786 101.504 33.4666V33.3546C103.927 33.1509 106.483 35.1771 108.265 36.5516C112.307 39.6366 116.563 44.1369 119.362 47.5783C121.348 50.0117 122.071 53.1273 121.898 53.9825C121.093 52.8116 120.452 51.7527 119.301 50.9382C118.13 50.1033 116.96 49.4008 115.514 49.1768C114.027 48.9528 112.347 49.1055 112.47 50.6124Z" fill="#2854A1"/>
<path d="M172.623 74.9263C172.786 74.9671 172.948 74.9976 173.111 75.0383C173.071 75.1096 173.03 75.1809 172.979 75.242C170.525 75.13 160.751 72.7984 154.53 75.4558C153.899 75.1402 153.206 74.9671 152.494 74.9263C150.539 72.5438 149.785 69.7541 149.205 67.5956C148.747 65.6305 148.187 63.472 148.238 60.275C148.584 45.7662 158.755 36.5213 168.326 50.5719C172.409 56.5485 176.573 68.909 172.623 74.9263Z" fill="url(#paint17_linear)"/>
<path d="M194.575 47.2117C191.795 47.2117 188.812 49.9403 187.04 52.3534C184.016 56.4973 182.407 61.4761 181.277 66.4448C180.738 68.8069 180.31 71.8207 180.982 74.1421C183.018 73.9283 185.218 74.5086 187.244 75.313C190.329 74.9057 193.353 74.6817 194.961 74.7224C200.694 64.6324 200.683 47.2422 194.575 47.2117Z" fill="url(#paint18_linear)"/>
<path d="M148.777 65.7015C145.652 49.8894 157.157 34.1385 168.336 50.5716C170.861 54.2675 172.256 57.9838 173.274 61.9139C174.272 66.1189 174.995 71.3014 172.623 74.9158C173.142 75.0278 173.661 75.1602 174.17 75.3231C178.09 69.0716 174.975 58.8492 171.218 52.4959C164.579 41.2859 154.54 38.5064 149.337 50.8058C146.334 57.9125 146.028 69.6927 151.211 75.8831C151.649 75.5471 152.137 75.2824 152.657 75.0991C150.396 72.5028 149.5 69.0105 148.777 65.7015Z" fill="#2854A1"/>
<path d="M190.146 48.1078C182.469 53.2495 177.602 67.7278 179.486 74.3051C179.985 74.1727 180.504 74.1422 181.003 74.2236C180.3 71.8921 180.728 68.8376 181.278 66.4551C182.408 61.4864 184.016 56.5076 187.04 52.3637C188.812 49.9405 191.795 47.222 194.575 47.222C200.745 47.2525 200.694 64.9686 194.789 75.0178C195.308 75.1298 195.817 75.3029 196.316 75.5167C202.486 64.6937 202.14 40.044 190.146 48.1078Z" fill="#2854A1"/>
<path d="M158.42 75.356C161.208 74.6858 162.761 71.1995 161.888 67.5691C161.016 63.9388 158.048 61.5391 155.26 62.2093C152.471 62.8795 150.918 66.3658 151.791 69.9962C152.663 73.6265 155.631 76.0262 158.42 75.356Z" fill="#2854A1"/>
<path d="M160.517 66.007C159.896 66.5874 158.929 67.5444 156.811 69.7233C155.314 69.204 153.807 68.6848 152.311 68.1757C152.29 65.7219 153.533 63.6347 155.487 63.1664C157.402 62.698 159.407 63.9096 160.517 66.007Z" fill="#366FD6"/>
<path d="M157.708 72.3962C159.239 72.0282 160.091 70.1122 159.611 68.1166C159.132 66.121 157.502 64.8015 155.971 65.1694C154.44 65.5374 153.588 67.4535 154.068 69.4491C154.547 71.4447 156.177 72.7641 157.708 72.3962Z" fill="#162F59"/>
<path d="M188.398 70.5713C189.061 67.5448 187.942 64.7285 185.899 64.2808C183.855 63.8332 181.661 65.9238 180.998 68.9502C180.335 71.9767 181.454 74.7931 183.498 75.2407C185.541 75.6884 187.735 73.5978 188.398 70.5713Z" fill="#2854A1"/>
<path d="M187.926 68.0331C186.837 68.7051 185.747 69.3669 184.617 69.9778C183.813 69.0614 183.059 68.1044 182.347 67.1168C184.169 64.0216 187.376 64.5409 187.926 68.0331Z" fill="#366FD6"/>
<path d="M186.448 70.1441C186.762 68.7106 186.233 67.3767 185.267 67.1649C184.3 66.9532 183.262 67.9436 182.948 69.3772C182.634 70.8108 183.163 72.1446 184.129 72.3564C185.096 72.5682 186.134 71.5777 186.448 70.1441Z" fill="#162F59"/>
<path d="M160.069 69.7643C160.957 69.7643 161.677 68.6338 161.677 67.2392C161.677 65.8446 160.957 64.7141 160.069 64.7141C159.18 64.7141 158.46 65.8446 158.46 67.2392C158.46 68.6338 159.18 69.7643 160.069 69.7643Z" fill="white"/>
<path d="M187.254 70.6295C188.036 70.6295 188.669 69.6951 188.669 68.5423C188.669 67.3896 188.036 66.4551 187.254 66.4551C186.472 66.4551 185.839 67.3896 185.839 68.5423C185.839 69.6951 186.472 70.6295 187.254 70.6295Z" fill="white"/>
<path d="M146.761 38.8018C145.927 40.1763 143.982 39.1785 144.44 37.6309C145.753 33.1102 152.188 31.0739 154.551 30.9924C158.969 30.8397 163.246 33.3546 164.773 37.5189L164.681 37.58C161.688 34.108 158.969 32.8048 154.876 33.1306C151.333 33.6091 148.584 35.8287 146.761 38.8018Z" fill="#2854A1"/>
<path d="M188.252 39.7182C191.032 34.1082 197.273 36.1343 198.434 38.7408C198.444 38.7612 198.454 38.7917 198.464 38.8121C198.668 39.423 197.925 39.9117 197.415 39.5146C194.962 37.6106 191.378 36.5925 188.252 39.7182Z" fill="#2854A1"/>
<path d="M193.618 92.8967C192.722 93.1411 191.673 93.2429 190.543 93.2429C187.774 93.2429 184.322 92.5912 181.746 91.7156C179.048 93.1105 176.055 94.3119 173.051 95.0857C172.562 95.2079 172.084 95.3199 171.595 95.4217C171.585 95.4217 171.575 95.4217 171.564 95.4319C171.442 95.4523 171.33 95.4828 171.208 95.5032C159.448 97.8144 150.366 91.8582 148.218 84.6801C146.732 79.5791 148.554 75.7814 153.91 74.58C159.102 73.4294 169.732 74.4272 175.82 75.2112C175.21 75.6083 175.026 76.0461 175.087 76.6367C172.888 76.1581 169.854 75.6389 165.781 75.2723C158.675 74.6818 149.328 74.8854 150.02 81.9515C150.641 88.875 158.379 94.1592 166.046 94.1898C167.512 94.1999 169.172 94.0167 170.954 93.6196C171.167 93.5687 171.371 93.5178 171.585 93.4669C171.717 93.4363 171.839 93.4058 171.972 93.365C172.012 93.3549 172.053 93.3447 172.094 93.3345C172.104 93.3345 172.124 93.3243 172.135 93.3243C175.077 92.52 178.284 91.1251 181.471 89.0175L182.113 89.2415C184.821 90.4938 188.456 91.3084 190.655 91.3898C190.767 91.4 191.867 91.4611 192.834 91.3084C197.029 90.6058 201.722 86.6452 201.804 81.9311C201.916 76.8403 198.067 75.8425 192.936 75.8018C191.928 75.8018 190.889 75.873 189.851 75.985C189.779 75.5065 189.688 75.1807 188.466 74.8141C194.799 74.4171 201.672 74.9974 202.812 80.19C204.135 86.1463 198.882 91.4815 193.618 92.8967Z" fill="#2854A1"/>
<path d="M201.814 81.9109C201.722 86.9813 196.204 91.5121 191.093 91.39C191.011 91.39 190.899 91.3798 190.899 91.3798C190.584 91.3696 189.871 91.3187 189.311 91.2474C189.26 91.2372 189.209 91.2372 189.158 91.227C186.766 90.9012 184.098 90.1376 182.123 89.2213L181.481 88.9973C178.295 91.0947 175.077 92.4896 172.145 93.3041C172.135 93.3041 172.114 93.3143 172.104 93.3143C172.063 93.3245 172.023 93.3346 171.982 93.3448C171.86 93.3754 171.727 93.4059 171.595 93.4466C171.381 93.4975 171.167 93.5485 170.964 93.5994C170.964 93.5994 170.964 93.5994 170.964 93.6095C169.182 94.0168 167.522 94.1899 166.056 94.1797C158.39 94.1492 150.662 88.8649 150.03 81.9414C149.338 74.8754 158.685 74.6718 165.792 75.2623C168.917 75.5474 172.074 75.975 175.098 76.6267C175.322 78.8259 179.109 82.2876 183.273 82.2876C187.214 82.2876 190.207 78.103 189.871 75.9547C190.91 75.8427 191.918 75.7714 192.956 75.7714C198.077 75.8223 201.916 76.8201 201.814 81.9109Z" fill="url(#paint19_linear)" stroke="black" stroke-miterlimit="10"/>
<path d="M190.217 93.2324C188.445 97.58 187.02 99.1378 185.849 100.197C184.871 101.083 184.189 101.581 182.876 101.571C181.888 101.561 180.86 101.195 179.964 100.838L180.005 100.747C180.341 100.889 180.677 101.001 181.033 101.072C181.644 101.195 182.245 101.194 182.835 101.062C183.487 100.909 184.047 100.706 185.156 99.4942C185.554 99.0564 185.971 98.6389 186.582 97.6106C187.335 96.3277 188.018 94.6986 188.557 93.1306C189.117 93.1917 189.677 93.2223 190.217 93.2324Z" fill="#2854A1"/>
<path d="M189.147 91.2271C189.362 91.2577 189.342 91.2577 189.147 91.2271V91.2271Z" fill="#2854A1"/>
<path d="M188.547 93.1411C187.956 94.8821 187.03 97.1323 185.93 98.5985C185.696 98.9141 185.553 99.0566 185.36 99.2705C185.065 99.5963 184.729 99.973 184.311 100.319C184.016 100.564 183.741 100.747 183.385 100.9C183.161 100.991 182.713 101.113 182.244 101.154C181.47 101.215 180.727 101.042 180.004 100.747C179.974 100.737 179.882 100.696 179.831 100.676L179.801 100.696C178.691 101.653 177.133 101.897 175.881 101.439C174.944 101.083 174.221 100.37 173.865 99.6064C173.702 99.2603 173.641 99.0159 173.58 98.7308C173.315 97.5396 173.142 96.3076 173.04 95.0756C175.789 94.3731 178.487 93.3142 181.002 92.072C180.982 94.4749 180.758 96.5723 180.289 98.9548L180.391 98.9854C181.226 96.5621 181.766 94.3934 182.132 91.8276C183.934 92.4182 186.286 92.9374 188.547 93.1411Z" fill="#A6A6A7"/>
<path d="M188.333 93.7721C187.834 95.1364 187.244 96.5109 186.582 97.6207C186.378 97.9669 186.164 98.2927 185.93 98.5982C185.818 98.7509 185.696 98.9036 185.564 99.0462C185.503 99.1174 185.431 99.1989 185.36 99.2702L185.156 99.4942C184.882 99.7996 184.607 100.075 184.322 100.319C184.179 100.441 184.026 100.553 183.874 100.655C183.721 100.746 183.558 100.838 183.385 100.909C183.222 100.981 183.018 101.032 182.835 101.072C182.642 101.113 182.448 101.144 182.245 101.164C181.847 101.194 181.43 101.164 181.033 101.082C180.687 101.011 180.341 100.899 180.005 100.757C179.954 100.736 179.913 100.716 179.862 100.696L179.831 100.685C179.098 101.337 178.121 101.704 176.991 101.673C175.932 101.296 175.209 100.685 174.71 98.9342C174.425 97.9364 174.303 96.8775 174.344 95.8491C174.354 95.6353 174.374 95.4113 174.394 95.1975C176.329 94.7495 179.271 93.5481 180.992 92.3467C180.962 94.6477 180.738 96.684 180.29 98.9851L180.391 99.0156C180.432 98.9036 180.473 98.7916 180.503 98.6694C180.493 98.7305 180.493 98.7814 180.483 98.8425C181.522 96.7859 182.581 94.6579 183.13 92.418C184.596 92.927 186.786 93.6601 188.333 93.7721Z" fill="white"/>
<path d="M183.262 82.2975C178.762 82.2975 174.72 78.2656 175.097 76.1478C175.636 73.1239 188.923 73.8875 189.717 75.4758C190.674 77.4103 187.528 82.2975 183.262 82.2975Z" fill="#162F59"/>
<path d="M183.935 79.5893C180.188 79.5893 176.818 77.1457 177.134 75.8628C177.582 74.0301 188.649 74.4883 189.311 75.4556C190.115 76.6265 187.489 79.5893 183.935 79.5893Z" fill="#2854A1"/>
<path d="M182.133 91.8379C181.776 94.4037 181.237 96.5723 180.392 98.9955L180.29 98.965C180.758 96.5825 180.982 94.4851 181.003 92.0823C181.247 91.9601 181.502 91.8379 181.746 91.7056C181.868 91.7565 182 91.7972 182.133 91.8379Z" fill="#2854A1"/>
<path d="M179.108 101.398C177.561 103.516 175.219 105.868 172.602 105.868C167.97 105.868 165.679 100.166 163.887 95.9412C164.416 95.9921 164.935 96.0226 165.465 96.0328C166.748 100.126 169.171 104.402 173.488 104.402C175.341 104.402 176.736 103.211 177.632 102.091C178.528 101.796 178.935 101.47 179.108 101.398Z" fill="#2854A1"/>
<path d="M176.767 107.568C175.046 109.961 171.208 111.651 168.184 110.979C167.145 110.755 166.402 110.297 165.598 109.635C163.164 107.629 161.566 104.188 162.248 101.062C162.503 102.793 163.032 104.331 164.01 105.817C164.875 107.131 165.924 108.22 167.217 109.096C169.599 110.643 173.947 109.564 176.767 107.568Z" fill="#2854A1"/>
<path d="M171.971 93.355C171.839 93.3855 171.716 93.4263 171.584 93.4568C171.716 93.4263 171.839 93.3855 171.971 93.355Z" fill="#2854A1"/>
<path d="M180.005 100.757L179.964 100.849C179.923 100.838 179.893 100.818 179.852 100.808C179.608 101.032 179.333 101.236 179.048 101.419C178.722 101.633 178.366 101.816 177.989 101.958C177.225 102.254 176.472 102.417 175.678 102.315C174.497 102.182 173.356 101.49 172.623 100.309C172.379 99.9119 172.247 99.5963 172.104 99.1585C171.941 98.6698 171.799 98.1811 171.666 97.672C171.483 96.9593 171.33 96.2262 171.208 95.4931C171.33 95.4728 171.442 95.4422 171.564 95.4219C171.575 95.4219 171.585 95.4219 171.595 95.4117C172.084 95.3099 172.572 95.1979 173.051 95.0757C173.234 97.2342 173.591 98.8327 173.703 99.1891C173.835 99.6167 174.059 100.014 174.364 100.36C175.026 101.134 175.953 101.592 176.849 101.643C177.185 101.663 177.541 101.653 177.887 101.592C178.58 101.47 179.251 101.164 179.801 100.686L179.832 100.665C179.883 100.696 179.974 100.737 180.005 100.757Z" fill="#2854A1"/>
<path d="M171.584 93.4565C171.371 93.5176 171.157 93.5685 170.953 93.6093C170.953 93.6093 170.953 93.6093 170.953 93.5991C171.157 93.5584 171.371 93.5075 171.584 93.4565Z" fill="#2854A1"/>
<path d="M177.633 102.081C176.574 103.404 175.169 104.392 173.489 104.392C170.292 104.392 168.123 102.04 166.708 99.1687C166.453 98.6495 166.219 98.1098 166.005 97.5702C165.761 96.939 165.517 96.2161 165.445 95.9717C166.637 96.1957 169.681 95.7986 171.208 95.4932C171.208 95.5033 171.208 95.5237 171.218 95.5339C171.34 96.2568 171.493 96.9695 171.676 97.672C171.819 98.232 172.114 99.24 172.328 99.7389C172.583 100.309 172.969 100.849 173.448 101.287C174.497 102.244 175.973 102.641 177.633 102.081Z" fill="#331B19"/>
<path d="M172.45 104.31C169.192 103.75 167.186 100.625 166.005 97.5803C169.273 98.0385 171.676 101.083 172.45 104.31Z" fill="#B7434A"/>
<defs>
<linearGradient id="paint0_linear" x1="225.369" y1="45.8922" x2="225.369" y2="145.217" gradientUnits="userSpaceOnUse">
<stop stop-color="#81AAC9"/>
<stop offset="0.027913" stop-color="#CECED7"/>
<stop offset="1" stop-color="#81AAC9"/>
</linearGradient>
<linearGradient id="paint1_linear" x1="212.275" y1="111.366" x2="223.912" y2="121.131" gradientUnits="userSpaceOnUse">
<stop stop-color="#4E7694"/>
<stop offset="0.1204" stop-color="#527997"/>
<stop offset="0.1745" stop-color="#567D9A"/>
<stop offset="0.2469" stop-color="#5B819E"/>
<stop offset="0.3334" stop-color="#6A8DA9"/>
<stop offset="0.3659" stop-color="#7193AE"/>
<stop offset="0.4894" stop-color="#7A9BB5"/>
<stop offset="0.5908" stop-color="#85A4BD"/>
<stop offset="1" stop-color="#95B3CD"/>
</linearGradient>
<linearGradient id="paint2_linear" x1="17.9336" y1="211.858" x2="39.9792" y2="86.8312" gradientUnits="userSpaceOnUse">
<stop offset="0.2341" stop-color="white"/>
<stop offset="0.4908" stop-color="#B9B9C1"/>
<stop offset="0.7715" stop-color="white"/>
</linearGradient>
<linearGradient id="paint3_linear" x1="31.366" y1="123.701" x2="31.366" y2="177.423" gradientUnits="userSpaceOnUse">
<stop offset="0.1448" stop-color="#2496ED"/>
<stop offset="0.1664" stop-color="#258EE3"/>
<stop offset="0.2721" stop-color="#2768B9"/>
<stop offset="0.3676" stop-color="#294D9A"/>
<stop offset="0.4485" stop-color="#2A3D88"/>
<stop offset="0.5055" stop-color="#2A3781"/>
<stop offset="0.5554" stop-color="#293F8A"/>
<stop offset="0.6373" stop-color="#2855A3"/>
<stop offset="0.7404" stop-color="#2678CB"/>
<stop offset="0.8172" stop-color="#2496ED"/>
</linearGradient>
<linearGradient id="paint4_linear" x1="25.3247" y1="137.364" x2="54.8672" y2="120.308" gradientUnits="userSpaceOnUse">
<stop stop-color="#089ED6"/>
<stop offset="0.5055" stop-color="#2496ED"/>
<stop offset="1" stop-color="#2A3781"/>
</linearGradient>
<linearGradient id="paint5_linear" x1="69.851" y1="222.418" x2="119.854" y2="222.418" gradientUnits="userSpaceOnUse">
<stop stop-color="#089ED6"/>
<stop offset="0.5055" stop-color="#2496ED"/>
<stop offset="1" stop-color="#2A3781"/>
</linearGradient>
<radialGradient id="paint6_radial" cx="0" cy="0" r="1" gradientUnits="userSpaceOnUse" gradientTransform="translate(112.303 164.669) scale(43.9888)">
<stop stop-color="#089ED6"/>
<stop offset="0.5209" stop-color="#2496ED"/>
<stop offset="1" stop-color="#2A3781"/>
</radialGradient>
<linearGradient id="paint7_linear" x1="241.159" y1="120.104" x2="256.343" y2="120.104" gradientUnits="userSpaceOnUse">
<stop stop-color="#089ED6"/>
<stop offset="0.5055" stop-color="#2496ED"/>
<stop offset="1" stop-color="#2A3781"/>
</linearGradient>
<linearGradient id="paint8_linear" x1="234.856" y1="125.737" x2="252.758" y2="125.737" gradientUnits="userSpaceOnUse">
<stop stop-color="#089ED6"/>
<stop offset="0.5055" stop-color="#2496ED"/>
<stop offset="1" stop-color="#2A3781"/>
</linearGradient>
<linearGradient id="paint9_linear" x1="226.347" y1="138.317" x2="246.347" y2="138.317" gradientUnits="userSpaceOnUse">
<stop stop-color="#089ED6"/>
<stop offset="0.5055" stop-color="#2496ED"/>
<stop offset="1" stop-color="#2A3781"/>
</linearGradient>
<radialGradient id="paint10_radial" cx="0" cy="0" r="1" gradientUnits="userSpaceOnUse" gradientTransform="translate(224.166 133.987) scale(6.19458 6.19441)">
<stop stop-color="#2496ED"/>
<stop offset="0.3752" stop-color="#2581D5"/>
<stop offset="0.7156" stop-color="#276ABB"/>
<stop offset="0.864" stop-color="#2855A3"/>
<stop offset="1" stop-color="#2A3781"/>
</radialGradient>
<linearGradient id="paint11_linear" x1="236.236" y1="81.3622" x2="248.279" y2="81.3622" gradientUnits="userSpaceOnUse">
<stop stop-color="#089ED6"/>
<stop offset="0.5055" stop-color="#2496ED"/>
<stop offset="1" stop-color="#2A3781"/>
</linearGradient>
<linearGradient id="paint12_linear" x1="237.123" y1="51.0288" x2="239.971" y2="51.0288" gradientUnits="userSpaceOnUse">
<stop stop-color="#4E7694"/>
<stop offset="0.1204" stop-color="#527997"/>
<stop offset="0.1745" stop-color="#567D9A"/>
<stop offset="0.2469" stop-color="#5B819E"/>
<stop offset="0.3334" stop-color="#6A8DA9"/>
<stop offset="0.3659" stop-color="#7193AE"/>
<stop offset="0.4894" stop-color="#7A9BB5"/>
<stop offset="0.5908" stop-color="#85A4BD"/>
<stop offset="1" stop-color="#95B3CD"/>
</linearGradient>
<linearGradient id="paint13_linear" x1="234.466" y1="75.7706" x2="237.629" y2="76.1031" gradientUnits="userSpaceOnUse">
<stop stop-color="#4E7694"/>
<stop offset="0.1204" stop-color="#527997"/>
<stop offset="0.1745" stop-color="#567D9A"/>
<stop offset="0.2469" stop-color="#5B819E"/>
<stop offset="0.3334" stop-color="#6A8DA9"/>
<stop offset="0.3659" stop-color="#7193AE"/>
<stop offset="0.4894" stop-color="#7A9BB5"/>
<stop offset="0.5908" stop-color="#85A4BD"/>
<stop offset="1" stop-color="#95B3CD"/>
</linearGradient>
<linearGradient id="paint14_linear" x1="218.635" y1="44.1547" x2="218.635" y2="146.982" gradientUnits="userSpaceOnUse">
<stop stop-color="#089ED6"/>
<stop offset="0.5055" stop-color="#2496ED"/>
<stop offset="1" stop-color="#2A3781"/>
</linearGradient>
<linearGradient id="paint15_linear" x1="110.096" y1="178.245" x2="61.7229" y2="178.245" gradientUnits="userSpaceOnUse">
<stop stop-color="#089ED6"/>
<stop offset="0.5055" stop-color="#2496ED"/>
<stop offset="1" stop-color="#2A3781"/>
</linearGradient>
<radialGradient id="paint16_radial" cx="0" cy="0" r="1" gradientUnits="userSpaceOnUse" gradientTransform="translate(150.59 61.3852) scale(55.355)">
<stop stop-color="#089ED6"/>
<stop offset="0.5055" stop-color="#2496ED"/>
<stop offset="1" stop-color="#2A3781"/>
</radialGradient>
<linearGradient id="paint17_linear" x1="148.085" y1="56.3388" x2="176.198" y2="66.5709" gradientUnits="userSpaceOnUse">
<stop stop-color="white"/>
<stop offset="0.6942" stop-color="white"/>
<stop offset="1" stop-color="#B9B9C1"/>
</linearGradient>
<linearGradient id="paint18_linear" x1="183.468" y1="59.0179" x2="199.01" y2="64.6746" gradientUnits="userSpaceOnUse">
<stop stop-color="white"/>
<stop offset="0.6942" stop-color="white"/>
<stop offset="1" stop-color="#B9B9C1"/>
</linearGradient>
<linearGradient id="paint19_linear" x1="149.984" y1="84.6184" x2="201.812" y2="84.6184" gradientUnits="userSpaceOnUse">
<stop stop-color="#B9B9C1"/>
<stop offset="0.1981" stop-color="white"/>
<stop offset="0.548" stop-color="white"/>
<stop offset="0.6325" stop-color="#B9B9C1"/>
<stop offset="0.7147" stop-color="white"/>
<stop offset="0.9086" stop-color="white"/>
<stop offset="1" stop-color="#B9B9C1"/>
</linearGradient>
</defs>
</svg>
