<svg width="420" height="471" viewBox="0 0 420 471" fill="none" xmlns="http://www.w3.org/2000/svg">
<path d="M322 363V317C322 313.134 318.866 310 315 310H100C96.134 310 93 313.134 93 317V363" stroke="#EBECE9" stroke-width="2"/>
<line x1="208" y1="281" x2="208" y2="310" stroke="#EBECE9" stroke-width="2"/>
<g filter="url(#filter0_d)">
<path d="M407 428C407 444.569 393.569 458 377 458L247 458C230.431 458 217 444.569 217 428L217 398L407 398L407 428Z" fill="#9FEFDE"/>
</g>
<path d="M274.438 421.136C275.11 421.136 275.654 420.592 275.654 419.92C275.654 419.248 275.11 418.704 274.438 418.704C273.782 418.704 273.222 419.248 273.222 419.92C273.222 420.592 273.782 421.136 274.438 421.136ZM273.43 430H275.462V422.272H273.43V430ZM287.061 430H289.109V424.416C289.109 422.832 288.261 422.08 286.837 422.08C285.653 422.08 284.629 422.784 284.181 423.488C283.893 422.608 283.173 422.08 282.037 422.08C280.853 422.08 279.829 422.816 279.509 423.28V422.272H277.477V430H279.509V424.8C279.813 424.368 280.405 423.888 281.109 423.888C281.941 423.888 282.261 424.4 282.261 425.12V430H284.309V424.784C284.597 424.368 285.189 423.888 285.909 423.888C286.741 423.888 287.061 424.4 287.061 425.12V430ZM300.686 430H302.734V424.416C302.734 422.832 301.886 422.08 300.462 422.08C299.278 422.08 298.254 422.784 297.806 423.488C297.518 422.608 296.798 422.08 295.662 422.08C294.478 422.08 293.454 422.816 293.134 423.28V422.272H291.102V430H293.134V424.8C293.438 424.368 294.03 423.888 294.734 423.888C295.566 423.888 295.886 424.4 295.886 425.12V430H297.934V424.784C298.222 424.368 298.814 423.888 299.534 423.888C300.366 423.888 300.686 424.4 300.686 425.12V430ZM309.943 430H311.975V422.272H309.943V427.504C309.591 427.952 308.967 428.384 308.183 428.384C307.319 428.384 306.759 428.032 306.759 426.96V422.272H304.727V427.76C304.727 429.264 305.527 430.192 307.223 430.192C308.487 430.192 309.415 429.616 309.943 429.024V430ZM313.496 426.128C313.496 428.512 315.208 430.192 317.592 430.192C319.176 430.192 320.136 429.504 320.648 428.784L319.32 427.552C318.952 428.064 318.392 428.384 317.688 428.384C316.456 428.384 315.592 427.472 315.592 426.128C315.592 424.784 316.456 423.888 317.688 423.888C318.392 423.888 318.952 424.176 319.32 424.72L320.648 423.472C320.136 422.768 319.176 422.08 317.592 422.08C315.208 422.08 313.496 423.76 313.496 426.128ZM321.977 430H324.009V419.328H321.977V430ZM327.032 421.136C327.704 421.136 328.248 420.592 328.248 419.92C328.248 419.248 327.704 418.704 327.032 418.704C326.376 418.704 325.816 419.248 325.816 419.92C325.816 420.592 326.376 421.136 327.032 421.136ZM326.024 430H328.056V422.272H326.024V430ZM329.575 426.128C329.575 428.608 331.351 430.192 333.703 430.192C334.903 430.192 336.119 429.824 336.887 429.12L335.991 427.808C335.495 428.288 334.647 428.576 333.927 428.576C332.615 428.576 331.831 427.76 331.703 426.784H337.447V426.336C337.447 423.808 335.879 422.08 333.575 422.08C331.223 422.08 329.575 423.888 329.575 426.128ZM333.575 423.696C334.919 423.696 335.431 424.672 335.479 425.408H331.671C331.767 424.64 332.311 423.696 333.575 423.696ZM344.13 430H346.162V424.544C346.162 423.04 345.346 422.08 343.65 422.08C342.386 422.08 341.442 422.688 340.946 423.28V422.272H338.914V430H340.946V424.8C341.282 424.336 341.906 423.888 342.706 423.888C343.57 423.888 344.13 424.256 344.13 425.328V430ZM350.772 430.192C351.62 430.192 352.164 429.968 352.468 429.696L352.036 428.16C351.924 428.272 351.636 428.384 351.332 428.384C350.884 428.384 350.628 428.016 350.628 427.536V424.048H352.196V422.272H350.628V420.16H348.58V422.272H347.3V424.048H348.58V428.08C348.58 429.456 349.348 430.192 350.772 430.192Z" fill="#244583"/>
<g filter="url(#filter1_d)">
<path d="M217 363C217 346.431 230.431 333 247 333H377C393.569 333 407 346.431 407 363V393H217V363Z" fill="#9FEFDE"/>
</g>
<path d="M252.056 368H258.84V366H254.328V357.328H252.056V368ZM264.914 368H266.946V363.008C266.946 360.784 265.33 360.08 263.57 360.08C262.354 360.08 261.138 360.464 260.194 361.296L260.962 362.656C261.618 362.048 262.386 361.744 263.218 361.744C264.242 361.744 264.914 362.256 264.914 363.04V364.112C264.402 363.488 263.49 363.168 262.466 363.168C261.234 363.168 259.778 363.824 259.778 365.632C259.778 367.36 261.234 368.192 262.466 368.192C263.474 368.192 264.386 367.824 264.914 367.2V368ZM264.914 366.144C264.578 366.592 263.938 366.816 263.282 366.816C262.482 366.816 261.826 366.4 261.826 365.68C261.826 364.928 262.482 364.512 263.282 364.512C263.938 364.512 264.578 364.736 264.914 365.184V366.144ZM274.177 368H276.209V362.544C276.209 361.04 275.393 360.08 273.697 360.08C272.433 360.08 271.489 360.688 270.993 361.28V360.272H268.961V368H270.993V362.8C271.329 362.336 271.953 361.888 272.753 361.888C273.617 361.888 274.177 362.256 274.177 363.328V368ZM278.067 369.984C279.043 370.832 280.067 371.136 281.395 371.136C283.299 371.136 285.571 370.416 285.571 367.472V360.272H283.523V361.264C282.899 360.48 282.067 360.08 281.139 360.08C279.187 360.08 277.731 361.488 277.731 364.016C277.731 366.592 279.203 367.952 281.139 367.952C282.083 367.952 282.915 367.504 283.523 366.736V367.52C283.523 369.04 282.371 369.472 281.395 369.472C280.419 369.472 279.603 369.2 278.979 368.512L278.067 369.984ZM283.523 365.264C283.187 365.76 282.451 366.144 281.779 366.144C280.627 366.144 279.827 365.344 279.827 364.016C279.827 362.688 280.627 361.888 281.779 361.888C282.451 361.888 283.187 362.256 283.523 362.768V365.264ZM292.802 368H294.834V360.272H292.802V365.504C292.45 365.952 291.826 366.384 291.042 366.384C290.178 366.384 289.618 366.032 289.618 364.96V360.272H287.586V365.76C287.586 367.264 288.386 368.192 290.082 368.192C291.346 368.192 292.274 367.616 292.802 367.024V368ZM301.492 368H303.524V363.008C303.524 360.784 301.908 360.08 300.148 360.08C298.932 360.08 297.716 360.464 296.772 361.296L297.54 362.656C298.196 362.048 298.964 361.744 299.796 361.744C300.82 361.744 301.492 362.256 301.492 363.04V364.112C300.98 363.488 300.068 363.168 299.044 363.168C297.812 363.168 296.356 363.824 296.356 365.632C296.356 367.36 297.812 368.192 299.044 368.192C300.052 368.192 300.964 367.824 301.492 367.2V368ZM301.492 366.144C301.156 366.592 300.516 366.816 299.86 366.816C299.06 366.816 298.404 366.4 298.404 365.68C298.404 364.928 299.06 364.512 299.86 364.512C300.516 364.512 301.156 364.736 301.492 365.184V366.144ZM305.379 369.984C306.355 370.832 307.379 371.136 308.707 371.136C310.611 371.136 312.883 370.416 312.883 367.472V360.272H310.835V361.264C310.211 360.48 309.379 360.08 308.451 360.08C306.499 360.08 305.043 361.488 305.043 364.016C305.043 366.592 306.515 367.952 308.451 367.952C309.395 367.952 310.227 367.504 310.835 366.736V367.52C310.835 369.04 309.683 369.472 308.707 369.472C307.731 369.472 306.915 369.2 306.291 368.512L305.379 369.984ZM310.835 365.264C310.499 365.76 309.763 366.144 309.091 366.144C307.939 366.144 307.139 365.344 307.139 364.016C307.139 362.688 307.939 361.888 309.091 361.888C309.763 361.888 310.499 362.256 310.835 362.768V365.264ZM314.403 364.128C314.403 366.608 316.179 368.192 318.531 368.192C319.731 368.192 320.947 367.824 321.715 367.12L320.819 365.808C320.323 366.288 319.475 366.576 318.755 366.576C317.443 366.576 316.659 365.76 316.531 364.784H322.275V364.336C322.275 361.808 320.707 360.08 318.403 360.08C316.051 360.08 314.403 361.888 314.403 364.128ZM318.403 361.696C319.747 361.696 320.259 362.672 320.307 363.408H316.499C316.595 362.64 317.139 361.696 318.403 361.696ZM327.148 366.496C328.156 367.504 329.628 368.192 331.676 368.192C334.556 368.192 335.948 366.72 335.948 364.768C335.948 362.4 333.708 361.872 331.948 361.472C330.716 361.184 329.82 360.96 329.82 360.24C329.82 359.6 330.364 359.152 331.388 359.152C332.428 359.152 333.58 359.52 334.444 360.32L335.708 358.656C334.652 357.68 333.244 357.168 331.548 357.168C329.036 357.168 327.5 358.608 327.5 360.384C327.5 362.768 329.74 363.248 331.484 363.648C332.716 363.936 333.644 364.208 333.644 365.008C333.644 365.616 333.036 366.208 331.788 366.208C330.316 366.208 329.148 365.552 328.396 364.768L327.148 366.496ZM337.478 368H341.686C345.03 368 347.35 365.888 347.35 362.672C347.35 359.456 345.03 357.328 341.686 357.328H337.478V368ZM339.75 366V359.328H341.686C343.878 359.328 345.03 360.784 345.03 362.672C345.03 364.48 343.798 366 341.686 366H339.75ZM355.298 368H358.098L353.57 362.336L357.81 357.328H355.01L351.234 362.096V357.328H348.962V368H351.234V364.72L352.066 363.728L355.298 368Z" fill="#244583"/>
<g filter="url(#filter2_d)">
<path d="M197 428C197 444.569 183.569 458 167 458L37 458C20.4315 458 7 444.569 7 428L6.99999 398L197 398L197 428Z" fill="#24C4A1"/>
</g>
<path d="M51.1966 425.744C51.1966 428.368 52.7166 430.192 55.9806 430.192C59.2126 430.192 60.7326 428.384 60.7326 425.728V419.328H58.4286V425.664C58.4286 427.152 57.6126 428.176 55.9806 428.176C54.3166 428.176 53.5006 427.152 53.5006 425.664V419.328H51.1966V425.744ZM62.1173 428.992C62.9333 429.744 64.2293 430.192 65.5733 430.192C67.7173 430.192 68.9173 429.12 68.9173 427.712C68.9173 425.792 67.1413 425.44 65.8133 425.184C64.9493 425.008 64.3413 424.832 64.3413 424.352C64.3413 423.904 64.8213 423.632 65.5573 423.632C66.5013 423.632 67.3813 424.032 67.8453 424.528L68.6613 423.136C67.8933 422.528 66.8533 422.08 65.5413 422.08C63.5093 422.08 62.3733 423.216 62.3733 424.512C62.3733 426.352 64.0853 426.672 65.4133 426.928C66.2933 427.104 66.9653 427.296 66.9653 427.84C66.9653 428.32 66.5493 428.624 65.6693 428.624C64.7093 428.624 63.5573 428.096 62.9973 427.568L62.1173 428.992ZM69.9183 426.128C69.9183 428.608 71.6943 430.192 74.0463 430.192C75.2463 430.192 76.4623 429.824 77.2303 429.12L76.3343 427.808C75.8383 428.288 74.9903 428.576 74.2703 428.576C72.9583 428.576 72.1743 427.76 72.0463 426.784H77.7903V426.336C77.7903 423.808 76.2223 422.08 73.9183 422.08C71.5663 422.08 69.9183 423.888 69.9183 426.128ZM73.9183 423.696C75.2623 423.696 75.7743 424.672 75.8223 425.408H72.0143C72.1103 424.64 72.6543 423.696 73.9183 423.696ZM79.258 430H81.29V424.896C81.626 424.4 82.522 424.016 83.194 424.016C83.418 424.016 83.61 424.048 83.754 424.08V422.096C82.794 422.096 81.834 422.64 81.29 423.328V422.272H79.258V430ZM91.1494 432.944V429.008C91.7734 429.808 92.6214 430.192 93.5334 430.192C95.5174 430.192 96.9574 428.704 96.9574 426.128C96.9574 423.552 95.5174 422.08 93.5334 422.08C92.5894 422.08 91.7414 422.496 91.1494 423.248V422.272H89.1174V432.944H91.1494ZM94.8454 426.128C94.8454 427.472 94.0614 428.384 92.8934 428.384C92.2374 428.384 91.4854 427.984 91.1494 427.504V424.768C91.4854 424.272 92.2374 423.888 92.8934 423.888C94.0614 423.888 94.8454 424.8 94.8454 426.128ZM98.4768 430H100.509V424.896C100.845 424.4 101.741 424.016 102.413 424.016C102.637 424.016 102.829 424.048 102.973 424.08V422.096C102.013 422.096 101.053 422.64 100.509 423.328V422.272H98.4768V430ZM107.826 430.192C110.386 430.192 111.922 428.336 111.922 426.128C111.922 423.936 110.386 422.08 107.826 422.08C105.282 422.08 103.746 423.936 103.746 426.128C103.746 428.336 105.282 430.192 107.826 430.192ZM107.826 428.384C106.562 428.384 105.858 427.344 105.858 426.128C105.858 424.928 106.562 423.888 107.826 423.888C109.09 423.888 109.81 424.928 109.81 426.128C109.81 427.344 109.09 428.384 107.826 428.384ZM113.27 431.984C114.246 432.832 115.27 433.136 116.598 433.136C118.502 433.136 120.774 432.416 120.774 429.472V422.272H118.726V423.264C118.102 422.48 117.27 422.08 116.342 422.08C114.39 422.08 112.934 423.488 112.934 426.016C112.934 428.592 114.406 429.952 116.342 429.952C117.286 429.952 118.118 429.504 118.726 428.736V429.52C118.726 431.04 117.574 431.472 116.598 431.472C115.622 431.472 114.806 431.2 114.182 430.512L113.27 431.984ZM118.726 427.264C118.39 427.76 117.654 428.144 116.982 428.144C115.83 428.144 115.03 427.344 115.03 426.016C115.03 424.688 115.83 423.888 116.982 423.888C117.654 423.888 118.39 424.256 118.726 424.768V427.264ZM122.789 430H124.821V424.896C125.157 424.4 126.053 424.016 126.725 424.016C126.949 424.016 127.141 424.048 127.285 424.08V422.096C126.325 422.096 125.365 422.64 124.821 423.328V422.272H122.789V430ZM133.195 430H135.227V425.008C135.227 422.784 133.611 422.08 131.851 422.08C130.635 422.08 129.419 422.464 128.475 423.296L129.243 424.656C129.899 424.048 130.667 423.744 131.499 423.744C132.523 423.744 133.195 424.256 133.195 425.04V426.112C132.683 425.488 131.771 425.168 130.747 425.168C129.515 425.168 128.059 425.824 128.059 427.632C128.059 429.36 129.515 430.192 130.747 430.192C131.755 430.192 132.667 429.824 133.195 429.2V430ZM133.195 428.144C132.859 428.592 132.219 428.816 131.563 428.816C130.763 428.816 130.107 428.4 130.107 427.68C130.107 426.928 130.763 426.512 131.563 426.512C132.219 426.512 132.859 426.736 133.195 427.184V428.144ZM146.826 430H148.874V424.416C148.874 422.832 148.026 422.08 146.602 422.08C145.418 422.08 144.394 422.784 143.946 423.488C143.658 422.608 142.938 422.08 141.802 422.08C140.618 422.08 139.594 422.816 139.274 423.28V422.272H137.242V430H139.274V424.8C139.578 424.368 140.17 423.888 140.874 423.888C141.706 423.888 142.026 424.4 142.026 425.12V430H144.074V424.784C144.362 424.368 144.954 423.888 145.674 423.888C146.506 423.888 146.826 424.4 146.826 425.12V430Z" fill="#244583"/>
<g filter="url(#filter3_d)">
<path d="M7 363C7 346.431 20.4315 333 37 333H167C183.569 333 197 346.431 197 363V393H7V363Z" fill="#9FEFDE"/>
</g>
<path d="M42.056 368H48.84V366H44.328V357.328H42.056V368ZM54.9136 368H56.9456V363.008C56.9456 360.784 55.3296 360.08 53.5696 360.08C52.3536 360.08 51.1376 360.464 50.1936 361.296L50.9616 362.656C51.6176 362.048 52.3856 361.744 53.2176 361.744C54.2416 361.744 54.9136 362.256 54.9136 363.04V364.112C54.4016 363.488 53.4896 363.168 52.4656 363.168C51.2336 363.168 49.7776 363.824 49.7776 365.632C49.7776 367.36 51.2336 368.192 52.4656 368.192C53.4736 368.192 54.3856 367.824 54.9136 367.2V368ZM54.9136 366.144C54.5776 366.592 53.9376 366.816 53.2816 366.816C52.4816 366.816 51.8256 366.4 51.8256 365.68C51.8256 364.928 52.4816 364.512 53.2816 364.512C53.9376 364.512 54.5776 364.736 54.9136 365.184V366.144ZM64.1771 368H66.2091V362.544C66.2091 361.04 65.3931 360.08 63.6971 360.08C62.4331 360.08 61.4891 360.688 60.9931 361.28V360.272H58.9611V368H60.9931V362.8C61.3291 362.336 61.9531 361.888 62.7531 361.888C63.6171 361.888 64.1771 362.256 64.1771 363.328V368ZM68.0668 369.984C69.0428 370.832 70.0668 371.136 71.3948 371.136C73.2988 371.136 75.5708 370.416 75.5708 367.472V360.272H73.5228V361.264C72.8988 360.48 72.0668 360.08 71.1388 360.08C69.1868 360.08 67.7308 361.488 67.7308 364.016C67.7308 366.592 69.2028 367.952 71.1388 367.952C72.0828 367.952 72.9148 367.504 73.5228 366.736V367.52C73.5228 369.04 72.3708 369.472 71.3948 369.472C70.4188 369.472 69.6028 369.2 68.9788 368.512L68.0668 369.984ZM73.5228 365.264C73.1868 365.76 72.4508 366.144 71.7788 366.144C70.6268 366.144 69.8268 365.344 69.8268 364.016C69.8268 362.688 70.6268 361.888 71.7788 361.888C72.4508 361.888 73.1868 362.256 73.5228 362.768V365.264ZM82.8021 368H84.8341V360.272H82.8021V365.504C82.4501 365.952 81.8261 366.384 81.0421 366.384C80.1781 366.384 79.6181 366.032 79.6181 364.96V360.272H77.5861V365.76C77.5861 367.264 78.3861 368.192 80.0821 368.192C81.3461 368.192 82.2741 367.616 82.8021 367.024V368ZM91.4918 368H93.5238V363.008C93.5238 360.784 91.9078 360.08 90.1478 360.08C88.9318 360.08 87.7158 360.464 86.7718 361.296L87.5398 362.656C88.1957 362.048 88.9638 361.744 89.7958 361.744C90.8198 361.744 91.4918 362.256 91.4918 363.04V364.112C90.9798 363.488 90.0677 363.168 89.0438 363.168C87.8118 363.168 86.3558 363.824 86.3558 365.632C86.3558 367.36 87.8118 368.192 89.0438 368.192C90.0518 368.192 90.9638 367.824 91.4918 367.2V368ZM91.4918 366.144C91.1558 366.592 90.5158 366.816 89.8598 366.816C89.0598 366.816 88.4038 366.4 88.4038 365.68C88.4038 364.928 89.0598 364.512 89.8598 364.512C90.5158 364.512 91.1558 364.736 91.4918 365.184V366.144ZM95.3793 369.984C96.3553 370.832 97.3793 371.136 98.7073 371.136C100.611 371.136 102.883 370.416 102.883 367.472V360.272H100.835V361.264C100.211 360.48 99.3793 360.08 98.4513 360.08C96.4993 360.08 95.0433 361.488 95.0433 364.016C95.0433 366.592 96.5153 367.952 98.4513 367.952C99.3953 367.952 100.227 367.504 100.835 366.736V367.52C100.835 369.04 99.6833 369.472 98.7073 369.472C97.7313 369.472 96.9153 369.2 96.2913 368.512L95.3793 369.984ZM100.835 365.264C100.499 365.76 99.7633 366.144 99.0913 366.144C97.9393 366.144 97.1393 365.344 97.1393 364.016C97.1393 362.688 97.9393 361.888 99.0913 361.888C99.7633 361.888 100.499 362.256 100.835 362.768V365.264ZM104.403 364.128C104.403 366.608 106.179 368.192 108.531 368.192C109.731 368.192 110.947 367.824 111.715 367.12L110.819 365.808C110.323 366.288 109.475 366.576 108.755 366.576C107.443 366.576 106.659 365.76 106.531 364.784H112.275V364.336C112.275 361.808 110.707 360.08 108.403 360.08C106.051 360.08 104.403 361.888 104.403 364.128ZM108.403 361.696C109.747 361.696 110.259 362.672 110.307 363.408H106.499C106.595 362.64 107.139 361.696 108.403 361.696ZM117.148 366.496C118.156 367.504 119.628 368.192 121.676 368.192C124.556 368.192 125.948 366.72 125.948 364.768C125.948 362.4 123.708 361.872 121.948 361.472C120.716 361.184 119.82 360.96 119.82 360.24C119.82 359.6 120.364 359.152 121.388 359.152C122.428 359.152 123.58 359.52 124.444 360.32L125.708 358.656C124.652 357.68 123.244 357.168 121.548 357.168C119.036 357.168 117.5 358.608 117.5 360.384C117.5 362.768 119.74 363.248 121.484 363.648C122.716 363.936 123.644 364.208 123.644 365.008C123.644 365.616 123.036 366.208 121.788 366.208C120.316 366.208 119.148 365.552 118.396 364.768L117.148 366.496ZM127.478 368H131.686C135.03 368 137.35 365.888 137.35 362.672C137.35 359.456 135.03 357.328 131.686 357.328H127.478V368ZM129.75 366V359.328H131.686C133.878 359.328 135.03 360.784 135.03 362.672C135.03 364.48 133.798 366 131.686 366H129.75ZM145.298 368H148.098L143.57 362.336L147.81 357.328H145.01L141.234 362.096V357.328H138.962V368H141.234V364.72L142.066 363.728L145.298 368Z" fill="#244583"/>
<g filter="url(#filter4_d)">
<rect x="7" y="36" width="400" height="218" rx="30" fill="#9FEFDE"/>
</g>
<path d="M268.938 192.596C268.938 198.902 280.612 203.958 294.997 203.958C309.381 203.958 321.055 198.85 321.055 192.596V143.397C321.055 149.652 309.381 154.759 294.997 154.759C280.612 154.759 268.938 149.652 268.938 143.397V192.596Z" fill="#EBECE9"/>
<path d="M321.055 143.397V192.596C321.055 198.85 309.381 203.958 294.997 203.958C282.906 203.958 272.795 200.362 269.824 195.515C276.078 198.381 282.906 199.788 289.837 199.58C304.222 199.58 315.896 194.524 315.896 188.218V150.173C319.127 148.296 321.055 145.951 321.055 143.397Z" fill="#C1C1C1"/>
<path d="M294.997 154.759C309.388 154.759 321.055 149.672 321.055 143.397C321.055 137.123 309.388 132.036 294.997 132.036C280.605 132.036 268.938 137.123 268.938 143.397C268.938 149.672 280.605 154.759 294.997 154.759Z" fill="#EBECE9"/>
<path d="M294.997 131.046C279.883 131.046 268 136.466 268 143.345C268 150.225 279.831 155.645 294.997 155.645C310.111 155.645 321.993 150.225 321.993 143.345C321.993 136.466 310.111 131.046 294.997 131.046ZM295.049 154.081C281.29 154.081 269.668 149.182 269.668 143.397C269.668 137.612 281.29 132.713 295.049 132.713C308.808 132.713 320.43 137.612 320.43 143.397C320.43 149.182 308.808 154.081 295.049 154.081Z" fill="#22417D"/>
<path d="M320.221 133.756C320.795 133.756 321.212 133.287 321.212 132.713C321.212 132.401 321.055 132.088 320.795 131.932C320.221 131.515 319.648 131.098 319.023 130.733C318.554 130.42 317.928 130.577 317.616 131.098C317.303 131.567 317.459 132.192 317.98 132.505C318.554 132.87 319.075 133.235 319.596 133.599C319.804 133.704 320.013 133.756 320.221 133.756Z" fill="#244583"/>
<path d="M313.602 130.264C314.176 130.264 314.593 129.795 314.593 129.274C314.593 128.857 314.332 128.492 313.967 128.336C308.391 126.303 302.554 125.156 296.612 125C296.039 125 295.57 125.417 295.57 125.99C295.57 126.564 295.987 127.033 296.56 127.033C302.241 127.189 307.869 128.283 313.238 130.212C313.342 130.212 313.446 130.264 313.602 130.264Z" fill="#244583"/>
<path d="M321.889 143.085C321.889 142.668 321.524 142.303 321.107 142.303C320.691 142.303 320.326 142.668 320.326 143.085C320.326 148.87 308.704 153.821 294.945 153.821C281.186 153.821 269.564 148.922 269.564 143.085C269.564 142.668 269.199 142.303 268.782 142.303C268.365 142.303 268 142.668 268 143.085V192.752C268 199.632 279.831 205 294.892 205C309.954 205 321.785 199.632 321.785 192.752V143.085H321.889ZM320.378 192.752C320.378 198.538 308.756 203.489 294.997 203.489C281.238 203.489 269.616 198.59 269.616 192.752V147.202L270.085 147.723C274.15 152.309 283.948 155.332 294.997 155.332C306.046 155.332 315.844 152.362 319.909 147.723L320.378 147.202V192.752Z" fill="#244583"/>
<path d="M288.638 148.87C288.378 148.818 288.273 148.766 288.013 148.661C287.596 148.505 287.075 148.713 286.866 149.13C286.71 149.547 286.97 150.068 287.387 150.225H287.439C287.7 150.329 287.804 150.381 288.065 150.433C288.482 150.642 288.951 150.433 289.159 150.016C289.368 149.599 289.159 149.13 288.742 148.922C288.742 148.922 288.69 148.87 288.638 148.87Z" fill="white"/>
<path d="M302.814 148.661C299.375 150.016 295.57 150.381 291.974 149.6C291.505 149.495 291.088 149.808 290.984 150.277C290.932 150.746 291.244 151.163 291.713 151.215H291.765C295.674 151.997 299.739 151.684 303.44 150.173C303.909 150.069 304.169 149.6 304.013 149.13V149.078C303.752 148.714 303.231 148.505 302.814 148.661Z" fill="white"/>
<path d="M210.573 166.357C210.171 166.357 209.819 166.156 209.819 165.955V147.663C209.819 147.462 210.171 147.261 210.573 147.261C210.975 147.261 211.326 147.462 211.326 147.663V165.955C211.326 166.156 210.975 166.357 210.573 166.357Z" fill="#244583"/>
<path d="M136.703 166.357C136.301 166.357 135.95 166.156 135.95 165.955V147.663C135.95 147.462 136.301 147.261 136.703 147.261C137.105 147.261 137.457 147.462 137.457 147.663V165.955C137.457 166.156 137.105 166.357 136.703 166.357Z" fill="#244583"/>
<path d="M146.201 180.477H164.141C165.447 180.477 166.553 181.533 166.553 182.889V197.563C166.553 198.869 165.498 199.975 164.141 199.975H146.201C144.895 199.975 143.789 198.92 143.789 197.563V182.889C143.789 181.583 144.844 180.477 146.201 180.477Z" fill="#FED19A"/>
<path d="M109.166 180.477H127.106C128.412 180.477 129.518 181.533 129.518 182.889V197.563C129.518 198.869 128.462 199.975 127.106 199.975H109.166C107.859 199.975 106.754 198.92 106.754 197.563V182.889C106.754 181.583 107.859 180.477 109.166 180.477Z" fill="#9FEFDE"/>
<path d="M164.141 180.477H146.201C144.895 180.477 143.789 181.533 143.789 182.889V184.849H160.02C161.327 184.849 162.432 185.904 162.432 187.261V199.975H164.141C165.447 199.975 166.553 198.92 166.553 197.563V182.889C166.553 181.583 165.447 180.477 164.141 180.477Z" fill="#FEBF2D"/>
<path d="M127.106 180.477H109.166C107.859 180.477 106.754 181.533 106.754 182.889V184.849H122.985C124.292 184.849 125.397 185.904 125.397 187.261V199.975H127.106C128.412 199.975 129.518 198.92 129.518 197.563V182.889C129.518 181.583 128.462 180.477 127.106 180.477Z" fill="#24C4A1"/>
<path d="M155.146 181.281C154.744 181.281 154.392 180.93 154.392 180.528V170.276C154.392 168.317 152.784 166.709 150.824 166.709H122.483C120.523 166.709 118.915 168.317 118.915 170.276V180.477C118.915 180.879 118.563 181.231 118.161 181.231C117.759 181.231 117.407 180.879 117.407 180.477V170.226C117.407 167.412 119.719 165.101 122.533 165.101H150.875C153.689 165.101 156 167.412 156 170.226V180.477C155.95 180.93 155.598 181.281 155.146 181.281Z" fill="#244583"/>
<path d="M164.141 200.779H146.201C144.442 200.779 143.035 199.372 143.035 197.613V182.94C143.035 181.181 144.442 179.774 146.201 179.774H164.141C165.899 179.774 167.307 181.181 167.307 182.94V197.563C167.307 199.322 165.899 200.729 164.141 200.779ZM146.201 181.282C145.296 181.282 144.543 182.035 144.543 182.94V197.563C144.543 198.468 145.296 199.221 146.201 199.221H164.141C165.045 199.221 165.799 198.468 165.799 197.563V182.89C165.799 181.985 165.045 181.231 164.141 181.231L146.201 181.282Z" fill="#244583"/>
<path d="M127.106 200.779H109.166C107.407 200.779 106 199.372 106 197.613V182.94C106 181.181 107.407 179.774 109.166 179.774H127.106C128.864 179.774 130.271 181.181 130.271 182.94V197.563C130.271 199.322 128.864 200.729 127.106 200.779ZM109.166 181.282C108.261 181.282 107.508 182.035 107.508 182.94V197.563C107.508 198.468 108.261 199.221 109.166 199.221H127.106C128.01 199.221 128.764 198.468 128.764 197.563V182.89C128.764 181.985 128.01 181.231 127.106 181.231L109.166 181.282Z" fill="#244583"/>
<path d="M164.694 204.95C164.292 204.95 163.94 204.598 163.89 204.196C163.89 203.794 164.241 203.442 164.643 203.392C167.91 203.292 170.473 200.628 170.473 197.412V193.241C170.473 192.839 170.824 192.488 171.226 192.488C171.628 192.488 171.98 192.839 171.98 193.241V197.412C172.081 201.483 168.814 204.849 164.694 204.95Z" fill="#244583"/>
<path d="M161.528 205H156.402C156 205 155.648 204.648 155.648 204.246C155.648 203.844 156 203.492 156.402 203.492H161.528C161.93 203.492 162.282 203.844 162.282 204.246C162.332 204.648 161.98 205 161.528 205Z" fill="#244583"/>
<path d="M220.573 180.477H238.512C239.819 180.477 240.924 181.533 240.924 182.889V197.563C240.924 198.869 239.869 199.975 238.512 199.975H220.573C219.266 199.975 218.161 198.92 218.161 197.563V182.889C218.161 181.583 219.216 180.477 220.573 180.477Z" fill="#FED19A"/>
<path d="M183.538 180.477H201.477C202.784 180.477 203.889 181.533 203.889 182.889V197.563C203.889 198.869 202.834 199.975 201.477 199.975H183.538C182.231 199.975 181.125 198.92 181.125 197.563V182.889C181.125 181.583 182.231 180.477 183.538 180.477Z" fill="#9FEFDE"/>
<path d="M238.512 180.477H220.573C219.266 180.477 218.161 181.533 218.161 182.889V184.849H234.392C235.698 184.849 236.804 185.904 236.804 187.261V199.975H238.512C239.819 199.975 240.924 198.92 240.924 197.563V182.889C240.924 181.583 239.819 180.477 238.512 180.477Z" fill="#FEBF2D"/>
<path d="M201.477 180.477H183.538C182.231 180.477 181.125 181.533 181.125 182.889V184.849H197.357C198.663 184.849 199.769 185.904 199.769 187.261V199.975H201.477C202.784 199.975 203.889 198.92 203.889 197.563V182.889C203.889 181.583 202.834 180.477 201.477 180.477Z" fill="#24C4A1"/>
<path d="M229.518 181.281C229.116 181.281 228.764 180.93 228.764 180.528V170.276C228.764 168.317 227.156 166.709 225.196 166.709H196.855C194.895 166.709 193.287 168.317 193.287 170.276V180.477C193.287 180.879 192.935 181.231 192.533 181.231C192.131 181.231 191.779 180.879 191.779 180.477V170.226C191.779 167.412 194.091 165.101 196.905 165.101H225.247C228.061 165.101 230.372 167.412 230.372 170.226V180.477C230.322 180.93 229.97 181.281 229.518 181.281Z" fill="#244583"/>
<path d="M238.513 200.779H220.573C218.814 200.779 217.407 199.372 217.407 197.613V182.94C217.407 181.181 218.814 179.774 220.573 179.774H238.513C240.272 179.774 241.679 181.181 241.679 182.94V197.563C241.679 199.322 240.272 200.729 238.513 200.779ZM220.573 181.282C219.669 181.282 218.915 182.035 218.915 182.94V197.563C218.915 198.468 219.669 199.221 220.573 199.221H238.513C239.417 199.221 240.171 198.468 240.171 197.563V182.89C240.171 181.985 239.417 181.231 238.513 181.231L220.573 181.282Z" fill="#244583"/>
<path d="M201.478 200.779H183.538C181.779 200.779 180.372 199.372 180.372 197.613V182.94C180.372 181.181 181.779 179.774 183.538 179.774H201.478C203.236 179.774 204.643 181.181 204.643 182.94V197.563C204.643 199.322 203.236 200.729 201.478 200.779ZM183.538 181.282C182.633 181.282 181.88 182.035 181.88 182.94V197.563C181.88 198.468 182.633 199.221 183.538 199.221H201.478C202.382 199.221 203.136 198.468 203.136 197.563V182.89C203.136 181.985 202.382 181.231 201.478 181.231L183.538 181.282Z" fill="#244583"/>
<path d="M239.065 204.95C238.663 204.95 238.311 204.598 238.261 204.196C238.261 203.794 238.613 203.442 239.015 203.392C242.281 203.292 244.844 200.628 244.844 197.412V193.241C244.844 192.839 245.196 192.488 245.598 192.488C246 192.488 246.352 192.839 246.352 193.241V197.412C246.452 201.483 243.186 204.849 239.065 204.95Z" fill="#244583"/>
<path d="M235.899 205H230.774C230.372 205 230.02 204.648 230.02 204.246C230.02 203.844 230.372 203.492 230.774 203.492H235.899C236.301 203.492 236.653 203.844 236.653 204.246C236.703 204.648 236.352 205 235.899 205Z" fill="#244583"/>
<path d="M201.477 133.241H219.417C220.724 133.241 221.829 134.296 221.829 135.653V150.327C221.829 151.633 220.774 152.739 219.417 152.739H201.477C200.171 152.739 199.065 151.683 199.065 150.327V135.653C199.065 134.347 200.121 133.241 201.477 133.241Z" fill="#FED19A"/>
<path d="M127.759 133.241H145.698C147.005 133.241 148.11 134.296 148.11 135.653V150.327C148.11 151.633 147.055 152.739 145.698 152.739H127.759C126.452 152.739 125.347 151.683 125.347 150.327V135.653C125.347 134.347 126.452 133.241 127.759 133.241Z" fill="#9FEFDE"/>
<path d="M219.417 133.241H201.477C200.171 133.241 199.065 134.296 199.065 135.653V137.613H215.297C216.603 137.613 217.709 138.668 217.709 140.025V152.739H219.417C220.724 152.739 221.829 151.683 221.829 150.327V135.653C221.829 134.347 220.724 133.241 219.417 133.241Z" fill="#FEBF2D"/>
<path d="M145.698 133.241H127.759C126.452 133.241 125.347 134.296 125.347 135.653V137.613H141.578C142.884 137.613 143.99 138.668 143.99 140.025V152.739H145.698C147.005 152.739 148.11 151.683 148.11 150.327V135.653C148.11 134.347 147.055 133.241 145.698 133.241Z" fill="#24C4A1"/>
<path d="M210.422 134.045C210.02 134.045 209.668 133.693 209.668 133.291V122.99C209.668 121.03 208.06 119.422 206.1 119.422H141.075C139.116 119.422 137.508 121.03 137.508 122.99V133.241C137.508 133.643 137.156 133.995 136.754 133.995C136.352 133.995 136 133.643 136 133.241V122.99C136 120.176 138.312 117.864 141.126 117.864H206.151C208.965 117.864 211.276 120.176 211.276 122.99V133.241C211.226 133.693 210.874 134.045 210.422 134.045Z" fill="#244583"/>
<path d="M219.417 153.543H201.477C199.719 153.543 198.312 152.136 198.312 150.377V135.703C198.312 133.945 199.719 132.538 201.477 132.538H219.417C221.176 132.538 222.583 133.945 222.583 135.703V150.327C222.583 152.085 221.176 153.492 219.417 153.543ZM201.477 134.045C200.573 134.045 199.819 134.799 199.819 135.703V150.327C199.819 151.231 200.573 151.985 201.477 151.985H219.417C220.322 151.985 221.075 151.231 221.075 150.327V135.653C221.075 134.749 220.322 133.995 219.417 133.995L201.477 134.045Z" fill="#244583"/>
<path d="M145.698 153.543H127.759C126 153.543 124.593 152.136 124.593 150.377V135.703C124.593 133.945 126 132.538 127.759 132.538H145.698C147.457 132.538 148.864 133.945 148.864 135.703V150.327C148.864 152.085 147.457 153.492 145.698 153.543ZM127.759 134.045C126.854 134.045 126.1 134.799 126.1 135.703V150.327C126.1 151.231 126.854 151.985 127.759 151.985H145.698C146.603 151.985 147.357 151.231 147.357 150.327V135.653C147.357 134.749 146.603 133.995 145.698 133.995L127.759 134.045Z" fill="#244583"/>
<path d="M219.467 157.714C219.065 157.714 218.713 157.362 218.663 156.96C218.663 156.558 219.015 156.206 219.417 156.156C222.683 156.055 225.246 153.392 225.246 150.176V146.005C225.246 145.603 225.598 145.251 226 145.251C226.402 145.251 226.754 145.603 226.754 146.005V150.176C226.854 154.246 223.588 157.613 219.467 157.714Z" fill="#244583"/>
<path d="M171.628 118.869C171.226 118.869 170.875 118.668 170.875 118.467V100.176C170.875 99.9749 171.226 99.7739 171.628 99.7739C172.03 99.7739 172.382 99.9749 172.382 100.176V118.467C172.382 118.668 172.03 118.869 171.628 118.869Z" fill="#244583"/>
<path d="M162.533 85.7539H180.472C181.779 85.7539 182.884 86.8092 182.884 88.166V102.839C182.884 104.146 181.829 105.251 180.472 105.251H162.533C161.226 105.251 160.121 104.196 160.121 102.839V88.166C160.121 86.8594 161.176 85.7539 162.533 85.7539Z" fill="#B6D2DD"/>
<path d="M180.472 85.7539H162.533C161.226 85.7539 160.121 86.8092 160.121 88.166V90.1258H176.352C177.658 90.1258 178.764 91.181 178.764 92.5378V105.251H180.472C181.779 105.251 182.884 104.196 182.884 102.839V88.166C182.884 86.8594 181.779 85.7539 180.472 85.7539Z" fill="#ACC6CC"/>
<path d="M180.472 106.055H162.533C160.774 106.055 159.367 104.648 159.367 102.889V88.1658C159.367 86.407 160.774 85 162.533 85H180.472C182.231 85 183.638 86.407 183.638 88.1658V102.839C183.638 104.598 182.231 106.005 180.472 106.055ZM162.533 86.5578C161.628 86.5578 160.874 87.3116 160.874 88.2161V102.889C160.874 103.794 161.628 104.548 162.533 104.548H180.472C181.377 104.548 182.131 103.794 182.131 102.889V88.1658C182.131 87.2613 181.377 86.5075 180.472 86.5075L162.533 86.5578Z" fill="#244583"/>
<path d="M180.523 110.226C180.121 110.226 179.769 109.874 179.719 109.472C179.668 109.07 180.07 108.719 180.472 108.668C183.739 108.568 186.302 105.905 186.302 102.689V98.5177C186.302 98.1157 186.653 97.7639 187.055 97.7639C187.457 97.7639 187.809 98.1157 187.809 98.5177V102.689C187.91 106.759 184.643 110.126 180.523 110.226Z" fill="#244583"/>
<path d="M338.32 172.496C339.328 173.504 340.8 174.192 342.848 174.192C345.728 174.192 347.12 172.72 347.12 170.768C347.12 168.4 344.88 167.872 343.12 167.472C341.888 167.184 340.992 166.96 340.992 166.24C340.992 165.6 341.536 165.152 342.56 165.152C343.6 165.152 344.752 165.52 345.616 166.32L346.88 164.656C345.824 163.68 344.416 163.168 342.72 163.168C340.208 163.168 338.672 164.608 338.672 166.384C338.672 168.768 340.912 169.248 342.656 169.648C343.888 169.936 344.816 170.208 344.816 171.008C344.816 171.616 344.208 172.208 342.96 172.208C341.488 172.208 340.32 171.552 339.568 170.768L338.32 172.496ZM351.022 174.192C351.87 174.192 352.414 173.968 352.718 173.696L352.286 172.16C352.174 172.272 351.886 172.384 351.582 172.384C351.134 172.384 350.878 172.016 350.878 171.536V168.048H352.446V166.272H350.878V164.16H348.83V166.272H347.55V168.048H348.83V172.08C348.83 173.456 349.598 174.192 351.022 174.192ZM357.42 174.192C359.98 174.192 361.516 172.336 361.516 170.128C361.516 167.936 359.98 166.08 357.42 166.08C354.876 166.08 353.34 167.936 353.34 170.128C353.34 172.336 354.876 174.192 357.42 174.192ZM357.42 172.384C356.156 172.384 355.452 171.344 355.452 170.128C355.452 168.928 356.156 167.888 357.42 167.888C358.684 167.888 359.404 168.928 359.404 170.128C359.404 171.344 358.684 172.384 357.42 172.384ZM363.024 174H365.056V168.896C365.392 168.4 366.288 168.016 366.96 168.016C367.184 168.016 367.376 168.048 367.52 168.08V166.096C366.56 166.096 365.6 166.64 365.056 167.328V166.272H363.024V174ZM368.293 170.128C368.293 172.608 370.069 174.192 372.421 174.192C373.621 174.192 374.837 173.824 375.605 173.12L374.709 171.808C374.213 172.288 373.365 172.576 372.645 172.576C371.333 172.576 370.549 171.76 370.421 170.784H376.165V170.336C376.165 167.808 374.597 166.08 372.293 166.08C369.941 166.08 368.293 167.888 368.293 170.128ZM372.293 167.696C373.637 167.696 374.149 168.672 374.197 169.408H370.389C370.485 168.64 371.029 167.696 372.293 167.696Z" fill="#244583"/>
<path d="M45.961 165H48.249V154.328H45.049L42.457 160.984L39.865 154.328H36.681V165H38.953V157.32L41.961 165H42.953L45.961 157.32V165ZM49.8245 161.128C49.8245 163.608 51.6005 165.192 53.9525 165.192C55.1525 165.192 56.3685 164.824 57.1365 164.12L56.2405 162.808C55.7445 163.288 54.8965 163.576 54.1765 163.576C52.8645 163.576 52.0805 162.76 51.9525 161.784H57.6965V161.336C57.6965 158.808 56.1285 157.08 53.8245 157.08C51.4725 157.08 49.8245 158.888 49.8245 161.128ZM53.8245 158.696C55.1685 158.696 55.6805 159.672 55.7285 160.408H51.9205C52.0165 159.64 52.5605 158.696 53.8245 158.696ZM59.1643 165H61.1963V159.896C61.5323 159.4 62.4283 159.016 63.1003 159.016C63.3243 159.016 63.5163 159.048 63.6603 159.08V157.096C62.7003 157.096 61.7403 157.64 61.1963 158.328V157.272H59.1643V165ZM69.9379 165H72.4819L69.3299 160.776L72.3859 157.272H69.8899L66.9619 160.712V154.328H64.9299V165H66.9619V163.016L67.8899 162.024L69.9379 165ZM73.4924 165H75.5244V154.328H73.4924V165ZM77.0433 161.128C77.0433 163.608 78.8193 165.192 81.1713 165.192C82.3713 165.192 83.5873 164.824 84.3553 164.12L83.4593 162.808C82.9633 163.288 82.1153 163.576 81.3953 163.576C80.0833 163.576 79.2993 162.76 79.1713 161.784H84.9153V161.336C84.9153 158.808 83.3473 157.08 81.0433 157.08C78.6913 157.08 77.0433 158.888 77.0433 161.128ZM81.0433 158.696C82.3873 158.696 82.8993 159.672 82.9473 160.408H79.1393C79.2353 159.64 79.7793 158.696 81.0433 158.696ZM49.6703 183.192C50.5183 183.192 51.0623 182.968 51.3663 182.696L50.9343 181.16C50.8223 181.272 50.5343 181.384 50.2303 181.384C49.7823 181.384 49.5263 181.016 49.5263 180.536V177.048H51.0943V175.272H49.5263V173.16H47.4783V175.272H46.1983V177.048H47.4783V181.08C47.4783 182.456 48.2463 183.192 49.6703 183.192ZM52.4846 183H54.5166V177.896C54.8526 177.4 55.7486 177.016 56.4206 177.016C56.6446 177.016 56.8366 177.048 56.9806 177.08V175.096C56.0206 175.096 55.0606 175.64 54.5166 176.328V175.272H52.4846V183ZM57.7542 179.128C57.7542 181.608 59.5302 183.192 61.8822 183.192C63.0822 183.192 64.2982 182.824 65.0662 182.12L64.1702 180.808C63.6742 181.288 62.8262 181.576 62.1062 181.576C60.7942 181.576 60.0102 180.76 59.8822 179.784H65.6262V179.336C65.6262 176.808 64.0582 175.08 61.7542 175.08C59.4022 175.08 57.7542 176.888 57.7542 179.128ZM61.7542 176.696C63.0982 176.696 63.6102 177.672 63.6582 178.408H59.8502C59.9462 177.64 60.4902 176.696 61.7542 176.696ZM66.5979 179.128C66.5979 181.608 68.3739 183.192 70.7259 183.192C71.9259 183.192 73.1419 182.824 73.9099 182.12L73.0139 180.808C72.5179 181.288 71.6699 181.576 70.9499 181.576C69.6379 181.576 68.8539 180.76 68.7259 179.784H74.4699V179.336C74.4699 176.808 72.9019 175.08 70.5979 175.08C68.2459 175.08 66.5979 176.888 66.5979 179.128ZM70.5979 176.696C71.9419 176.696 72.4539 177.672 72.5019 178.408H68.6939C68.7899 177.64 69.3339 176.696 70.5979 176.696Z" fill="#244583"/>
<g filter="url(#filter5_d)">
<rect x="140" y="224" width="133.621" height="60" rx="7" fill="#24C4A1"/>
</g>
<path d="M169.89 258.984C170.866 259.832 171.89 260.136 173.218 260.136C175.122 260.136 177.394 259.416 177.394 256.472V249.272H175.346V250.264C174.722 249.48 173.89 249.08 172.962 249.08C171.01 249.08 169.554 250.488 169.554 253.016C169.554 255.592 171.026 256.952 172.962 256.952C173.906 256.952 174.738 256.504 175.346 255.736V256.52C175.346 258.04 174.194 258.472 173.218 258.472C172.242 258.472 171.426 258.2 170.802 257.512L169.89 258.984ZM175.346 254.264C175.01 254.76 174.274 255.144 173.602 255.144C172.45 255.144 171.65 254.344 171.65 253.016C171.65 251.688 172.45 250.888 173.602 250.888C174.274 250.888 175.01 251.256 175.346 251.768V254.264ZM179.457 257H181.729V253.176H184.449C186.753 253.176 188.033 251.624 188.033 249.768C188.033 247.896 186.769 246.328 184.449 246.328H179.457V257ZM185.713 249.752C185.713 250.648 185.041 251.224 184.145 251.224H181.729V248.28H184.145C185.041 248.28 185.713 248.872 185.713 249.752ZM195.474 257H198.082L195.682 252.936C196.834 252.664 198.018 251.656 198.018 249.768C198.018 247.784 196.658 246.328 194.434 246.328H189.442V257H191.714V253.176H193.378L195.474 257ZM195.698 249.752C195.698 250.648 195.01 251.224 194.098 251.224H191.714V248.28H194.098C195.01 248.28 195.698 248.856 195.698 249.752ZM204.811 257.192C207.243 257.192 208.587 255.896 209.355 254.568L207.403 253.624C206.955 254.504 205.995 255.176 204.811 255.176C202.955 255.176 201.547 253.688 201.547 251.672C201.547 249.656 202.955 248.168 204.811 248.168C205.995 248.168 206.955 248.856 207.403 249.72L209.355 248.76C208.603 247.432 207.243 246.152 204.811 246.152C201.691 246.152 199.211 248.392 199.211 251.672C199.211 254.952 201.691 257.192 204.811 257.192ZM222.273 257H224.753L220.641 246.328H217.793L213.665 257H216.161L216.833 255.16H221.601L222.273 257ZM219.217 248.296L220.977 253.192H217.441L219.217 248.296ZM225.739 257H228.011V253.176H230.731C233.035 253.176 234.315 251.624 234.315 249.768C234.315 247.896 233.051 246.328 230.731 246.328H225.739V257ZM231.995 249.752C231.995 250.648 231.323 251.224 230.427 251.224H228.011V248.28H230.427C231.323 248.28 231.995 248.872 231.995 249.752ZM235.723 257H237.995V246.328H235.723V257Z" fill="white"/>
<g filter="url(#filter6_d)">
<rect x="112" y="7" width="191.866" height="60" rx="7" fill="#EBECE9"/>
</g>
<path d="M148.016 31.136C148.688 31.136 149.232 30.592 149.232 29.92C149.232 29.248 148.688 28.704 148.016 28.704C147.36 28.704 146.8 29.248 146.8 29.92C146.8 30.592 147.36 31.136 148.016 31.136ZM147.008 40H149.04V32.272H147.008V40ZM160.639 40H162.687V34.416C162.687 32.832 161.839 32.08 160.415 32.08C159.231 32.08 158.207 32.784 157.759 33.488C157.471 32.608 156.751 32.08 155.615 32.08C154.431 32.08 153.407 32.816 153.087 33.28V32.272H151.055V40H153.087V34.8C153.391 34.368 153.983 33.888 154.687 33.888C155.519 33.888 155.839 34.4 155.839 35.12V40H157.887V34.784C158.175 34.368 158.767 33.888 159.487 33.888C160.319 33.888 160.639 34.4 160.639 35.12V40ZM174.264 40H176.312V34.416C176.312 32.832 175.464 32.08 174.04 32.08C172.856 32.08 171.832 32.784 171.384 33.488C171.096 32.608 170.376 32.08 169.24 32.08C168.056 32.08 167.032 32.816 166.712 33.28V32.272H164.68V40H166.712V34.8C167.016 34.368 167.608 33.888 168.312 33.888C169.144 33.888 169.464 34.4 169.464 35.12V40H171.512V34.784C171.8 34.368 172.392 33.888 173.112 33.888C173.944 33.888 174.264 34.4 174.264 35.12V40ZM183.521 40H185.553V32.272H183.521V37.504C183.169 37.952 182.545 38.384 181.761 38.384C180.897 38.384 180.337 38.032 180.337 36.96V32.272H178.305V37.76C178.305 39.264 179.105 40.192 180.801 40.192C182.065 40.192 182.993 39.616 183.521 39.024V40ZM192.883 40H194.931V29.328H192.883V33.264C192.275 32.48 191.411 32.08 190.499 32.08C188.531 32.08 187.075 33.616 187.075 36.144C187.075 38.72 188.547 40.192 190.499 40.192C191.427 40.192 192.275 39.776 192.883 39.008V40ZM192.883 37.504C192.547 38.016 191.811 38.384 191.123 38.384C189.971 38.384 189.171 37.472 189.171 36.144C189.171 34.8 189.971 33.888 191.123 33.888C191.811 33.888 192.547 34.256 192.883 34.768V37.504ZM196.946 40H198.978V39.008C199.586 39.776 200.434 40.192 201.362 40.192C203.314 40.192 204.786 38.72 204.786 36.144C204.786 33.616 203.33 32.08 201.362 32.08C200.45 32.08 199.586 32.48 198.978 33.264V29.328H196.946V40ZM198.978 37.52V34.784C199.314 34.272 200.066 33.888 200.722 33.888C201.906 33.888 202.69 34.8 202.69 36.144C202.69 37.488 201.906 38.384 200.722 38.384C200.066 38.384 199.314 38.016 198.978 37.52ZM209.742 38.992C210.558 39.744 211.854 40.192 213.198 40.192C215.342 40.192 216.542 39.12 216.542 37.712C216.542 35.792 214.766 35.44 213.438 35.184C212.574 35.008 211.966 34.832 211.966 34.352C211.966 33.904 212.446 33.632 213.182 33.632C214.126 33.632 215.006 34.032 215.47 34.528L216.286 33.136C215.518 32.528 214.478 32.08 213.166 32.08C211.134 32.08 209.998 33.216 209.998 34.512C209.998 36.352 211.71 36.672 213.038 36.928C213.918 37.104 214.59 37.296 214.59 37.84C214.59 38.32 214.174 38.624 213.294 38.624C212.334 38.624 211.182 38.096 210.622 37.568L209.742 38.992ZM217.543 36.128C217.543 38.608 219.319 40.192 221.671 40.192C222.871 40.192 224.087 39.824 224.855 39.12L223.959 37.808C223.463 38.288 222.615 38.576 221.895 38.576C220.583 38.576 219.799 37.76 219.671 36.784H225.415V36.336C225.415 33.808 223.847 32.08 221.543 32.08C219.191 32.08 217.543 33.888 217.543 36.128ZM221.543 33.696C222.887 33.696 223.399 34.672 223.447 35.408H219.639C219.735 34.64 220.279 33.696 221.543 33.696ZM226.883 40H228.915V34.896C229.251 34.4 230.147 34.016 230.819 34.016C231.043 34.016 231.235 34.048 231.379 34.08V32.096C230.419 32.096 229.459 32.64 228.915 33.328V32.272H226.883V40ZM234.649 40H236.841L239.945 32.272H237.753L235.737 37.648L233.721 32.272H231.545L234.649 40ZM240.356 36.128C240.356 38.608 242.132 40.192 244.484 40.192C245.684 40.192 246.9 39.824 247.668 39.12L246.772 37.808C246.276 38.288 245.428 38.576 244.708 38.576C243.396 38.576 242.612 37.76 242.484 36.784H248.228V36.336C248.228 33.808 246.66 32.08 244.356 32.08C242.004 32.08 240.356 33.888 240.356 36.128ZM244.356 33.696C245.7 33.696 246.212 34.672 246.26 35.408H242.452C242.548 34.64 243.092 33.696 244.356 33.696ZM249.696 40H251.728V34.896C252.064 34.4 252.96 34.016 253.632 34.016C253.856 34.016 254.048 34.048 254.192 34.08V32.096C253.232 32.096 252.272 32.64 251.728 33.328V32.272H249.696V40Z" fill="#244583"/>
<defs>
<filter id="filter0_d" x="210" y="391" width="210" height="80" filterUnits="userSpaceOnUse" color-interpolation-filters="sRGB">
<feFlood flood-opacity="0" result="BackgroundImageFix"/>
<feColorMatrix in="SourceAlpha" type="matrix" values="0 0 0 0 0 0 0 0 0 0 0 0 0 0 0 0 0 0 127 0"/>
<feOffset dx="3" dy="3"/>
<feGaussianBlur stdDeviation="5"/>
<feColorMatrix type="matrix" values="0 0 0 0 0 0 0 0 0 0 0 0 0 0 0 0 0 0 0.15 0"/>
<feBlend mode="normal" in2="BackgroundImageFix" result="effect1_dropShadow"/>
<feBlend mode="normal" in="SourceGraphic" in2="effect1_dropShadow" result="shape"/>
</filter>
<filter id="filter1_d" x="210" y="326" width="210" height="80" filterUnits="userSpaceOnUse" color-interpolation-filters="sRGB">
<feFlood flood-opacity="0" result="BackgroundImageFix"/>
<feColorMatrix in="SourceAlpha" type="matrix" values="0 0 0 0 0 0 0 0 0 0 0 0 0 0 0 0 0 0 127 0"/>
<feOffset dx="3" dy="3"/>
<feGaussianBlur stdDeviation="5"/>
<feColorMatrix type="matrix" values="0 0 0 0 0 0 0 0 0 0 0 0 0 0 0 0 0 0 0.15 0"/>
<feBlend mode="normal" in2="BackgroundImageFix" result="effect1_dropShadow"/>
<feBlend mode="normal" in="SourceGraphic" in2="effect1_dropShadow" result="shape"/>
</filter>
<filter id="filter2_d" x="0" y="391" width="210" height="80" filterUnits="userSpaceOnUse" color-interpolation-filters="sRGB">
<feFlood flood-opacity="0" result="BackgroundImageFix"/>
<feColorMatrix in="SourceAlpha" type="matrix" values="0 0 0 0 0 0 0 0 0 0 0 0 0 0 0 0 0 0 127 0"/>
<feOffset dx="3" dy="3"/>
<feGaussianBlur stdDeviation="5"/>
<feColorMatrix type="matrix" values="0 0 0 0 0 0 0 0 0 0 0 0 0 0 0 0 0 0 0.15 0"/>
<feBlend mode="normal" in2="BackgroundImageFix" result="effect1_dropShadow"/>
<feBlend mode="normal" in="SourceGraphic" in2="effect1_dropShadow" result="shape"/>
</filter>
<filter id="filter3_d" x="0" y="326" width="210" height="80" filterUnits="userSpaceOnUse" color-interpolation-filters="sRGB">
<feFlood flood-opacity="0" result="BackgroundImageFix"/>
<feColorMatrix in="SourceAlpha" type="matrix" values="0 0 0 0 0 0 0 0 0 0 0 0 0 0 0 0 0 0 127 0"/>
<feOffset dx="3" dy="3"/>
<feGaussianBlur stdDeviation="5"/>
<feColorMatrix type="matrix" values="0 0 0 0 0 0 0 0 0 0 0 0 0 0 0 0 0 0 0.15 0"/>
<feBlend mode="normal" in2="BackgroundImageFix" result="effect1_dropShadow"/>
<feBlend mode="normal" in="SourceGraphic" in2="effect1_dropShadow" result="shape"/>
</filter>
<filter id="filter4_d" x="0" y="29" width="420" height="238" filterUnits="userSpaceOnUse" color-interpolation-filters="sRGB">
<feFlood flood-opacity="0" result="BackgroundImageFix"/>
<feColorMatrix in="SourceAlpha" type="matrix" values="0 0 0 0 0 0 0 0 0 0 0 0 0 0 0 0 0 0 127 0"/>
<feOffset dx="3" dy="3"/>
<feGaussianBlur stdDeviation="5"/>
<feColorMatrix type="matrix" values="0 0 0 0 0 0 0 0 0 0 0 0 0 0 0 0 0 0 0.15 0"/>
<feBlend mode="normal" in2="BackgroundImageFix" result="effect1_dropShadow"/>
<feBlend mode="normal" in="SourceGraphic" in2="effect1_dropShadow" result="shape"/>
</filter>
<filter id="filter5_d" x="133" y="217" width="153.621" height="80" filterUnits="userSpaceOnUse" color-interpolation-filters="sRGB">
<feFlood flood-opacity="0" result="BackgroundImageFix"/>
<feColorMatrix in="SourceAlpha" type="matrix" values="0 0 0 0 0 0 0 0 0 0 0 0 0 0 0 0 0 0 127 0"/>
<feOffset dx="3" dy="3"/>
<feGaussianBlur stdDeviation="5"/>
<feColorMatrix type="matrix" values="0 0 0 0 0 0 0 0 0 0 0 0 0 0 0 0 0 0 0.15 0"/>
<feBlend mode="normal" in2="BackgroundImageFix" result="effect1_dropShadow"/>
<feBlend mode="normal" in="SourceGraphic" in2="effect1_dropShadow" result="shape"/>
</filter>
<filter id="filter6_d" x="105" y="0" width="211.866" height="80" filterUnits="userSpaceOnUse" color-interpolation-filters="sRGB">
<feFlood flood-opacity="0" result="BackgroundImageFix"/>
<feColorMatrix in="SourceAlpha" type="matrix" values="0 0 0 0 0 0 0 0 0 0 0 0 0 0 0 0 0 0 127 0"/>
<feOffset dx="3" dy="3"/>
<feGaussianBlur stdDeviation="5"/>
<feColorMatrix type="matrix" values="0 0 0 0 0 0 0 0 0 0 0 0 0 0 0 0 0 0 0.15 0"/>
<feBlend mode="normal" in2="BackgroundImageFix" result="effect1_dropShadow"/>
<feBlend mode="normal" in="SourceGraphic" in2="effect1_dropShadow" result="shape"/>
</filter>
</defs>
</svg>
