<svg width="160" height="55" viewBox="0 0 160 55" fill="none" xmlns="http://www.w3.org/2000/svg">
<path d="M62.8296 21.4698C62.8296 20.3184 63.471 19.7427 64.7538 19.7427C66.0366 19.7427 66.678 20.3184 66.678 21.4698C66.678 22.0185 66.5157 22.4474 66.1912 22.7565C65.8743 23.0579 65.3952 23.2086 64.7538 23.2086C63.471 23.2086 62.8296 22.629 62.8296 21.4698ZM66.5157 37.7793H62.9803V24.8198H66.5157V37.7793Z" fill="#FAF9F8"/>
<path d="M81.84 37.7793H78.3045V30.21C78.3045 29.2749 78.1461 28.5755 77.8292 28.1119C77.5201 27.6405 77.0294 27.4048 76.3571 27.4048C75.4529 27.4048 74.7961 27.7371 74.3865 28.4017C73.9769 29.0663 73.7721 30.1597 73.7721 31.6821V37.7793H70.2367V24.8198H72.9375L73.4128 26.4774H73.6099C73.9576 25.8824 74.4599 25.4187 75.1168 25.0864C75.7736 24.7464 76.5271 24.5764 77.3772 24.5764C79.3168 24.5764 80.6306 25.2101 81.3183 26.4774H81.6313C81.9791 25.8747 82.4891 25.4071 83.1614 25.0749C83.8415 24.7426 84.6065 24.5764 85.4566 24.5764C86.9248 24.5764 88.0338 24.9551 88.7834 25.7124C89.5407 26.462 89.9194 27.6675 89.9194 29.329V37.7793H86.3723V30.21C86.3723 29.2749 86.2139 28.5755 85.8971 28.1119C85.5879 27.6405 85.0972 27.4048 84.4249 27.4048C83.5594 27.4048 82.9103 27.7139 82.4775 28.3321C82.0525 28.9503 81.84 29.9318 81.84 31.2764V37.7793Z" fill="#FAF9F8"/>
<path d="M105.162 37.7793H101.627V30.21C101.627 29.2749 101.469 28.5755 101.152 28.1119C100.843 27.6405 100.352 27.4048 99.6796 27.4048C98.7754 27.4048 98.1186 27.7371 97.709 28.4017C97.2994 29.0663 97.0946 30.1597 97.0946 31.6821V37.7793H93.5592V24.8198H96.26L96.7353 26.4774H96.9323C97.2801 25.8824 97.7824 25.4187 98.4393 25.0864C99.0961 24.7464 99.8496 24.5764 100.7 24.5764C102.639 24.5764 103.953 25.2101 104.641 26.4774H104.954C105.302 25.8747 105.812 25.4071 106.484 25.0749C107.164 24.7426 107.929 24.5764 108.779 24.5764C110.247 24.5764 111.356 24.9551 112.106 25.7124C112.863 26.462 113.242 27.6675 113.242 29.329V37.7793H109.695V30.21C109.695 29.2749 109.536 28.5755 109.22 28.1119C108.91 27.6405 108.42 27.4048 107.747 27.4048C106.882 27.4048 106.233 27.7139 105.8 28.3321C105.375 28.9503 105.162 29.9318 105.162 31.2764V37.7793Z" fill="#FAF9F8"/>
<path d="M126.062 37.7793L125.587 36.1217H125.402C125.023 36.7245 124.486 37.192 123.79 37.5243C123.095 37.8489 122.303 38.0112 121.414 38.0112C119.892 38.0112 118.744 37.6055 117.971 36.7941C117.198 35.9749 116.812 34.8003 116.812 33.2702V24.8198H120.348V32.3892C120.348 33.3243 120.514 34.0275 120.846 34.4989C121.178 34.9626 121.708 35.1944 122.434 35.1944C123.423 35.1944 124.138 34.866 124.579 34.2091C125.019 33.5445 125.239 32.4472 125.239 30.9171V24.8198H128.775V37.7793H126.062Z" fill="#FAF9F8"/>
<path d="M136.588 38.0112C135.065 38.0112 133.867 37.42 132.994 36.2377C132.129 35.0553 131.696 33.417 131.696 31.3228C131.696 29.1976 132.136 27.5439 133.017 26.3615C133.906 25.1715 135.127 24.5764 136.68 24.5764C138.311 24.5764 139.555 25.2101 140.413 26.4774H140.529C140.351 25.5115 140.262 24.6498 140.262 23.8925V19.7427H143.809V37.7793H141.097L140.413 36.0986H140.262C139.458 37.3736 138.234 38.0112 136.588 38.0112ZM137.828 35.1944C138.732 35.1944 139.393 34.9317 139.81 34.4062C140.235 33.8807 140.467 32.9881 140.506 31.7285V31.346C140.506 29.955 140.289 28.9581 139.856 28.3553C139.431 27.7525 138.736 27.4512 137.77 27.4512C136.982 27.4512 136.367 27.7873 135.927 28.4596C135.494 29.1242 135.278 30.0941 135.278 31.3691C135.278 32.6442 135.498 33.6025 135.938 34.2439C136.379 34.8776 137.009 35.1944 137.828 35.1944Z" fill="#FAF9F8"/>
<path d="M154.717 24.5764C156.247 24.5764 157.445 25.1753 158.31 26.3731C159.176 27.5632 159.609 29.1976 159.609 31.2764C159.609 33.417 159.16 35.0746 158.264 36.2492C157.375 37.4239 156.162 38.0112 154.624 38.0112C153.102 38.0112 151.908 37.4586 151.042 36.3536H150.799L150.208 37.7793H147.507V19.7427H151.042V23.9389C151.042 24.4721 150.996 25.326 150.903 26.5006H151.042C151.869 25.2178 153.094 24.5764 154.717 24.5764ZM153.581 27.4048C152.708 27.4048 152.07 27.6753 151.668 28.2162C151.266 28.7494 151.058 29.6343 151.042 30.8707V31.2532C151.042 32.6442 151.247 33.6411 151.657 34.2439C152.074 34.8467 152.731 35.148 153.627 35.148C154.354 35.148 154.929 34.8157 155.354 34.1511C155.787 33.4788 156.004 32.5051 156.004 31.23C156.004 29.955 155.787 29.0006 155.354 28.3669C154.922 27.7255 154.331 27.4048 153.581 27.4048Z" fill="#FAF9F8"/>
<path d="M27.5 0C12.321 0 0 12.321 0 27.5C0 42.679 12.321 55 27.5 55C42.679 54.976 54.976 42.679 55 27.5C55 12.321 42.679 0 27.5 0ZM27.5 1.20087C42.0065 1.22489 53.7751 12.9934 53.7991 27.5C53.7991 42.0306 42.0306 53.7991 27.5 53.7991C12.9694 53.7991 1.20087 42.0306 1.20087 27.5C1.20087 12.9694 12.9694 1.20087 27.5 1.20087Z" fill="#FAF9F8"/>
<path d="M27.5 51.9738C26.083 51.9738 24.6659 51.8537 23.2489 51.6136C23.0328 51.5895 22.8406 51.4454 22.7686 51.2293C22.6965 51.0131 22.7205 50.797 22.8646 50.6288C23.0087 50.4607 23.2249 50.3887 23.4411 50.4367C26.107 50.893 28.845 50.893 31.5349 50.4367C31.8712 50.3887 32.1834 50.6048 32.2314 50.917C32.2795 51.2533 32.0633 51.5655 31.7511 51.6136C30.3581 51.8537 28.917 51.9738 27.5 51.9738ZM15.5633 48.8035C15.4673 48.8035 15.3472 48.7795 15.2751 48.7315C12.8013 47.2904 10.6157 45.4411 8.76638 43.2555C8.55023 42.9913 8.57424 42.631 8.83844 42.4149C9.10263 42.1987 9.46289 42.2227 9.67905 42.4869C11.4323 44.5764 13.5218 46.3297 15.8515 47.6747C16.0917 47.8188 16.1878 48.083 16.1397 48.3472C16.0917 48.6114 15.8515 48.8035 15.5633 48.8035ZM39.4607 48.8035C39.1965 48.8035 38.9563 48.6114 38.8843 48.3712C38.8122 48.131 38.9323 47.8188 39.1725 47.6987C41.5262 46.3297 43.6157 44.5764 45.369 42.5109C45.5131 42.3428 45.7293 42.2467 45.9454 42.2948C46.1616 42.3428 46.3297 42.4869 46.4258 42.6791C46.4978 42.8952 46.4498 43.1114 46.3057 43.2795C44.4804 45.4651 42.2707 47.3144 39.7969 48.7315C39.6528 48.7555 39.5568 48.7795 39.4607 48.8035ZM5.06769 36.3144C4.8035 36.3144 4.58735 36.1463 4.49128 35.9061C3.50656 33.2162 3.00219 30.3821 3.02621 27.524C3.02621 27.3559 3.09826 27.2118 3.19433 27.0917C3.31442 26.9716 3.45852 26.9236 3.62665 26.9236C3.96289 26.9236 4.22708 27.1878 4.22708 27.524C4.22708 30.238 4.70743 32.928 5.64411 35.4738C5.7642 35.786 5.59608 36.1223 5.28385 36.2424C5.18778 36.2904 5.13975 36.2904 5.06769 36.3144ZM49.9563 36.2904C49.8843 36.2904 49.8122 36.2904 49.7402 36.2664C49.5961 36.2184 49.476 36.0983 49.4039 35.9542C49.3319 35.8101 49.3319 35.6419 49.3799 35.4978C50.3166 32.952 50.7729 30.238 50.7729 27.524V27.476C50.7729 27.1398 51.0371 26.8756 51.3734 26.8756C51.7096 26.8756 51.9738 27.1398 51.9738 27.476V27.524C51.9738 30.3821 51.4694 33.2162 50.5087 35.9061C50.4367 36.1223 50.1965 36.2664 49.9563 36.2904ZM5.04368 19.9585C4.85154 19.9585 4.6594 19.8625 4.53931 19.6943C4.41922 19.5262 4.39521 19.3341 4.46726 19.1419C5.45197 16.452 6.869 13.9542 8.71835 11.7686C8.93451 11.5044 9.31879 11.4804 9.55896 11.6965C9.79913 11.9127 9.84717 12.297 9.63101 12.5371C7.87774 14.6267 6.50874 16.9804 5.59608 19.5502C5.52403 19.7904 5.30787 19.9585 5.04368 19.9585ZM49.9323 19.8865C49.6681 19.8865 49.452 19.7184 49.3559 19.5022C48.4192 16.9563 47.0502 14.5786 45.2969 12.5131C45.1528 12.345 45.1288 12.1288 45.2009 11.9127C45.2729 11.7205 45.4411 11.5524 45.6572 11.5284C45.8734 11.5044 46.0895 11.5764 46.2336 11.7446C48.083 13.9301 49.524 16.4039 50.5087 19.0939C50.6288 19.4061 50.4607 19.7424 50.1485 19.8625C50.0764 19.8625 50.0044 19.8865 49.9323 19.8865ZM15.5393 7.42141C15.2751 7.42141 15.0349 7.22928 14.9629 6.96508C14.8908 6.70089 15.0109 6.4367 15.2511 6.29259C17.7249 4.85155 20.4149 3.86683 23.2249 3.36246C23.4411 3.31443 23.6572 3.4105 23.8013 3.57862C23.9454 3.74674 23.9694 3.9629 23.8974 4.17906C23.8253 4.39521 23.6572 4.53932 23.4411 4.56334C20.7751 5.04369 18.2052 5.98037 15.8515 7.34936C15.7314 7.3974 15.6354 7.42141 15.5393 7.42141ZM39.4127 7.3974C39.3166 7.3974 39.1965 7.37338 39.1245 7.32534C36.7707 5.98037 34.2009 5.04369 31.5109 4.56334C31.1987 4.49128 31.0066 4.17906 31.0546 3.86683C31.1026 3.5546 31.4149 3.33845 31.7271 3.38648C34.5371 3.86683 37.2511 4.85155 39.7249 6.26858C39.9651 6.41268 40.0852 6.67687 40.0131 6.94107C39.917 7.20526 39.6769 7.37338 39.4127 7.3974Z" fill="#FAF9F8"/>
<path d="M27.5 48.8033C15.7315 48.8033 6.19653 39.2683 6.19653 27.4998C6.19653 15.7312 15.7315 6.19629 27.5 6.19629C39.2686 6.19629 48.8035 15.7312 48.8035 27.4998C48.7795 39.2443 39.2446 48.7793 27.5 48.8033ZM27.5 7.39716C16.404 7.39716 7.39741 16.4037 7.39741 27.4998C7.39741 38.5959 16.404 47.6024 27.5 47.6024C38.5961 47.6024 47.6026 38.5959 47.6026 27.4998C47.5786 16.4037 38.5961 7.42118 27.5 7.39716Z" fill="#FAF9F8"/>
<path d="M26.3709 33.5045C26.3229 33.5045 26.2749 33.5045 26.2268 33.4805C24.0412 32.9041 22.312 31.2469 21.6155 29.1093C20.919 26.9718 21.3513 24.6181 22.7923 22.8648V22.8408C22.9364 22.6726 23.0806 22.5045 23.2247 22.3604L28.5806 17.0045C30.2618 15.3233 32.7116 14.6748 34.9932 15.2753C37.2989 15.8997 39.0762 17.677 39.7006 19.9827C40.3251 22.2884 39.6526 24.7381 37.9714 26.3954L32.6155 31.7512C32.4474 31.9194 32.2792 32.0635 32.1111 32.2076C31.8709 32.3997 31.5347 32.3757 31.3185 32.1595C31.1024 31.9434 31.0784 31.6071 31.2705 31.367C32.3753 29.998 32.7596 28.1967 32.3033 26.5154C32.2552 26.2993 32.3033 26.0831 32.4474 25.939L34.9692 23.4172C35.8819 22.4565 35.8578 20.9674 34.9212 20.0307C33.9845 19.094 32.4714 19.07 31.5347 19.9827L26.1788 25.3386C26.0587 25.4587 25.9626 25.5788 25.8666 25.7229C25.2421 26.6836 25.3622 27.9565 26.1788 28.7731C26.9954 29.5897 28.2683 29.7098 29.229 29.0853C29.4692 28.9412 29.7814 28.9652 29.9736 29.1574C30.1657 29.3495 30.2137 29.6617 30.0456 29.9019C29.9015 30.1181 29.7574 30.3102 29.5893 30.4783L26.7552 33.3124C26.6832 33.4565 26.5151 33.5045 26.3709 33.5045ZM23.705 23.6333C22.5762 25.0264 22.2159 26.8757 22.7203 28.5809C23.2247 30.2862 24.5216 31.6552 26.2028 32.2316L27.7399 30.6945C26.443 30.6224 25.2902 29.8779 24.6897 28.725C24.1133 27.5722 24.1854 26.1792 24.9059 25.0984C25.05 24.8823 25.1941 24.6901 25.3622 24.522L30.7181 19.1901C32.1351 17.7731 34.4408 17.7731 35.8578 19.1901C37.2749 20.6071 37.2749 22.9128 35.8578 24.3299L33.5762 26.6115C33.6723 27.0678 33.7203 27.5242 33.7203 28.0045C33.7203 28.3888 33.6963 28.7731 33.6242 29.1574L37.1548 25.6508C39.2923 23.5133 39.2923 20.0547 37.1548 17.9412C35.0172 15.8037 31.5587 15.8037 29.4452 17.9412L24.0893 23.2971C23.9452 23.3451 23.8251 23.4652 23.705 23.6333Z" fill="#FAF9F8"/>
<path d="M27.9325 30.6941C26.5875 30.6941 25.3626 29.9736 24.7382 28.7968C24.1137 27.6199 24.1618 26.2029 24.9063 25.074C24.9543 25.002 25.0024 24.954 25.0744 24.9059C26.1792 24.1854 27.6203 24.1133 28.7971 24.7378C29.974 25.3623 30.6945 26.5871 30.6945 27.9321C30.6945 28.6286 30.4784 29.3251 30.0941 29.9256C30.046 29.9976 29.998 30.0457 29.9259 30.0937C29.3255 30.478 28.653 30.6941 27.9325 30.6941ZM25.843 25.8426C25.2906 26.8033 25.4347 28.0042 26.2273 28.7727C26.9958 29.5413 28.2207 29.7094 29.1574 29.157C29.3735 28.7727 29.4936 28.3644 29.4936 27.9321C29.4936 27.0675 29.0373 26.2509 28.2687 25.8186C27.5002 25.3863 26.5875 25.4103 25.843 25.8426Z" fill="#FAF9F8"/>
<path d="M32.9038 26.9716C32.8557 26.9716 32.8077 26.9716 32.7597 26.9476C32.5435 26.8995 32.3994 26.7314 32.3273 26.5152C31.823 24.6419 30.3579 23.1768 28.4845 22.6724C28.2684 22.6244 28.1243 22.4563 28.0762 22.2401C28.0282 22.024 28.0762 21.8078 28.2444 21.6637L30.7422 19.1419C32.1592 17.7248 34.4649 17.7248 35.8819 19.1419C37.299 20.5589 37.299 22.8646 35.8819 24.2816L33.3601 26.7794C33.216 26.8995 33.0719 26.9716 32.9038 26.9716ZM29.7335 21.8318C31.2706 22.5043 32.4955 23.7292 33.168 25.2663L34.9933 23.417C35.6177 22.8165 35.8819 21.9039 35.6658 21.0633C35.4496 20.2227 34.7771 19.5502 33.9365 19.334C33.0959 19.1179 32.1832 19.358 31.5828 20.0065L29.7335 21.8318Z" fill="#FAF9F8"/>
<path d="M27.9325 30.6941C26.5875 30.6941 25.3626 29.9736 24.7382 28.7968C24.1137 27.6199 24.1618 26.2029 24.9063 25.074C24.9543 25.002 25.0024 24.954 25.0744 24.9059C26.1792 24.1854 27.6203 24.1133 28.7971 24.7378C29.974 25.3623 30.6945 26.5871 30.6945 27.9321C30.6945 28.6286 30.4784 29.3251 30.0941 29.9256C30.046 29.9976 29.998 30.0457 29.9259 30.0937C29.3255 30.478 28.653 30.6941 27.9325 30.6941ZM25.843 25.8426C25.2906 26.8033 25.4347 28.0042 26.2273 28.7727C26.9958 29.5413 28.2207 29.7094 29.1574 29.157C29.3735 28.7727 29.4936 28.3644 29.4936 27.9321C29.4936 27.0675 29.0373 26.2509 28.2687 25.8186C27.5002 25.3863 26.5875 25.4103 25.843 25.8426Z" fill="#FAF9F8"/>
<path d="M32.9038 26.9716C32.8557 26.9716 32.8077 26.9716 32.7597 26.9476C32.5435 26.8995 32.3994 26.7314 32.3273 26.5152C31.823 24.6419 30.3579 23.1768 28.4845 22.6724C28.2684 22.6244 28.1243 22.4563 28.0762 22.2401C28.0282 22.024 28.0762 21.8078 28.2444 21.6637L30.7422 19.1419C32.1592 17.7248 34.4649 17.7248 35.8819 19.1419C37.299 20.5589 37.299 22.8646 35.8819 24.2816L33.3601 26.7794C33.216 26.8995 33.0719 26.9716 32.9038 26.9716ZM29.7335 21.8318C31.2706 22.5043 32.4955 23.7292 33.168 25.2663L34.9933 23.417C35.6177 22.8165 35.8819 21.9039 35.6658 21.0633C35.4496 20.2227 34.7771 19.5502 33.9365 19.334C33.0959 19.1179 32.1832 19.358 31.5828 20.0065L29.7335 21.8318Z" fill="#FAF9F8"/>
<path d="M21.7119 39.9412C19.022 39.9412 16.5962 38.332 15.5635 35.8342C14.5307 33.3604 15.1071 30.4783 17.0045 28.5809L22.3604 23.225C22.5285 23.0569 22.6966 22.9128 22.8648 22.7687C23.1049 22.5766 23.4412 22.6006 23.6573 22.8167C23.8735 23.0329 23.8975 23.3691 23.7054 23.6093C22.6006 24.9783 22.2163 26.7796 22.6726 28.4608C22.7207 28.677 22.6726 28.8932 22.5285 29.0373L20.0067 31.5591C19.094 32.5198 19.118 34.0089 20.0547 34.9456C20.9914 35.8822 22.5045 35.9063 23.4412 34.9936L28.7971 29.6617C28.9172 29.5416 29.0132 29.4215 29.1093 29.2774C29.3735 28.8691 29.4936 28.4128 29.5176 27.9325C29.5176 27.0438 29.0132 26.2272 28.2447 25.7949C27.4521 25.3626 26.5154 25.4106 25.7709 25.891C25.5307 26.0351 25.2185 26.0111 25.0263 25.8189C24.8342 25.6268 24.7862 25.3146 24.9543 25.0744C25.0984 24.8582 25.2425 24.6661 25.4106 24.498L28.2207 21.6639C28.3648 21.5198 28.5809 21.4477 28.7971 21.4958C30.9827 22.0722 32.7119 23.7294 33.4084 25.867C34.1049 28.0045 33.6726 30.3582 32.2316 32.1115V32.1355C32.0875 32.3036 31.9434 32.4718 31.7993 32.6159L26.4194 37.9718C25.1704 39.2447 23.4892 39.9412 21.7119 39.9412ZM21.3997 25.915L17.8691 29.4215C15.7796 31.5591 15.8036 34.9696 17.9172 37.0831C20.0307 39.1967 23.4412 39.2207 25.5787 37.1312L30.9346 31.7753C31.0547 31.6552 31.1748 31.5111 31.2949 31.367L31.3189 31.3429C32.4477 29.9499 32.808 28.1006 32.3036 26.3953C31.7993 24.6901 30.5023 23.3211 28.8211 22.7447L27.284 24.3058C28.5809 24.3779 29.7338 25.1224 30.3342 26.2753C30.9106 27.4281 30.8386 28.8211 30.118 29.9019C29.9739 30.118 29.8298 30.3102 29.6617 30.4783L24.3058 35.8342C22.8888 37.2512 20.5831 37.2512 19.1661 35.8342C17.7491 34.4172 17.7491 32.1115 19.1661 30.6945L21.4477 28.4128C21.2556 27.6202 21.2316 26.7556 21.3997 25.915Z" fill="#FAF9F8"/>
<path d="M27.9325 30.6941C26.5875 30.6941 25.3626 29.9736 24.7382 28.7967C24.1137 27.6199 24.1618 26.2028 24.9063 25.074C24.9543 25.002 25.0024 24.9539 25.0744 24.9059C26.5155 23.9692 28.4128 24.1614 29.6377 25.3863C30.8626 26.6111 31.0548 28.5085 30.1181 29.9496C30.0701 30.0216 30.022 30.0697 29.95 30.1177C29.3255 30.478 28.653 30.6941 27.9325 30.6941ZM25.843 25.8426C25.2906 26.8033 25.4347 28.0042 26.2273 28.7727C26.9958 29.5413 28.2207 29.7094 29.1574 29.157C29.3735 28.7727 29.4936 28.3644 29.4936 27.9321C29.4936 27.0675 29.0133 26.2749 28.2687 25.8426C27.5242 25.4103 26.5875 25.4103 25.843 25.8426Z" fill="#FAF9F8"/>
<path d="M21.7118 36.9149C20.2467 36.9149 18.9257 36.0262 18.3733 34.6812C17.8209 33.3363 18.1332 31.7751 19.1659 30.7184L21.6637 28.2205C21.8078 28.0764 22.048 28.0044 22.2402 28.0524C22.4563 28.1005 22.6004 28.2686 22.6725 28.4847C23.1768 30.3581 24.6419 31.8232 26.5153 32.3275C26.7314 32.3756 26.8755 32.5437 26.9476 32.7598C26.9956 32.976 26.9476 33.1922 26.8035 33.3363L24.3057 35.8341C23.6092 36.5306 22.6725 36.9149 21.7118 36.9149ZM21.8319 29.7336L19.9825 31.559C19.0699 32.5197 19.0939 34.0087 20.0306 34.9454C20.9672 35.8821 22.4803 35.9061 23.417 34.9935L25.2664 33.1681C23.7292 32.4956 22.5044 31.2708 21.8319 29.7336Z" fill="#FAF9F8"/>
<path d="M27.9325 30.6941C26.5875 30.6941 25.3626 29.9736 24.7382 28.7967C24.1137 27.6199 24.1618 26.2028 24.9063 25.074C24.9543 25.002 25.0024 24.9539 25.0744 24.9059C26.5155 23.9692 28.4128 24.1614 29.6377 25.3863C30.8626 26.6111 31.0548 28.5085 30.1181 29.9496C30.0701 30.0216 30.022 30.0697 29.95 30.1177C29.3255 30.478 28.653 30.6941 27.9325 30.6941ZM25.843 25.8426C25.2906 26.8033 25.4347 28.0042 26.2273 28.7727C26.9958 29.5413 28.2207 29.7094 29.1574 29.157C29.3735 28.7727 29.4936 28.3644 29.4936 27.9321C29.4936 27.0675 29.0133 26.2749 28.2687 25.8426C27.5242 25.4103 26.5875 25.4103 25.843 25.8426Z" fill="#FAF9F8"/>
<path d="M21.7118 36.9149C20.2467 36.9149 18.9257 36.0262 18.3733 34.6812C17.8209 33.3363 18.1332 31.7751 19.1659 30.7184L21.6637 28.2205C21.8078 28.0764 22.048 28.0044 22.2402 28.0524C22.4563 28.1005 22.6004 28.2686 22.6725 28.4847C23.1768 30.3581 24.6419 31.8232 26.5153 32.3275C26.7314 32.3756 26.8755 32.5437 26.9476 32.7598C26.9956 32.976 26.9476 33.1922 26.8035 33.3363L24.3057 35.8341C23.6092 36.5306 22.6725 36.9149 21.7118 36.9149ZM21.8319 29.7336L19.9825 31.559C19.0699 32.5197 19.0939 34.0087 20.0306 34.9454C20.9672 35.8821 22.4803 35.9061 23.417 34.9935L25.2664 33.1681C23.7292 32.4956 22.5044 31.2708 21.8319 29.7336Z" fill="#FAF9F8"/>
</svg>
