<?xml version="1.0" encoding="UTF-8" standalone="no"?>
<svg
   xmlns:dc="http://purl.org/dc/elements/1.1/"
   xmlns:cc="http://creativecommons.org/ns#"
   xmlns:rdf="http://www.w3.org/1999/02/22-rdf-syntax-ns#"
   xmlns:svg="http://www.w3.org/2000/svg"
   xmlns="http://www.w3.org/2000/svg"
   xmlns:sodipodi="http://sodipodi.sourceforge.net/DTD/sodipodi-0.dtd"
   xmlns:inkscape="http://www.inkscape.org/namespaces/inkscape"
   version="1.1"
   width="972.26135"
   height="972.26135"
   id="svg18"
   sodipodi:docname="immudb_codenotary_black.svg"
   inkscape:version="1.0.1 (0767f8302a, 2020-10-17)">
  <metadata
     id="metadata24">
    <rdf:RDF>
      <cc:Work
         rdf:about="">
        <dc:format>image/svg+xml</dc:format>
        <dc:type
           rdf:resource="http://purl.org/dc/dcmitype/StillImage" />
        <dc:title></dc:title>
      </cc:Work>
    </rdf:RDF>
  </metadata>
  <defs
     id="defs22" />
  <sodipodi:namedview
     pagecolor="#ffffff"
     bordercolor="#666666"
     borderopacity="1"
     objecttolerance="10"
     gridtolerance="10"
     guidetolerance="10"
     inkscape:pageopacity="0"
     inkscape:pageshadow="2"
     inkscape:window-width="2529"
     inkscape:window-height="1383"
     id="namedview20"
     showgrid="false"
     showguides="true"
     inkscape:guide-bbox="true"
     inkscape:zoom="0.55369939"
     inkscape:cx="965.88498"
     inkscape:cy="280.60912"
     inkscape:window-x="2830"
     inkscape:window-y="27"
     inkscape:window-maximized="0"
     inkscape:current-layer="layer6"
     inkscape:document-rotation="0"
     fit-margin-top="100"
     fit-margin-left="100"
     fit-margin-right="100"
     fit-margin-bottom="100"
     lock-margins="true">
    <sodipodi:guide
       position="99.155008,710.47897"
       orientation="1,0"
       id="guide954" />
    <sodipodi:guide
       position="485.98619,933.80988"
       orientation="0,-1"
       id="guide956" />
    <sodipodi:guide
       position="872.83914,710.46808"
       orientation="1,0"
       id="guide958" />
    <sodipodi:guide
       position="485.98619,40.464384"
       orientation="0,-1"
       id="guide960" />
    <sodipodi:guide
       position="769.41759,485.00115"
       orientation="0,-1"
       id="guide962" />
    <sodipodi:guide
       position="1287.8718,371.1712"
       orientation="0,-1"
       id="guide866" />
    <sodipodi:guide
       position="1208.6942,597.52991"
       orientation="0,-1"
       id="guide1227" />
    <sodipodi:guide
       position="977.38692,485.00115"
       orientation="1,0"
       id="guide1290" />
    <sodipodi:guide
       position="2949.6831,554.7902"
       orientation="1,0"
       id="guide1292" />
    <sodipodi:guide
       position="3054.4424,485.00115"
       orientation="1,0"
       id="guide865" />
  </sodipodi:namedview>
  <g
     inkscape:groupmode="layer"
     id="layer8"
     inkscape:label="text "
     transform="translate(-6.1081506,-66.811715)">
    <text
       xml:space="preserve"
       style="font-style:normal;font-variant:normal;font-weight:600;font-stretch:normal;font-size:333.333px;line-height:1.25;font-family:'Open Sans';-inkscape-font-specification:'Open Sans Semi-Bold';font-variant-ligatures:normal;font-variant-caps:normal;font-variant-numeric:normal;font-variant-east-asian:normal;fill:#ffffff;fill-opacity:1;stroke:none"
       x="964.37671"
       y="674.60651"
       id="text1233"><tspan
         sodipodi:role="line"
         id="tspan1231"
         x="964.37671"
         y="674.60651"
         style="font-style:normal;font-variant:normal;font-weight:bold;font-stretch:normal;font-size:333.333px;font-family:'Open Sans';-inkscape-font-specification:'Open Sans Bold';font-variant-ligatures:normal;font-variant-caps:normal;font-variant-numeric:normal;font-variant-east-asian:normal;fill:#ffffff;fill-opacity:1">CodeNotary</tspan></text>
  </g>
  <g
     transform="matrix(7.7226132,0,0,7.7226132,-763.09589,437.19386)"
     id="g888">
    <defs
       id="SvgjsDefs1908" />
    <g
       id="SvgjsG1910"
       featureKey="nameFeature-0"
       transform="matrix(1.3438337,0,0,1.3438337,116.35163,16.562202)"
       fill="#000000" />
  </g>
  <g
     inkscape:groupmode="layer"
     id="layer6"
     inkscape:label="logo"
     transform="translate(-6.1081506,-66.811715)">
    <g
       id="SvgjsG1909"
       featureKey="symbolFeature-0"
       transform="matrix(3.3723202,0,0,3.3723202,104.42127,165.12529)"
       fill="#000000"
       style="fill:#ffffff;fill-opacity:1">
      <title
         id="title850">blockchain_1</title>
      <desc
         id="desc852">Created with Sketch.</desc>
      <g
         stroke="none"
         stroke-width="1"
         fill-rule="evenodd"
         id="g882"
         style="fill:#ffffff;fill-opacity:1">
        <g
           fill-rule="nonzero"
           id="g880"
           style="fill:#ffffff;fill-opacity:1">
          <path
             id="path854"
             style="fill:#ffffff;fill-opacity:1;stroke-width:4.09389"
             transform="matrix(0.24426667,0,0,0.24426667,9.5500075,-281.87505)"
             d="m 431.70117,1156.0117 c -258.88347,0 -468.749998,209.8665 -468.749998,468.75 0,258.8835 209.866528,468.75 468.749998,468.75 258.77125,-0.2708 468.47923,-209.9787 468.75,-468.75 0,-258.8835 -209.86654,-468.75 -468.75,-468.75 z m 0,20.4688 c 247.46627,0.2707 448.00853,200.8149 448.2793,448.2812 0,247.5785 -200.70078,448.2793 -448.2793,448.2793 -247.57852,0 -448.281248,-200.7008 -448.281248,-448.2793 0,-247.5785 200.702728,-448.2812 448.281248,-448.2812 z" />
          <path
             d="m 115,216.94 c -5.91636,-0.002 -11.82153,-0.51404 -17.65,-1.53 -0.913541,-0.11624 -1.689209,-0.72529 -2.018827,-1.58519 -0.329618,-0.85989 -0.159806,-1.83137 0.441968,-2.52846 0.601774,-0.69709 1.538057,-1.00691 2.436859,-0.80635 11.13993,1.93503 22.53007,1.93503 33.67,0 1.36138,-0.23748 2.65752,0.67362 2.895,2.035 0.23748,1.36138 -0.67362,2.65752 -2.035,2.895 -5.85837,1.01778 -11.79388,1.52634 -17.74,1.52 z M 65.33,203.66 c -0.438155,-3.5e-4 -0.86877,-0.11403 -1.25,-0.33 C 53.799557,197.37841 44.635643,189.67977 37,180.58 c -0.889178,-1.05763 -0.752625,-2.63582 0.305,-3.525 1.057625,-0.88918 2.635821,-0.75263 3.525,0.305 7.257655,8.65782 15.971974,15.98123 25.75,21.64 0.974622,0.56794 1.448186,1.71821 1.155935,2.80772 -0.292251,1.08951 -1.277914,1.84835 -2.405935,1.85228 z m 99.42,0 c -1.13683,0.009 -2.13626,-0.75109 -2.4324,-1.8487 -0.29615,-1.09761 0.18557,-2.25683 1.1724,-2.8213 9.79024,-5.65788 18.51511,-12.98501 25.78,-21.65 0.56301,-0.71845 1.47281,-1.07295 2.37348,-0.92483 0.90066,0.14812 1.64901,0.77533 1.95228,1.63625 0.30326,0.86091 0.11323,1.81867 -0.49576,2.49858 -7.64317,9.09457 -16.8139,16.78647 -27.1,22.73 -0.37919,0.22207 -0.81057,0.33941 -1.25,0.34 z m -143.18,-52 c -1.055154,-0.002 -1.99547,-0.66619 -2.35,-1.66 -4.073908,-11.16718 -6.155509,-22.96292 -6.15,-34.85 -0.0027,-0.66212 0.258505,-1.29803 0.725759,-1.76716 C 14.263013,112.9137 14.897875,112.65 15.56,112.65 c 1.378435,0.005 2.494519,1.12156 2.5,2.5 -0.0044,11.30389 1.975644,22.5208 5.85,33.14 0.469825,1.295 -0.196502,2.72604 -1.49,3.2 -0.273918,0.0903 -0.561779,0.13097 -0.85,0.12 z m 186.9,-0.1 c -0.29356,0.005 -0.58534,-0.0463 -0.86,-0.15 -0.62463,-0.22317 -1.13383,-0.68727 -1.41382,-1.28858 -0.27999,-0.60132 -0.30742,-1.28973 -0.0762,-1.91142 3.86959,-10.64382 5.83952,-21.88462 5.82,-33.21 v -0.22 c 0,-1.38071 1.11929,-2.5 2.5,-2.5 1.38071,0 2.5,1.11929 2.5,2.5 V 115 c 0.0148,11.89178 -2.05662,23.69397 -6.12,34.87 -0.36363,0.98406 -1.30091,1.63816 -2.35,1.64 z M 21.5,83.59 C 20.682953,83.590842 19.91705,83.192378 19.448771,82.522839 18.980492,81.8533 18.868935,80.997183 19.15,80.23 23.206427,69.055384 29.190317,58.678342 36.83,49.57 c 0.886417,-1.060387 2.464613,-1.201417 3.525,-0.315 1.060387,0.886417 1.201417,2.464613 0.315,3.525 -7.271661,8.659571 -12.964917,18.529687 -16.82,29.16 -0.357876,0.989869 -1.297425,1.649552 -2.35,1.65 z m 186.9,-0.3 c -1.05093,0.004 -1.99125,-0.652185 -2.35,-1.64 -3.88638,-10.611504 -9.60664,-20.457804 -16.9,-29.09 -0.57698,-0.687736 -0.74324,-1.631048 -0.43613,-2.474599 0.3071,-0.843551 1.04091,-1.459185 1.925,-1.615 0.88409,-0.155815 1.78415,0.171863 2.36113,0.859599 7.66833,9.08156 13.68293,19.438734 17.77,30.6 0.4774,1.295095 -0.18511,2.732032 -1.48,3.21 -0.28586,0.100717 -0.58692,0.151458 -0.89,0.15 z M 65.16,31.44 C 64.031979,31.436073 63.046316,30.67723 62.754065,29.587719 62.461814,28.498207 62.935378,27.347941 63.91,26.78 74.185354,20.796349 85.439082,16.679461 97.15,14.62 c 0.88066,-0.15541 1.777333,0.170811 2.352253,0.855779 0.574917,0.684968 0.740737,1.624621 0.435,2.465 C 99.631512,18.781158 98.90066,19.394589 98.02,19.55 86.888123,21.50696 76.190049,25.417173 66.42,31.1 c -0.382674,0.22245 -0.817368,0.339748 -1.26,0.34 z m 99.41,-0.15 c -0.4363,-4.33e-4 -0.8645,-0.117843 -1.24,-0.34 -9.79503,-5.649266 -20.5088,-9.528566 -31.65,-11.46 -1.30348,-0.290855 -2.14817,-1.55487 -1.91821,-2.870459 0.22996,-1.315589 1.45335,-2.21811 2.77821,-2.049541 11.71358,2.00844 22.98012,6.070894 33.28,12 0.98516,0.56357 1.46706,1.720056 1.1736,2.816424 -0.29346,1.096368 -1.28864,1.857487 -2.4236,1.853576 z"
             id="path856"
             style="fill:#ffffff;fill-opacity:1" />
          <path
             d="m 115,203.65 c -48.960043,0 -88.65,-39.68996 -88.65,-88.65 0,-48.960043 39.689957,-88.65 88.65,-88.65 48.96004,0 88.65,39.689957 88.65,88.65 -0.0551,48.9372 -39.7128,88.59489 -88.65,88.65 z m 0,-172.3 c -46.198619,0 -83.65,37.451381 -83.65,83.65 0,46.19862 37.451381,83.65 83.65,83.65 46.19862,0 83.65,-37.45138 83.65,-83.65 C 198.6004,68.821943 161.17806,31.399604 115,31.35 Z"
             id="path858"
             style="fill:#ffffff;fill-opacity:1" />
          <path
             d="m 110.28,140 c -0.2157,-0.002 -0.43046,-0.0288 -0.64,-0.08 -9.07406,-2.42767 -16.298671,-9.28999 -19.18955,-18.22727 C 87.55957,112.75545 89.396655,102.96201 95.33,95.68 v -0.06 c 0.577855,-0.698456 1.192036,-1.366044 1.84,-2 L 119.5,71.34 c 6.99526,-6.99526 17.19107,-9.727221 26.74678,-7.166778 9.5557,2.560443 17.01955,10.024297 19.58,19.58 2.56044,9.555704 -0.17152,19.751518 -7.16678,26.746778 l -22.27,22.27 c -0.6618,0.67432 -1.36303,1.30877 -2.1,1.9 -1.00023,0.79357 -2.43773,0.7059 -3.33411,-0.20333 -0.89639,-0.90923 -0.9636,-2.34783 -0.15589,-3.33667 4.59313,-5.65234 6.19945,-13.16342 4.32,-20.2 -0.23111,-0.85998 0.0127,-1.77798 0.64,-2.41 l 10.46,-10.46 c 3.79459,-3.967861 3.7246,-10.240211 -0.1576,-14.122405 C 142.18021,80.055402 135.90786,79.985407 131.94,83.78 l -22.27,22.27 c -0.49427,0.48614 -0.93665,1.02235 -1.32,1.6 -2.63035,4.00623 -2.08648,9.30878 1.30237,12.69763 3.38885,3.38885 8.6914,3.93272 12.69763,1.30237 0.99216,-0.6436 2.29957,-0.50394 3.1334,0.33472 0.83382,0.83866 0.96593,2.14685 0.3166,3.13528 -0.56766,0.85459 -1.21741,1.6517 -1.94,2.38 l -11.81,11.8 c -0.47522,0.45666 -1.11098,0.7081 -1.77,0.7 z M 99.16,98.9 c -4.664567,5.77981 -6.208081,13.47533 -4.133189,20.6069 2.074892,7.13156 7.505949,12.79786 14.543189,15.1731 l 6.45,-6.45 c -5.40295,-0.27575 -10.24487,-3.42274 -12.69069,-8.24828 -2.44582,-4.82554 -2.12126,-10.59116 0.85069,-15.11172 0.57151,-0.85761 1.22455,-1.65799 1.95,-2.39 L 128.4,80.24 c 5.8984,-5.898401 15.4616,-5.898401 21.36,0 5.8984,5.898401 5.8984,15.461599 0,21.36 l -9.47,9.46 c 0.40037,1.89044 0.60147,3.81763 0.6,5.75 0.003,1.61636 -0.14134,3.22962 -0.43,4.82 L 155.13,107 c 8.87245,-8.872455 8.87245,-23.257545 0,-32.13 -8.87246,-8.872454 -23.25755,-8.872454 -32.13,0 l -22.27,22.27 c -0.53756,0.534761 -1.045009,1.098963 -1.52,1.69 z"
             id="path860"
             style="fill:#ffffff;fill-opacity:1" />
          <path
             d="m 116.84,128.28 c -5.55698,0.0188 -10.67464,-3.01802 -13.32068,-7.90463 -2.64604,-4.8866 -2.39221,-10.83206 0.66068,-15.47537 0.18739,-0.2874 0.4326,-0.53261 0.72,-0.72 4.64205,-3.04624 10.58083,-3.30119 15.46686,-0.66398 4.88603,2.6372 7.93211,7.74167 7.93314,13.29398 -0.008,2.94184 -0.86948,5.81815 -2.48,8.28 -0.18739,0.2874 -0.4326,0.53261 -0.72,0.72 -2.4523,1.6139 -5.32428,2.47271 -8.26,2.47 z m -8.75,-20.19 c -2.31243,3.96572 -1.66268,8.99164 1.58224,12.23891 3.24492,3.24726 8.27037,3.90065 12.23776,1.59109 0.90251,-1.55235 1.38181,-3.31438 1.39,-5.11 -0.01,-3.61693 -1.94876,-6.95379 -5.08661,-8.75274 -3.13785,-1.79895 -6.99724,-1.78647 -10.12339,0.0327 z"
             id="path862"
             style="fill:#ffffff;fill-opacity:1" />
          <path
             d="m 137.53,112.78 c -0.21926,0.002 -0.43787,-0.0245 -0.65,-0.08 -0.86031,-0.23396 -1.53091,-0.90838 -1.76,-1.77 -2.10839,-7.82742 -8.22258,-13.941606 -16.05,-16.05 -0.85336,-0.244562 -1.51303,-0.92331 -1.73317,-1.783292 C 117.11669,92.236726 117.36911,91.324502 118,90.7 l 10.4,-10.46 c 5.8984,-5.898401 15.4616,-5.898401 21.36,0 5.8984,5.898401 5.8984,15.461599 0,21.36 l -10.46,10.45 c -0.46721,0.47237 -1.10563,0.73567 -1.77,0.73 z M 124.29,91.43 c 6.37896,2.805756 11.47424,7.901044 14.28,14.28 l 7.65,-7.65 c 2.64665,-2.531081 3.71589,-6.296507 2.7944,-9.840799 -0.92149,-3.544292 -3.68931,-6.312116 -7.2336,-7.233602 -3.54429,-0.921486 -7.30972,0.147747 -9.8408,2.794401 z"
             id="path864"
             style="fill:#ffffff;fill-opacity:1" />
          <path
             d="m 116.84,128.28 c -5.55698,0.0188 -10.67464,-3.01802 -13.32068,-7.90463 -2.64604,-4.8866 -2.39221,-10.83206 0.66068,-15.47537 0.18739,-0.2874 0.4326,-0.53261 0.72,-0.72 4.64205,-3.04624 10.58083,-3.30119 15.46686,-0.66398 4.88603,2.6372 7.93211,7.74167 7.93314,13.29398 -0.008,2.94184 -0.86948,5.81815 -2.48,8.28 -0.18739,0.2874 -0.4326,0.53261 -0.72,0.72 -2.4523,1.6139 -5.32428,2.47271 -8.26,2.47 z m -8.75,-20.19 c -2.31243,3.96572 -1.66268,8.99164 1.58224,12.23891 3.24492,3.24726 8.27037,3.90065 12.23776,1.59109 0.90251,-1.55235 1.38181,-3.31438 1.39,-5.11 -0.01,-3.61693 -1.94876,-6.95379 -5.08661,-8.75274 -3.13785,-1.79895 -6.99724,-1.78647 -10.12339,0.0327 z"
             id="path866"
             style="fill:#ffffff;fill-opacity:1" />
          <path
             d="m 137.53,112.78 c -0.21926,0.002 -0.43787,-0.0245 -0.65,-0.08 -0.86031,-0.23396 -1.53091,-0.90838 -1.76,-1.77 -2.10839,-7.82742 -8.22258,-13.941606 -16.05,-16.05 -0.85336,-0.244562 -1.51303,-0.92331 -1.73317,-1.783292 C 117.11669,92.236726 117.36911,91.324502 118,90.7 l 10.4,-10.46 c 5.8984,-5.898401 15.4616,-5.898401 21.36,0 5.8984,5.898401 5.8984,15.461599 0,21.36 l -10.46,10.45 c -0.46721,0.47237 -1.10563,0.73567 -1.77,0.73 z M 124.29,91.43 c 6.37896,2.805756 11.47424,7.901044 14.28,14.28 l 7.65,-7.65 c 2.64665,-2.531081 3.71589,-6.296507 2.7944,-9.840799 -0.92149,-3.544292 -3.68931,-6.312116 -7.2336,-7.233602 -3.54429,-0.921486 -7.30972,0.147747 -9.8408,2.794401 z"
             id="path868"
             style="fill:#ffffff;fill-opacity:1" />
          <path
             d="M 90.92,166.76 C 79.719958,166.7659 69.620125,160.02181 65.333256,149.67465 61.046387,139.32749 63.417424,127.41668 71.34,119.5 L 93.61,97.23 c 0.661797,-0.674319 1.363029,-1.308768 2.1,-1.9 1.000234,-0.793566 2.437725,-0.7059 3.334114,0.203331 0.896389,0.909231 0.963596,2.347824 0.155886,3.336669 -4.587074,5.65524 -6.192747,13.16325 -4.32,20.2 0.231112,0.85998 -0.01267,1.77798 -0.64,2.41 l -10.46,10.46 c -3.794593,3.96786 -3.724598,10.24021 0.157595,14.1224 3.882194,3.8822 10.154544,3.95219 14.122405,0.1576 L 120.33,124 c 0.49427,-0.48614 0.93665,-1.02235 1.32,-1.6 1.07351,-1.65226 1.64651,-3.57962 1.65,-5.55 -0.0106,-3.71121 -2.05172,-7.1189 -5.31868,-8.87964 -3.26695,-1.76073 -7.23559,-1.59201 -10.34132,0.43964 -0.99216,0.6436 -2.29957,0.50394 -3.1334,-0.33472 -0.83382,-0.83866 -0.96593,-2.14685 -0.3166,-3.13528 0.56766,-0.85459 1.21741,-1.6517 1.94,-2.38 L 118,90.7 c 0.62996,-0.6309 1.54823,-0.878567 2.41,-0.65 9.07406,2.427666 16.29867,9.289986 19.18955,18.22727 2.89088,8.93728 1.05379,18.73072 -4.87955,26.01273 v 0.06 c -0.57786,0.69846 -1.19204,1.36604 -1.84,2 l -22.38,22.31 c -5.18836,5.19854 -12.235362,8.11379 -19.58,8.1 z M 89.55,108.36 74.87,123 c -8.670949,8.8966 -8.579666,23.11067 0.204831,31.89517 8.784498,8.7845 22.998573,8.87578 31.895169,0.20483 l 22.27,-22.27 c 0.53756,-0.53476 1.04501,-1.09896 1.52,-1.69 l 0.08,-0.1 c 4.66457,-5.77981 6.20808,-13.47533 4.13319,-20.6069 C 132.8983,103.30154 127.46724,97.635237 120.43,95.26 l -6.43,6.48 c 5.40295,0.27575 10.24487,3.42274 12.69069,8.24828 2.44582,4.82554 2.12126,10.59116 -0.85069,15.11172 -0.57151,0.85761 -1.22455,1.65799 -1.95,2.39 l -22.29,22.27 c -5.898401,5.8984 -15.461599,5.8984 -21.36,0 -5.898401,-5.8984 -5.898401,-15.4616 0,-21.36 l 9.47,-9.46 c -0.732427,-3.48365 -0.786751,-7.0758 -0.16,-10.58 z"
             id="path870"
             style="fill:#ffffff;fill-opacity:1" />
          <path
             d="m 116.84,128.28 c -5.55698,0.0188 -10.67464,-3.01802 -13.32068,-7.90463 -2.64604,-4.8866 -2.39221,-10.83206 0.66068,-15.47537 0.18739,-0.2874 0.4326,-0.53261 0.72,-0.72 5.98683,-3.92318 13.90491,-3.1075 18.96621,1.95379 5.06129,5.0613 5.87697,12.97938 1.95379,18.96621 -0.18739,0.2874 -0.4326,0.53261 -0.72,0.72 -2.4534,1.61037 -5.3253,2.46568 -8.26,2.46 z m -8.75,-20.19 c -2.31243,3.96572 -1.66268,8.99164 1.58224,12.23891 3.24492,3.24726 8.27037,3.90065 12.23776,1.59109 0.90728,-1.554 1.38687,-3.32054 1.39,-5.12 -0.0131,-3.61515 -1.95373,-6.94874 -5.09093,-8.74525 -3.13719,-1.79651 -6.99447,-1.78308 -10.11907,0.0353 z"
             id="path872"
             style="fill:#ffffff;fill-opacity:1" />
          <path
             d="M 90.92,154.17 C 84.815342,154.168 79.312352,150.49069 76.975132,144.85116 74.637913,139.21163 75.926311,132.7196 80.24,128.4 L 90.7,118 c 0.629001,-0.63649 1.551165,-0.88651 2.415526,-0.65491 0.864362,0.2316 1.537977,0.9092 1.764474,1.77491 2.108394,7.82742 8.22258,13.94161 16.05,16.05 0.86156,0.23185 1.53425,0.90528 1.76517,1.76708 0.23092,0.86181 -0.015,1.78136 -0.64517,2.41292 l -10.45,10.41 c -2.832666,2.83061 -6.675468,4.41738 -10.68,4.41 z m 0.51,-29.88 -7.65,7.65 c -3.794593,3.96786 -3.724598,10.24021 0.157595,14.1224 3.882194,3.8822 10.154544,3.95219 14.122405,0.1576 l 7.65,-7.65 c -6.378956,-2.80576 -11.474244,-7.90104 -14.28,-14.28 z"
             id="path874"
             style="fill:#ffffff;fill-opacity:1" />
          <path
             d="m 116.84,128.28 c -5.55698,0.0188 -10.67464,-3.01802 -13.32068,-7.90463 -2.64604,-4.8866 -2.39221,-10.83206 0.66068,-15.47537 0.18739,-0.2874 0.4326,-0.53261 0.72,-0.72 5.98683,-3.92318 13.90491,-3.1075 18.96621,1.95379 5.06129,5.0613 5.87697,12.97938 1.95379,18.96621 -0.18739,0.2874 -0.4326,0.53261 -0.72,0.72 -2.4534,1.61037 -5.3253,2.46568 -8.26,2.46 z m -8.75,-20.19 c -2.31243,3.96572 -1.66268,8.99164 1.58224,12.23891 3.24492,3.24726 8.27037,3.90065 12.23776,1.59109 0.90728,-1.554 1.38687,-3.32054 1.39,-5.12 -0.0131,-3.61515 -1.95373,-6.94874 -5.09093,-8.74525 -3.13719,-1.79651 -6.99447,-1.78308 -10.11907,0.0353 z"
             id="path876"
             style="fill:#ffffff;fill-opacity:1" />
          <path
             d="M 90.92,154.17 C 84.815342,154.168 79.312352,150.49069 76.975132,144.85116 74.637913,139.21163 75.926311,132.7196 80.24,128.4 L 90.7,118 c 0.629001,-0.63649 1.551165,-0.88651 2.415526,-0.65491 0.864362,0.2316 1.537977,0.9092 1.764474,1.77491 2.108394,7.82742 8.22258,13.94161 16.05,16.05 0.86156,0.23185 1.53425,0.90528 1.76517,1.76708 0.23092,0.86181 -0.015,1.78136 -0.64517,2.41292 l -10.45,10.41 c -2.832666,2.83061 -6.675468,4.41738 -10.68,4.41 z m 0.51,-29.88 -7.65,7.65 c -3.794593,3.96786 -3.724598,10.24021 0.157595,14.1224 3.882194,3.8822 10.154544,3.95219 14.122405,0.1576 l 7.65,-7.65 c -6.378956,-2.80576 -11.474244,-7.90104 -14.28,-14.28 z"
             id="path878"
             style="fill:#ffffff;fill-opacity:1" />
        </g>
      </g>
    </g>
  </g>
</svg>
