<?xml version="1.0" encoding="UTF-8" standalone="no"?>
<svg
   xmlns:dc="http://purl.org/dc/elements/1.1/"
   xmlns:cc="http://creativecommons.org/ns#"
   xmlns:rdf="http://www.w3.org/1999/02/22-rdf-syntax-ns#"
   xmlns:svg="http://www.w3.org/2000/svg"
   xmlns="http://www.w3.org/2000/svg"
   xmlns:sodipodi="http://sodipodi.sourceforge.net/DTD/sodipodi-0.dtd"
   xmlns:inkscape="http://www.inkscape.org/namespaces/inkscape"
   version="1.1"
   width="3060.5264"
   height="1105.2632"
   id="svg18"
   sodipodi:docname="logo_text_blue.svg"
   inkscape:version="1.0.1 (0767f8302a, 2020-10-17)">
  <metadata
     id="metadata24">
    <rdf:RDF>
      <cc:Work
         rdf:about="">
        <dc:format>image/svg+xml</dc:format>
        <dc:type
           rdf:resource="http://purl.org/dc/dcmitype/StillImage" />
        <dc:title />
      </cc:Work>
    </rdf:RDF>
  </metadata>
  <defs
     id="defs22" />
  <sodipodi:namedview
     pagecolor="#ffffff"
     bordercolor="#666666"
     borderopacity="1"
     objecttolerance="10"
     gridtolerance="10"
     guidetolerance="10"
     inkscape:pageopacity="0"
     inkscape:pageshadow="2"
     inkscape:window-width="2529"
     inkscape:window-height="1376"
     id="namedview20"
     showgrid="false"
     showguides="true"
     inkscape:guide-bbox="true"
     inkscape:zoom="0.39152459"
     inkscape:cx="1451.6235"
     inkscape:cy="282.88665"
     inkscape:window-x="2830"
     inkscape:window-y="27"
     inkscape:window-maximized="0"
     inkscape:current-layer="text1233"
     inkscape:document-rotation="0">
    <sodipodi:guide
       position="105.26316,776.66909"
       orientation="1,0"
       id="guide954" />
    <sodipodi:guide
       position="492.09434,1000"
       orientation="0,-1"
       id="guide956" />
    <sodipodi:guide
       position="878.94729,776.6582"
       orientation="1,0"
       id="guide958" />
    <sodipodi:guide
       position="492.09434,106.65449"
       orientation="0,-1"
       id="guide960" />
    <sodipodi:guide
       position="775.52574,551.19127"
       orientation="0,-1"
       id="guide962" />
    <sodipodi:guide
       position="1293.98,437.36132"
       orientation="0,-1"
       id="guide866" />
    <sodipodi:guide
       position="1214.8024,663.72003"
       orientation="0,-1"
       id="guide1227" />
    <sodipodi:guide
       position="983.49507,551.19127"
       orientation="1,0"
       id="guide1290" />
    <sodipodi:guide
       position="2955.7913,620.98032"
       orientation="1,0"
       id="guide1292" />
    <sodipodi:guide
       position="3060.5506,551.19127"
       orientation="1,0"
       id="guide865" />
  </sodipodi:namedview>
  <g
     inkscape:groupmode="layer"
     id="layer8"
     inkscape:label="text ">
    <g
       aria-label="CodeNotary"
       id="text1233"
       style="font-style:normal;font-variant:normal;font-weight:600;font-stretch:normal;font-size:333.333px;line-height:1.25;font-family:'Open Sans';-inkscape-font-specification:'Open Sans Semi-Bold';font-variant-ligatures:normal;font-variant-caps:normal;font-variant-numeric:normal;font-variant-east-asian:normal;fill:#244583;fill-opacity:1;stroke:none">
      <path
         d="m 1095.3987,351.22519 q -28.483,0 -44.108,21.48435 -15.625,21.3216 -15.625,59.57026 0,79.58977 59.733,79.58977 25.0651,0 60.7096,-12.53254 v 42.31766 q -29.2969,12.20702 -65.4296,12.20702 -51.9206,0 -79.427,-31.41273 -27.50652,-31.57549 -27.50652,-90.4947 0,-37.10934 13.5091,-64.94134 13.50912,-27.99477 38.73692,-42.80595 25.3906,-14.97395 59.4075,-14.97395 34.668,0 69.6614,16.76431 l -16.276,41.01559 q -13.3464,-6.34765 -26.8555,-11.0677 -13.5091,-4.72005 -26.5299,-4.72005 z"
         style="font-style:normal;font-variant:normal;font-weight:bold;font-stretch:normal;font-size:333.333px;font-family:'Open Sans';-inkscape-font-specification:'Open Sans Bold';font-variant-ligatures:normal;font-variant-caps:normal;font-variant-numeric:normal;font-variant-east-asian:normal;fill:#244583;fill-opacity:1"
         id="path865" />
      <path
         d="m 1242.2085,459.298 q 0,27.0182 8.789,40.85283 8.9518,13.83462 28.9714,13.83462 19.8567,0 28.483,-13.67186 8.7891,-13.83463 8.7891,-41.01559 0,-27.0182 -8.7891,-40.5273 -8.7891,-13.5091 -28.8086,-13.5091 -19.8567,0 -28.6458,13.5091 -8.789,13.34634 -8.789,40.5273 z m 125.8137,0 q 0,44.43355 -23.4375,69.49863 -23.4375,25.06508 -65.2669,25.06508 -26.2044,0 -46.2239,-11.39322 -20.0195,-11.55597 -30.7617,-33.04033 -10.7422,-21.48435 -10.7422,-50.13016 0,-44.59631 23.2747,-69.33587 23.2748,-24.73956 65.4297,-24.73956 26.2044,0 46.2239,11.39322 20.0195,11.39322 30.7617,32.71481 10.7422,21.3216 10.7422,49.9674 z"
         style="font-style:normal;font-variant:normal;font-weight:bold;font-stretch:normal;font-size:333.333px;font-family:'Open Sans';-inkscape-font-specification:'Open Sans Bold';font-variant-ligatures:normal;font-variant-caps:normal;font-variant-numeric:normal;font-variant-east-asian:normal;fill:#244583;fill-opacity:1"
         id="path867" />
      <path
         d="m 1466.6549,553.86171 q -32.0638,0 -50.4557,-24.90232 -18.2292,-24.90232 -18.2292,-69.01035 0,-44.75907 18.5547,-69.66139 18.7174,-25.06508 51.4322,-25.06508 34.3425,0 52.4089,26.69269 h 1.6276 q -3.7435,-20.34504 -3.7435,-36.29554 v -58.26817 h 49.8046 v 253.25496 h -38.0859 l -9.6028,-23.60024 h -2.1159 q -16.9271,26.85544 -51.595,26.85544 z m 17.4153,-39.55074 q 19.043,0 27.832,-11.0677 8.9518,-11.0677 9.7656,-37.59762 v -5.37109 q 0,-29.29684 -9.1145,-41.99214 -8.9519,-12.6953 -29.2969,-12.6953 -16.6015,0 -25.8789,14.16014 -9.1145,13.99738 -9.1145,40.85282 0,26.85545 9.2773,40.36455 9.2773,13.34634 26.5299,13.34634 z"
         style="font-style:normal;font-variant:normal;font-weight:bold;font-stretch:normal;font-size:333.333px;font-family:'Open Sans';-inkscape-font-specification:'Open Sans Bold';font-variant-ligatures:normal;font-variant-caps:normal;font-variant-numeric:normal;font-variant-east-asian:normal;fill:#244583;fill-opacity:1"
         id="path869" />
      <path
         d="m 1695.333,400.54155 q -15.7878,0 -24.7396,10.09113 -8.9518,9.92838 -10.2539,28.32029 h 69.6614 q -0.3255,-18.39191 -9.6028,-28.32029 -9.2774,-10.09113 -25.0651,-10.09113 z m 6.9987,153.32016 q -43.9453,0 -68.6848,-24.25128 -24.7396,-24.25128 -24.7396,-68.68483 0,-45.73563 22.7864,-70.63795 22.9492,-25.06508 63.3138,-25.06508 38.5742,0 60.0585,21.97264 21.4844,21.97263 21.4844,60.70957 v 24.08852 h -117.3502 q 0.8138,21.15884 12.5326,33.04033 11.7187,11.8815 32.8775,11.8815 16.4388,0 31.0872,-3.41796 14.6485,-3.41797 30.599,-10.90494 v 38.41142 q -13.0209,6.51041 -27.832,9.60286 -14.8112,3.2552 -36.1328,3.2552 z"
         style="font-style:normal;font-variant:normal;font-weight:bold;font-stretch:normal;font-size:333.333px;font-family:'Open Sans';-inkscape-font-specification:'Open Sans Bold';font-variant-ligatures:normal;font-variant-caps:normal;font-variant-numeric:normal;font-variant-east-asian:normal;fill:#244583;fill-opacity:1"
         id="path871" />
      <path
         d="m 2032.2467,550.60651 h -64.1275 L 1864.6037,370.59366 h -1.4649 q 3.0925,47.68876 3.0925,68.03379 v 111.97906 h -45.0846 v -237.9555 h 63.6392 l 103.3528,178.22248 h 1.1393 q -2.4414,-46.38667 -2.4414,-65.59238 v -112.6301 h 45.4101 z"
         style="font-style:normal;font-variant:normal;font-weight:bold;font-stretch:normal;font-size:333.333px;font-family:'Open Sans';-inkscape-font-specification:'Open Sans Bold';font-variant-ligatures:normal;font-variant-caps:normal;font-variant-numeric:normal;font-variant-east-asian:normal;fill:#244583;fill-opacity:1"
         id="path873" />
      <path
         d="m 2127.6242,459.298 q 0,27.0182 8.7891,40.85283 8.9518,13.83462 28.9713,13.83462 19.8568,0 28.4831,-13.67186 8.789,-13.83463 8.789,-41.01559 0,-27.0182 -8.789,-40.5273 -8.7891,-13.5091 -28.8086,-13.5091 -19.8567,0 -28.6458,13.5091 -8.7891,13.34634 -8.7891,40.5273 z m 125.8137,0 q 0,44.43355 -23.4375,69.49863 -23.4374,25.06508 -65.2668,25.06508 -26.2044,0 -46.2239,-11.39322 -20.0195,-11.55597 -30.7617,-33.04033 -10.7422,-21.48435 -10.7422,-50.13016 0,-44.59631 23.2747,-69.33587 23.2747,-24.73956 65.4296,-24.73956 26.2044,0 46.224,11.39322 20.0195,11.39322 30.7616,32.71481 10.7422,21.3216 10.7422,49.9674 z"
         style="font-style:normal;font-variant:normal;font-weight:bold;font-stretch:normal;font-size:333.333px;font-family:'Open Sans';-inkscape-font-specification:'Open Sans Bold';font-variant-ligatures:normal;font-variant-caps:normal;font-variant-numeric:normal;font-variant-east-asian:normal;fill:#244583;fill-opacity:1"
         id="path875" />
      <path
         d="m 2371.1136,514.31097 q 13.0208,0 31.25,-5.69661 v 36.94658 q -18.5547,8.30077 -45.5729,8.30077 -29.7851,0 -43.457,-14.97394 -13.5091,-15.13671 -13.5091,-45.24735 v -87.72778 h -23.763 v -20.99608 l 27.3437,-16.60154 14.3229,-38.41142 h 31.7383 v 38.73694 h 50.9439 v 37.2721 h -50.9439 v 87.72778 q 0,10.57941 5.8593,15.62498 6.0222,5.04557 15.7878,5.04557 z"
         style="font-style:normal;font-variant:normal;font-weight:bold;font-stretch:normal;font-size:333.333px;font-family:'Open Sans';-inkscape-font-specification:'Open Sans Bold';font-variant-ligatures:normal;font-variant-caps:normal;font-variant-numeric:normal;font-variant-east-asian:normal;fill:#244583;fill-opacity:1"
         id="path877" />
      <path
         d="m 2554.5444,550.60651 -9.6028,-24.73956 h -1.3021 q -12.5326,15.78774 -25.8789,21.97263 -13.1836,6.02213 -34.5052,6.02213 -26.2044,0 -41.3411,-14.97394 -14.9739,-14.97395 -14.9739,-42.64319 0,-28.97133 20.1822,-42.64319 20.3451,-13.83462 61.1979,-15.29946 l 31.5755,-0.97656 v -7.97526 q 0,-27.66924 -28.3203,-27.66924 -21.8099,0 -51.2695,13.18358 l -16.4388,-33.52861 q 31.4128,-16.43879 69.6614,-16.43879 36.6211,0 56.1523,15.95051 19.5313,15.9505 19.5313,48.50255 v 121.2564 z m -14.6484,-84.30982 -19.2057,0.65104 q -21.6471,0.65104 -32.2265,7.8125 -10.5795,7.16145 -10.5795,21.80987 0,20.99607 24.0886,20.99607 17.2525,0 27.5064,-9.92837 10.4167,-9.92838 10.4167,-26.36716 z"
         style="font-style:normal;font-variant:normal;font-weight:bold;font-stretch:normal;font-size:333.333px;font-family:'Open Sans';-inkscape-font-specification:'Open Sans Bold';font-variant-ligatures:normal;font-variant-caps:normal;font-variant-numeric:normal;font-variant-east-asian:normal;fill:#244583;fill-opacity:1"
         id="path879" />
      <path
         d="m 2741.7187,365.22257 q 10.0911,0 16.7643,1.46485 l -3.7435,46.54943 q -6.0221,-1.6276 -14.6484,-1.6276 -23.763,0 -37.1094,12.20702 -13.1836,12.20701 -13.1836,34.17965 v 92.61059 h -49.6418 V 368.64054 h 37.5976 l 7.3242,30.59893 h 2.4414 q 8.4635,-15.29947 22.7864,-24.5768 14.4857,-9.4401 31.4128,-9.4401 z"
         style="font-style:normal;font-variant:normal;font-weight:bold;font-stretch:normal;font-size:333.333px;font-family:'Open Sans';-inkscape-font-specification:'Open Sans Bold';font-variant-ligatures:normal;font-variant-caps:normal;font-variant-numeric:normal;font-variant-east-asian:normal;fill:#244583;fill-opacity:1"
         id="path881" />
      <path
         d="m 2765.8073,368.64054 h 54.3619 l 34.3424,102.3762 q 4.3945,13.34634 6.0221,31.57549 h 0.9766 q 1.7903,-16.76431 6.9987,-31.57549 l 33.6913,-102.3762 h 53.2227 l -76.9857,205.24068 q -10.5794,28.48305 -30.2734,42.64319 -19.5312,14.16014 -45.7356,14.16014 -12.8581,0 -25.2278,-2.76692 v -39.38798 q 8.9518,2.11588 19.5312,2.11588 13.1836,0 22.9492,-8.13801 9.9284,-7.97526 15.4622,-24.25128 l 2.9297,-8.95182 z"
         style="font-style:normal;font-variant:normal;font-weight:bold;font-stretch:normal;font-size:333.333px;font-family:'Open Sans';-inkscape-font-specification:'Open Sans Bold';font-variant-ligatures:normal;font-variant-caps:normal;font-variant-numeric:normal;font-variant-east-asian:normal;fill:#244583;fill-opacity:1"
         id="path883" />
    </g>
  </g>
  <g
     transform="matrix(7.7226132,0,0,7.7226132,-756.98774,504.00557)"
     id="g888">
    <defs
       id="SvgjsDefs1908" />
    <g
       id="SvgjsG1910"
       featureKey="nameFeature-0"
       transform="matrix(1.3438337,0,0,1.3438337,116.35163,16.562202)"
       fill="#000000" />
  </g>
  <g
     inkscape:groupmode="layer"
     id="layer6"
     inkscape:label="logo">
    <g
       id="SvgjsG1909"
       featureKey="symbolFeature-0"
       transform="matrix(3.3723202,0,0,3.3723202,104.42127,165.12529)"
       fill="#000000"
       style="fill:#244583;fill-opacity:1">
      <title
         id="title850">blockchain_1</title>
      <desc
         id="desc852">Created with Sketch.</desc>
      <g
         stroke="none"
         stroke-width="1"
         fill-rule="evenodd"
         id="g882"
         style="fill:#244583;fill-opacity:1">
        <g
           fill-rule="nonzero"
           id="g880"
           style="fill:#244583;fill-opacity:1">
          <path
             id="path854"
             style="stroke-width:4.09389;fill:#244583;fill-opacity:1"
             transform="matrix(0.24426667,0,0,0.24426667,9.5500075,-281.87505)"
             d="m 431.70117,1156.0117 c -258.88347,0 -468.749998,209.8665 -468.749998,468.75 0,258.8835 209.866528,468.75 468.749998,468.75 258.77125,-0.2708 468.47923,-209.9787 468.75,-468.75 0,-258.8835 -209.86654,-468.75 -468.75,-468.75 z m 0,20.4688 c 247.46627,0.2707 448.00853,200.8149 448.2793,448.2812 0,247.5785 -200.70078,448.2793 -448.2793,448.2793 -247.57852,0 -448.281248,-200.7008 -448.281248,-448.2793 0,-247.5785 200.702728,-448.2812 448.281248,-448.2812 z" />
          <path
             d="m 115,216.94 c -5.91636,-0.002 -11.82153,-0.51404 -17.65,-1.53 -0.913541,-0.11624 -1.689209,-0.72529 -2.018827,-1.58519 -0.329618,-0.85989 -0.159806,-1.83137 0.441968,-2.52846 0.601774,-0.69709 1.538057,-1.00691 2.436859,-0.80635 11.13993,1.93503 22.53007,1.93503 33.67,0 1.36138,-0.23748 2.65752,0.67362 2.895,2.035 0.23748,1.36138 -0.67362,2.65752 -2.035,2.895 -5.85837,1.01778 -11.79388,1.52634 -17.74,1.52 z M 65.33,203.66 c -0.438155,-3.5e-4 -0.86877,-0.11403 -1.25,-0.33 C 53.799557,197.37841 44.635643,189.67977 37,180.58 c -0.889178,-1.05763 -0.752625,-2.63582 0.305,-3.525 1.057625,-0.88918 2.635821,-0.75263 3.525,0.305 7.257655,8.65782 15.971974,15.98123 25.75,21.64 0.974622,0.56794 1.448186,1.71821 1.155935,2.80772 -0.292251,1.08951 -1.277914,1.84835 -2.405935,1.85228 z m 99.42,0 c -1.13683,0.009 -2.13626,-0.75109 -2.4324,-1.8487 -0.29615,-1.09761 0.18557,-2.25683 1.1724,-2.8213 9.79024,-5.65788 18.51511,-12.98501 25.78,-21.65 0.56301,-0.71845 1.47281,-1.07295 2.37348,-0.92483 0.90066,0.14812 1.64901,0.77533 1.95228,1.63625 0.30326,0.86091 0.11323,1.81867 -0.49576,2.49858 -7.64317,9.09457 -16.8139,16.78647 -27.1,22.73 -0.37919,0.22207 -0.81057,0.33941 -1.25,0.34 z m -143.18,-52 c -1.055154,-0.002 -1.99547,-0.66619 -2.35,-1.66 -4.073908,-11.16718 -6.155509,-22.96292 -6.15,-34.85 -0.0027,-0.66212 0.258505,-1.29803 0.725759,-1.76716 C 14.263013,112.9137 14.897875,112.65 15.56,112.65 c 1.378435,0.005 2.494519,1.12156 2.5,2.5 -0.0044,11.30389 1.975644,22.5208 5.85,33.14 0.469825,1.295 -0.196502,2.72604 -1.49,3.2 -0.273918,0.0903 -0.561779,0.13097 -0.85,0.12 z m 186.9,-0.1 c -0.29356,0.005 -0.58534,-0.0463 -0.86,-0.15 -0.62463,-0.22317 -1.13383,-0.68727 -1.41382,-1.28858 -0.27999,-0.60132 -0.30742,-1.28973 -0.0762,-1.91142 3.86959,-10.64382 5.83952,-21.88462 5.82,-33.21 v -0.22 c 0,-1.38071 1.11929,-2.5 2.5,-2.5 1.38071,0 2.5,1.11929 2.5,2.5 V 115 c 0.0148,11.89178 -2.05662,23.69397 -6.12,34.87 -0.36363,0.98406 -1.30091,1.63816 -2.35,1.64 z M 21.5,83.59 C 20.682953,83.590842 19.91705,83.192378 19.448771,82.522839 18.980492,81.8533 18.868935,80.997183 19.15,80.23 23.206427,69.055384 29.190317,58.678342 36.83,49.57 c 0.886417,-1.060387 2.464613,-1.201417 3.525,-0.315 1.060387,0.886417 1.201417,2.464613 0.315,3.525 -7.271661,8.659571 -12.964917,18.529687 -16.82,29.16 -0.357876,0.989869 -1.297425,1.649552 -2.35,1.65 z m 186.9,-0.3 c -1.05093,0.004 -1.99125,-0.652185 -2.35,-1.64 -3.88638,-10.611504 -9.60664,-20.457804 -16.9,-29.09 -0.57698,-0.687736 -0.74324,-1.631048 -0.43613,-2.474599 0.3071,-0.843551 1.04091,-1.459185 1.925,-1.615 0.88409,-0.155815 1.78415,0.171863 2.36113,0.859599 7.66833,9.08156 13.68293,19.438734 17.77,30.6 0.4774,1.295095 -0.18511,2.732032 -1.48,3.21 -0.28586,0.100717 -0.58692,0.151458 -0.89,0.15 z M 65.16,31.44 C 64.031979,31.436073 63.046316,30.67723 62.754065,29.587719 62.461814,28.498207 62.935378,27.347941 63.91,26.78 74.185354,20.796349 85.439082,16.679461 97.15,14.62 c 0.88066,-0.15541 1.777333,0.170811 2.352253,0.855779 0.574917,0.684968 0.740737,1.624621 0.435,2.465 C 99.631512,18.781158 98.90066,19.394589 98.02,19.55 86.888123,21.50696 76.190049,25.417173 66.42,31.1 c -0.382674,0.22245 -0.817368,0.339748 -1.26,0.34 z m 99.41,-0.15 c -0.4363,-4.33e-4 -0.8645,-0.117843 -1.24,-0.34 -9.79503,-5.649266 -20.5088,-9.528566 -31.65,-11.46 -1.30348,-0.290855 -2.14817,-1.55487 -1.91821,-2.870459 0.22996,-1.315589 1.45335,-2.21811 2.77821,-2.049541 11.71358,2.00844 22.98012,6.070894 33.28,12 0.98516,0.56357 1.46706,1.720056 1.1736,2.816424 -0.29346,1.096368 -1.28864,1.857487 -2.4236,1.853576 z"
             id="path856"
             style="fill:#244583;fill-opacity:1" />
          <path
             d="m 115,203.65 c -48.960043,0 -88.65,-39.68996 -88.65,-88.65 0,-48.960043 39.689957,-88.65 88.65,-88.65 48.96004,0 88.65,39.689957 88.65,88.65 -0.0551,48.9372 -39.7128,88.59489 -88.65,88.65 z m 0,-172.3 c -46.198619,0 -83.65,37.451381 -83.65,83.65 0,46.19862 37.451381,83.65 83.65,83.65 46.19862,0 83.65,-37.45138 83.65,-83.65 C 198.6004,68.821943 161.17806,31.399604 115,31.35 Z"
             id="path858"
             style="fill:#244583;fill-opacity:1" />
          <path
             d="m 110.28,140 c -0.2157,-0.002 -0.43046,-0.0288 -0.64,-0.08 -9.07406,-2.42767 -16.298671,-9.28999 -19.18955,-18.22727 C 87.55957,112.75545 89.396655,102.96201 95.33,95.68 v -0.06 c 0.577855,-0.698456 1.192036,-1.366044 1.84,-2 L 119.5,71.34 c 6.99526,-6.99526 17.19107,-9.727221 26.74678,-7.166778 9.5557,2.560443 17.01955,10.024297 19.58,19.58 2.56044,9.555704 -0.17152,19.751518 -7.16678,26.746778 l -22.27,22.27 c -0.6618,0.67432 -1.36303,1.30877 -2.1,1.9 -1.00023,0.79357 -2.43773,0.7059 -3.33411,-0.20333 -0.89639,-0.90923 -0.9636,-2.34783 -0.15589,-3.33667 4.59313,-5.65234 6.19945,-13.16342 4.32,-20.2 -0.23111,-0.85998 0.0127,-1.77798 0.64,-2.41 l 10.46,-10.46 c 3.79459,-3.967861 3.7246,-10.240211 -0.1576,-14.122405 C 142.18021,80.055402 135.90786,79.985407 131.94,83.78 l -22.27,22.27 c -0.49427,0.48614 -0.93665,1.02235 -1.32,1.6 -2.63035,4.00623 -2.08648,9.30878 1.30237,12.69763 3.38885,3.38885 8.6914,3.93272 12.69763,1.30237 0.99216,-0.6436 2.29957,-0.50394 3.1334,0.33472 0.83382,0.83866 0.96593,2.14685 0.3166,3.13528 -0.56766,0.85459 -1.21741,1.6517 -1.94,2.38 l -11.81,11.8 c -0.47522,0.45666 -1.11098,0.7081 -1.77,0.7 z M 99.16,98.9 c -4.664567,5.77981 -6.208081,13.47533 -4.133189,20.6069 2.074892,7.13156 7.505949,12.79786 14.543189,15.1731 l 6.45,-6.45 c -5.40295,-0.27575 -10.24487,-3.42274 -12.69069,-8.24828 -2.44582,-4.82554 -2.12126,-10.59116 0.85069,-15.11172 0.57151,-0.85761 1.22455,-1.65799 1.95,-2.39 L 128.4,80.24 c 5.8984,-5.898401 15.4616,-5.898401 21.36,0 5.8984,5.898401 5.8984,15.461599 0,21.36 l -9.47,9.46 c 0.40037,1.89044 0.60147,3.81763 0.6,5.75 0.003,1.61636 -0.14134,3.22962 -0.43,4.82 L 155.13,107 c 8.87245,-8.872455 8.87245,-23.257545 0,-32.13 -8.87246,-8.872454 -23.25755,-8.872454 -32.13,0 l -22.27,22.27 c -0.53756,0.534761 -1.045009,1.098963 -1.52,1.69 z"
             id="path860"
             style="fill:#244583;fill-opacity:1" />
          <path
             d="m 116.84,128.28 c -5.55698,0.0188 -10.67464,-3.01802 -13.32068,-7.90463 -2.64604,-4.8866 -2.39221,-10.83206 0.66068,-15.47537 0.18739,-0.2874 0.4326,-0.53261 0.72,-0.72 4.64205,-3.04624 10.58083,-3.30119 15.46686,-0.66398 4.88603,2.6372 7.93211,7.74167 7.93314,13.29398 -0.008,2.94184 -0.86948,5.81815 -2.48,8.28 -0.18739,0.2874 -0.4326,0.53261 -0.72,0.72 -2.4523,1.6139 -5.32428,2.47271 -8.26,2.47 z m -8.75,-20.19 c -2.31243,3.96572 -1.66268,8.99164 1.58224,12.23891 3.24492,3.24726 8.27037,3.90065 12.23776,1.59109 0.90251,-1.55235 1.38181,-3.31438 1.39,-5.11 -0.01,-3.61693 -1.94876,-6.95379 -5.08661,-8.75274 -3.13785,-1.79895 -6.99724,-1.78647 -10.12339,0.0327 z"
             id="path862"
             style="fill:#244583;fill-opacity:1" />
          <path
             d="m 137.53,112.78 c -0.21926,0.002 -0.43787,-0.0245 -0.65,-0.08 -0.86031,-0.23396 -1.53091,-0.90838 -1.76,-1.77 -2.10839,-7.82742 -8.22258,-13.941606 -16.05,-16.05 -0.85336,-0.244562 -1.51303,-0.92331 -1.73317,-1.783292 C 117.11669,92.236726 117.36911,91.324502 118,90.7 l 10.4,-10.46 c 5.8984,-5.898401 15.4616,-5.898401 21.36,0 5.8984,5.898401 5.8984,15.461599 0,21.36 l -10.46,10.45 c -0.46721,0.47237 -1.10563,0.73567 -1.77,0.73 z M 124.29,91.43 c 6.37896,2.805756 11.47424,7.901044 14.28,14.28 l 7.65,-7.65 c 2.64665,-2.531081 3.71589,-6.296507 2.7944,-9.840799 -0.92149,-3.544292 -3.68931,-6.312116 -7.2336,-7.233602 -3.54429,-0.921486 -7.30972,0.147747 -9.8408,2.794401 z"
             id="path864"
             style="fill:#244583;fill-opacity:1" />
          <path
             d="m 116.84,128.28 c -5.55698,0.0188 -10.67464,-3.01802 -13.32068,-7.90463 -2.64604,-4.8866 -2.39221,-10.83206 0.66068,-15.47537 0.18739,-0.2874 0.4326,-0.53261 0.72,-0.72 4.64205,-3.04624 10.58083,-3.30119 15.46686,-0.66398 4.88603,2.6372 7.93211,7.74167 7.93314,13.29398 -0.008,2.94184 -0.86948,5.81815 -2.48,8.28 -0.18739,0.2874 -0.4326,0.53261 -0.72,0.72 -2.4523,1.6139 -5.32428,2.47271 -8.26,2.47 z m -8.75,-20.19 c -2.31243,3.96572 -1.66268,8.99164 1.58224,12.23891 3.24492,3.24726 8.27037,3.90065 12.23776,1.59109 0.90251,-1.55235 1.38181,-3.31438 1.39,-5.11 -0.01,-3.61693 -1.94876,-6.95379 -5.08661,-8.75274 -3.13785,-1.79895 -6.99724,-1.78647 -10.12339,0.0327 z"
             id="path866"
             style="fill:#244583;fill-opacity:1" />
          <path
             d="m 137.53,112.78 c -0.21926,0.002 -0.43787,-0.0245 -0.65,-0.08 -0.86031,-0.23396 -1.53091,-0.90838 -1.76,-1.77 -2.10839,-7.82742 -8.22258,-13.941606 -16.05,-16.05 -0.85336,-0.244562 -1.51303,-0.92331 -1.73317,-1.783292 C 117.11669,92.236726 117.36911,91.324502 118,90.7 l 10.4,-10.46 c 5.8984,-5.898401 15.4616,-5.898401 21.36,0 5.8984,5.898401 5.8984,15.461599 0,21.36 l -10.46,10.45 c -0.46721,0.47237 -1.10563,0.73567 -1.77,0.73 z M 124.29,91.43 c 6.37896,2.805756 11.47424,7.901044 14.28,14.28 l 7.65,-7.65 c 2.64665,-2.531081 3.71589,-6.296507 2.7944,-9.840799 -0.92149,-3.544292 -3.68931,-6.312116 -7.2336,-7.233602 -3.54429,-0.921486 -7.30972,0.147747 -9.8408,2.794401 z"
             id="path868"
             style="fill:#244583;fill-opacity:1" />
          <path
             d="M 90.92,166.76 C 79.719958,166.7659 69.620125,160.02181 65.333256,149.67465 61.046387,139.32749 63.417424,127.41668 71.34,119.5 L 93.61,97.23 c 0.661797,-0.674319 1.363029,-1.308768 2.1,-1.9 1.000234,-0.793566 2.437725,-0.7059 3.334114,0.203331 0.896389,0.909231 0.963596,2.347824 0.155886,3.336669 -4.587074,5.65524 -6.192747,13.16325 -4.32,20.2 0.231112,0.85998 -0.01267,1.77798 -0.64,2.41 l -10.46,10.46 c -3.794593,3.96786 -3.724598,10.24021 0.157595,14.1224 3.882194,3.8822 10.154544,3.95219 14.122405,0.1576 L 120.33,124 c 0.49427,-0.48614 0.93665,-1.02235 1.32,-1.6 1.07351,-1.65226 1.64651,-3.57962 1.65,-5.55 -0.0106,-3.71121 -2.05172,-7.1189 -5.31868,-8.87964 -3.26695,-1.76073 -7.23559,-1.59201 -10.34132,0.43964 -0.99216,0.6436 -2.29957,0.50394 -3.1334,-0.33472 -0.83382,-0.83866 -0.96593,-2.14685 -0.3166,-3.13528 0.56766,-0.85459 1.21741,-1.6517 1.94,-2.38 L 118,90.7 c 0.62996,-0.6309 1.54823,-0.878567 2.41,-0.65 9.07406,2.427666 16.29867,9.289986 19.18955,18.22727 2.89088,8.93728 1.05379,18.73072 -4.87955,26.01273 v 0.06 c -0.57786,0.69846 -1.19204,1.36604 -1.84,2 l -22.38,22.31 c -5.18836,5.19854 -12.235362,8.11379 -19.58,8.1 z M 89.55,108.36 74.87,123 c -8.670949,8.8966 -8.579666,23.11067 0.204831,31.89517 8.784498,8.7845 22.998573,8.87578 31.895169,0.20483 l 22.27,-22.27 c 0.53756,-0.53476 1.04501,-1.09896 1.52,-1.69 l 0.08,-0.1 c 4.66457,-5.77981 6.20808,-13.47533 4.13319,-20.6069 C 132.8983,103.30154 127.46724,97.635237 120.43,95.26 l -6.43,6.48 c 5.40295,0.27575 10.24487,3.42274 12.69069,8.24828 2.44582,4.82554 2.12126,10.59116 -0.85069,15.11172 -0.57151,0.85761 -1.22455,1.65799 -1.95,2.39 l -22.29,22.27 c -5.898401,5.8984 -15.461599,5.8984 -21.36,0 -5.898401,-5.8984 -5.898401,-15.4616 0,-21.36 l 9.47,-9.46 c -0.732427,-3.48365 -0.786751,-7.0758 -0.16,-10.58 z"
             id="path870"
             style="fill:#244583;fill-opacity:1" />
          <path
             d="m 116.84,128.28 c -5.55698,0.0188 -10.67464,-3.01802 -13.32068,-7.90463 -2.64604,-4.8866 -2.39221,-10.83206 0.66068,-15.47537 0.18739,-0.2874 0.4326,-0.53261 0.72,-0.72 5.98683,-3.92318 13.90491,-3.1075 18.96621,1.95379 5.06129,5.0613 5.87697,12.97938 1.95379,18.96621 -0.18739,0.2874 -0.4326,0.53261 -0.72,0.72 -2.4534,1.61037 -5.3253,2.46568 -8.26,2.46 z m -8.75,-20.19 c -2.31243,3.96572 -1.66268,8.99164 1.58224,12.23891 3.24492,3.24726 8.27037,3.90065 12.23776,1.59109 0.90728,-1.554 1.38687,-3.32054 1.39,-5.12 -0.0131,-3.61515 -1.95373,-6.94874 -5.09093,-8.74525 -3.13719,-1.79651 -6.99447,-1.78308 -10.11907,0.0353 z"
             id="path872"
             style="fill:#244583;fill-opacity:1" />
          <path
             d="M 90.92,154.17 C 84.815342,154.168 79.312352,150.49069 76.975132,144.85116 74.637913,139.21163 75.926311,132.7196 80.24,128.4 L 90.7,118 c 0.629001,-0.63649 1.551165,-0.88651 2.415526,-0.65491 0.864362,0.2316 1.537977,0.9092 1.764474,1.77491 2.108394,7.82742 8.22258,13.94161 16.05,16.05 0.86156,0.23185 1.53425,0.90528 1.76517,1.76708 0.23092,0.86181 -0.015,1.78136 -0.64517,2.41292 l -10.45,10.41 c -2.832666,2.83061 -6.675468,4.41738 -10.68,4.41 z m 0.51,-29.88 -7.65,7.65 c -3.794593,3.96786 -3.724598,10.24021 0.157595,14.1224 3.882194,3.8822 10.154544,3.95219 14.122405,0.1576 l 7.65,-7.65 c -6.378956,-2.80576 -11.474244,-7.90104 -14.28,-14.28 z"
             id="path874"
             style="fill:#244583;fill-opacity:1" />
          <path
             d="m 116.84,128.28 c -5.55698,0.0188 -10.67464,-3.01802 -13.32068,-7.90463 -2.64604,-4.8866 -2.39221,-10.83206 0.66068,-15.47537 0.18739,-0.2874 0.4326,-0.53261 0.72,-0.72 5.98683,-3.92318 13.90491,-3.1075 18.96621,1.95379 5.06129,5.0613 5.87697,12.97938 1.95379,18.96621 -0.18739,0.2874 -0.4326,0.53261 -0.72,0.72 -2.4534,1.61037 -5.3253,2.46568 -8.26,2.46 z m -8.75,-20.19 c -2.31243,3.96572 -1.66268,8.99164 1.58224,12.23891 3.24492,3.24726 8.27037,3.90065 12.23776,1.59109 0.90728,-1.554 1.38687,-3.32054 1.39,-5.12 -0.0131,-3.61515 -1.95373,-6.94874 -5.09093,-8.74525 -3.13719,-1.79651 -6.99447,-1.78308 -10.11907,0.0353 z"
             id="path876"
             style="fill:#244583;fill-opacity:1" />
          <path
             d="M 90.92,154.17 C 84.815342,154.168 79.312352,150.49069 76.975132,144.85116 74.637913,139.21163 75.926311,132.7196 80.24,128.4 L 90.7,118 c 0.629001,-0.63649 1.551165,-0.88651 2.415526,-0.65491 0.864362,0.2316 1.537977,0.9092 1.764474,1.77491 2.108394,7.82742 8.22258,13.94161 16.05,16.05 0.86156,0.23185 1.53425,0.90528 1.76517,1.76708 0.23092,0.86181 -0.015,1.78136 -0.64517,2.41292 l -10.45,10.41 c -2.832666,2.83061 -6.675468,4.41738 -10.68,4.41 z m 0.51,-29.88 -7.65,7.65 c -3.794593,3.96786 -3.724598,10.24021 0.157595,14.1224 3.882194,3.8822 10.154544,3.95219 14.122405,0.1576 l 7.65,-7.65 c -6.378956,-2.80576 -11.474244,-7.90104 -14.28,-14.28 z"
             id="path878"
             style="fill:#244583;fill-opacity:1" />
        </g>
      </g>
    </g>
  </g>
</svg>
